<svg width="1234" height="717" viewBox="0 0 1234 717" fill="none" xmlns="http://www.w3.org/2000/svg">
<rect width="712.305" height="712.305" transform="matrix(0.866025 0.5 -0.866025 0.5 616.874 4.5813)" fill="#D9D9D9" fill-opacity="0.05"/>
<rect x="-2.98023e-08" y="0.5" width="711.305" height="711.305" transform="matrix(0.866025 0.5 -0.866025 0.5 617.307 4.8313)" stroke="url(#paint0_linear_3234_4242)" stroke-opacity="0.1"/>
<rect width="272.011" height="272.011" transform="matrix(0.866025 0.5 -0.866025 0.5 616.874 224.728)" fill="#D9D9D9" fill-opacity="0.1"/>
<rect x="-2.98023e-08" y="0.5" width="271.011" height="271.011" transform="matrix(0.866025 0.5 -0.866025 0.5 617.307 224.978)" stroke="url(#paint1_linear_3234_4242)" stroke-opacity="0.3"/>
<path d="M305.994 533.788L919.222 180.003" stroke="url(#paint2_linear_3234_4242)" stroke-dasharray="2 2"/>
<path d="M315.376 177.978L931.777 533.706" stroke="url(#paint3_linear_3234_4242)" stroke-dasharray="2 2"/>
<path d="M616.976 164.139L616.976 257.861" stroke="#315EFB"/>
<g filter="url(#filter0_f_3234_4242)">
<circle cx="82.2169" cy="82.2169" r="82.2169" transform="matrix(0.866025 0.5 -0.866025 0.5 618.4 274.686)" fill="#4C67EF"/>
</g>
<rect x="-2.98023e-08" y="0.5" width="205.803" height="205.803" transform="matrix(0.866025 0.5 -0.866025 0.5 617.307 257.582)" stroke="url(#paint4_linear_3234_4242)"/>
<rect x="-2.98023e-08" y="0.5" width="190.736" height="190.736" rx="27.5" transform="matrix(0.866025 0.5 -0.866025 0.5 618.366 222.454)" fill="white" fill-opacity="0.5" stroke="white"/>
<rect x="-2.98023e-08" y="0.5" width="190.736" height="190.736" rx="27.5" transform="matrix(0.866025 0.5 -0.866025 0.5 618.366 208.412)" fill="white" fill-opacity="0.3" stroke="white"/>
<g style="mix-blend-mode:multiply">
<mask id="mask0_3234_4242" style="mask-type:alpha" maskUnits="userSpaceOnUse" x="451" y="207" width="333" height="193">
<path d="M700.677 299.462C721.49 287.446 721.49 267.893 700.677 255.877L617.636 207.933L587.438 225.368L670.479 273.312C674.639 275.714 674.639 279.625 670.479 282.028C666.318 284.43 659.543 284.43 655.382 282.028L610.088 255.877C589.27 243.863 555.403 243.863 534.59 255.88L451.549 303.823L481.747 321.258L564.788 273.314C568.949 270.912 575.724 270.912 579.885 273.314L625.179 299.465C645.992 311.482 679.859 311.482 700.672 299.465L700.677 299.462Z" fill="#CFD4FF" fill-opacity="0.7"/>
<path d="M579.885 325.616L625.18 351.767C645.992 363.783 679.859 363.783 700.672 351.767L783.713 303.823L753.515 286.388L670.474 334.332C666.313 336.734 659.538 336.734 655.378 334.332L610.083 308.181C589.27 296.165 555.403 296.165 534.59 308.181C513.778 320.198 513.778 339.751 534.59 351.767L617.631 399.711L647.829 382.276L564.789 334.332C560.628 331.93 560.628 328.018 564.789 325.616C568.949 323.214 575.724 323.214 579.885 325.616Z" fill="#CFD4FF" fill-opacity="0.7"/>
</mask>
<g mask="url(#mask0_3234_4242)">
<rect width="191.736" height="191.736" rx="28" transform="matrix(0.866025 0.5 -0.866025 0.5 618.105 208.317)" fill="#CFD4FF" fill-opacity="0.3"/>
</g>
</g>
<path d="M600.111 389.295L600.111 403.396" stroke="white"/>
<path d="M635.542 389.295L635.542 403.396" stroke="white"/>
<path d="M583.48 379.534L583.48 393.634" stroke="white"/>
<path d="M652.173 379.534L652.173 393.634" stroke="white"/>
<path d="M616.874 371.58L795.971 268.178L616.874 164.777L437.777 268.178" stroke="#6674A6"/>
<line x1="438.721" y1="267.171" x2="438.721" y2="362.135" stroke="#315EFB"/>
<line x1="796.23" y1="267.171" x2="796.23" y2="362.135" stroke="#315EFB"/>
<path d="M617.597 369.583L617.597 462.684" stroke="#315EFB"/>
<circle cx="438.531" cy="268.102" r="2.66372" fill="white" stroke="#315EFB" stroke-width="1.5"/>
<circle cx="795.731" cy="267.518" r="2.97406" fill="white" stroke="#315EFB" stroke-width="1.5"/>
<circle cx="616.976" cy="370.204" r="2.97406" fill="white" stroke="#315EFB" stroke-width="1.5"/>
<circle cx="616.976" cy="164.76" r="2.97406" fill="white" stroke="#315EFB" stroke-width="1.5"/>
<path d="M441.195 360.893C441.195 362.599 439.942 363.868 438.531 363.868C437.12 363.868 435.868 362.599 435.868 360.893C435.868 359.188 437.12 357.919 438.531 357.919C439.942 357.919 441.195 359.188 441.195 360.893Z" fill="white" stroke="#315EFB" stroke-width="1.5"/>
<circle cx="795.731" cy="360.893" r="2.97406" fill="white" stroke="#315EFB" stroke-width="1.5"/>
<circle cx="616.976" cy="462.685" r="2.97406" fill="white" stroke="#315EFB" stroke-width="1.5"/>
<rect width="85.016" height="85.016" transform="matrix(0.866025 0.5 -0.866025 0.5 801.626 414.769)" fill="#D9D9D9" fill-opacity="0.1"/>
<rect x="-2.98023e-08" y="0.5" width="84.016" height="84.016" transform="matrix(0.866025 0.5 -0.866025 0.5 802.059 415.019)" stroke="url(#paint5_linear_3234_4242)" stroke-opacity="0.3"/>
<rect width="85.016" height="85.016" transform="matrix(0.866025 0.5 -0.866025 0.5 801.626 226)" fill="#D9D9D9" fill-opacity="0.1"/>
<rect x="-2.98023e-08" y="0.5" width="84.016" height="84.016" transform="matrix(0.866025 0.5 -0.866025 0.5 802.059 226.25)" stroke="url(#paint6_linear_3234_4242)" stroke-opacity="0.3"/>
<rect width="85.016" height="85.016" transform="matrix(0.866025 0.5 -0.866025 0.5 431.626 414.769)" fill="#D9D9D9" fill-opacity="0.1"/>
<rect x="-2.98023e-08" y="0.5" width="84.016" height="84.016" transform="matrix(0.866025 0.5 -0.866025 0.5 432.059 415.019)" stroke="url(#paint7_linear_3234_4242)" stroke-opacity="0.3"/>
<rect width="85.016" height="85.016" transform="matrix(0.866025 0.5 -0.866025 0.5 431.626 225)" fill="#D9D9D9" fill-opacity="0.1"/>
<rect x="-2.98023e-08" y="0.5" width="84.016" height="84.016" transform="matrix(0.866025 0.5 -0.866025 0.5 432.059 225.25)" stroke="url(#paint8_linear_3234_4242)" stroke-opacity="0.3"/>
<path d="M743.318 298.598C743.202 298.597 743.09 298.558 742.999 298.486C742.908 298.415 742.844 298.314 742.817 298.201C742.79 298.089 742.802 297.97 742.85 297.865C742.898 297.759 742.98 297.673 743.083 297.62L765.309 286.184C765.37 286.151 765.436 286.13 765.505 286.123C765.574 286.116 765.643 286.123 765.709 286.143C765.775 286.163 765.836 286.197 765.889 286.241C765.942 286.286 765.985 286.34 766.017 286.402C766.048 286.464 766.067 286.531 766.072 286.6C766.077 286.669 766.068 286.738 766.046 286.804C766.024 286.869 765.989 286.93 765.943 286.981C765.897 287.033 765.841 287.075 765.779 287.105L743.553 298.538C743.481 298.578 743.4 298.598 743.318 298.598Z" fill="#A5B6F5"/>
<path d="M748.476 301.183C748.36 301.183 748.248 301.144 748.157 301.072C748.066 301 748.002 300.9 747.975 300.787C747.948 300.674 747.959 300.556 748.008 300.45C748.056 300.345 748.138 300.259 748.241 300.206L770.467 288.77C770.528 288.737 770.594 288.716 770.663 288.709C770.731 288.702 770.801 288.709 770.867 288.729C770.933 288.749 770.994 288.783 771.047 288.827C771.1 288.872 771.143 288.926 771.174 288.988C771.206 289.049 771.225 289.117 771.23 289.186C771.235 289.255 771.226 289.324 771.203 289.39C771.181 289.455 771.146 289.515 771.1 289.567C771.054 289.619 770.999 289.661 770.936 289.69L748.71 301.126C748.638 301.164 748.557 301.183 748.476 301.183Z" fill="#A5B6F5"/>
<path d="M738.161 296.01C738.045 296.009 737.933 295.97 737.842 295.898C737.751 295.827 737.687 295.726 737.66 295.613C737.633 295.501 737.644 295.382 737.693 295.277C737.741 295.171 737.823 295.085 737.926 295.032L760.152 283.599C760.273 283.541 760.412 283.533 760.539 283.576C760.666 283.62 760.771 283.711 760.832 283.831C760.893 283.95 760.906 284.089 760.866 284.218C760.827 284.346 760.739 284.454 760.621 284.519L738.395 295.953C738.323 295.99 738.242 296.009 738.161 296.01Z" fill="#A5B6F5"/>
<path d="M468.829 436.776C468.713 436.782 468.598 436.749 468.503 436.682C468.408 436.615 468.338 436.518 468.305 436.407C468.272 436.295 468.277 436.175 468.32 436.067C468.364 435.959 468.442 435.869 468.543 435.811L490.367 423.239C490.484 423.179 490.62 423.167 490.747 423.205C490.873 423.243 490.98 423.328 491.046 423.442C491.111 423.557 491.131 423.692 491.1 423.821C491.07 423.949 490.991 424.061 490.881 424.133L469.057 436.708C468.987 436.748 468.909 436.771 468.829 436.776Z" fill="#A5B6F5"/>
<path d="M474.127 439.058C474.011 439.065 473.896 439.032 473.801 438.965C473.706 438.898 473.636 438.801 473.603 438.689C473.57 438.578 473.575 438.458 473.618 438.35C473.662 438.242 473.74 438.151 473.841 438.093L495.665 425.521C495.783 425.453 495.924 425.435 496.055 425.47C496.187 425.506 496.3 425.593 496.368 425.711C496.402 425.77 496.424 425.835 496.433 425.902C496.442 425.97 496.438 426.038 496.42 426.104C496.403 426.17 496.372 426.232 496.331 426.286C496.29 426.339 496.238 426.385 496.179 426.419L474.355 438.991C474.285 439.03 474.207 439.053 474.127 439.058Z" fill="#A5B6F5"/>
<path d="M463.53 434.493C463.414 434.499 463.299 434.467 463.204 434.4C463.109 434.333 463.039 434.235 463.006 434.124C462.973 434.012 462.978 433.892 463.021 433.784C463.065 433.676 463.143 433.586 463.244 433.528L485.068 420.953C485.186 420.885 485.327 420.866 485.459 420.902C485.592 420.938 485.704 421.025 485.772 421.144C485.84 421.263 485.859 421.404 485.823 421.537C485.787 421.669 485.701 421.782 485.582 421.85L463.758 434.425C463.688 434.465 463.61 434.488 463.53 434.493Z" fill="#A5B6F5"/>
<g filter="url(#filter1_f_3234_4242)">
<path d="M791.526 248.237C797.926 245.027 805.465 245.027 811.865 248.237C828.555 256.606 828.554 280.427 811.864 288.796C805.465 292.004 797.926 292.004 791.527 288.796C774.837 280.427 774.837 256.606 791.526 248.237Z" fill="#0A1C60"/>
</g>
<g filter="url(#filter2_f_3234_4242)">
<path d="M422.133 433.464C428.532 430.255 436.071 430.255 442.471 433.464C459.161 441.834 459.161 465.655 442.47 474.024C436.071 477.233 428.533 477.233 422.133 474.024C405.443 465.655 405.443 441.834 422.133 433.464Z" fill="#0A1C60"/>
</g>
<g filter="url(#filter3_f_3234_4242)">
<path d="M422.133 248.236C428.532 245.027 436.071 245.027 442.471 248.236C459.161 256.606 459.161 280.427 442.47 288.796C436.071 292.004 428.533 292.004 422.133 288.796C405.443 280.427 405.443 256.606 422.133 248.236Z" fill="#0A1C60"/>
</g>
<path d="M490.679 298.598C490.597 298.598 490.516 298.578 490.444 298.538L468.218 287.105C468.101 287.04 468.013 286.932 467.973 286.803C467.934 286.675 467.946 286.536 468.007 286.416C468.068 286.296 468.173 286.205 468.3 286.162C468.427 286.118 468.566 286.127 468.687 286.184L490.913 297.62C491.016 297.673 491.099 297.759 491.147 297.865C491.195 297.97 491.207 298.089 491.18 298.201C491.153 298.314 491.088 298.415 490.998 298.486C490.907 298.558 490.794 298.597 490.679 298.598Z" fill="#A5B6F5"/>
<path d="M485.522 301.183C485.44 301.183 485.36 301.164 485.287 301.126L463.061 289.69C462.943 289.626 462.856 289.517 462.816 289.389C462.777 289.26 462.789 289.121 462.85 289.002C462.911 288.882 463.016 288.791 463.143 288.747C463.27 288.704 463.409 288.712 463.53 288.77L485.756 300.206C485.859 300.259 485.941 300.345 485.99 300.45C486.038 300.556 486.05 300.674 486.022 300.787C485.995 300.9 485.931 301 485.84 301.072C485.75 301.144 485.637 301.183 485.522 301.183Z" fill="#A5B6F5"/>
<path d="M495.836 296.01C495.755 296.009 495.674 295.99 495.602 295.953L473.376 284.519C473.258 284.454 473.171 284.346 473.131 284.218C473.092 284.089 473.104 283.95 473.165 283.831C473.226 283.711 473.331 283.62 473.458 283.576C473.585 283.533 473.724 283.541 473.845 283.599L496.071 295.032C496.174 295.085 496.256 295.171 496.305 295.277C496.353 295.382 496.365 295.501 496.337 295.613C496.31 295.726 496.246 295.827 496.155 295.898C496.065 295.97 495.952 296.009 495.836 296.01Z" fill="#A5B6F5"/>
<path d="M765.109 436.871C765.029 436.865 764.951 436.841 764.881 436.801L743.168 424.036C743.106 424.003 743.05 423.959 743.006 423.905C742.961 423.85 742.928 423.787 742.909 423.72C742.889 423.652 742.884 423.581 742.892 423.512C742.901 423.442 742.924 423.374 742.959 423.314C742.995 423.253 743.043 423.2 743.099 423.159C743.156 423.117 743.22 423.087 743.289 423.072C743.357 423.056 743.428 423.054 743.497 423.067C743.566 423.08 743.632 423.106 743.69 423.145L765.403 435.908C765.503 435.967 765.581 436.058 765.623 436.167C765.666 436.275 765.67 436.395 765.636 436.506C765.602 436.618 765.531 436.714 765.436 436.78C765.34 436.846 765.225 436.878 765.109 436.871Z" fill="#A5B6F5"/>
<path d="M759.79 439.107C759.71 439.101 759.632 439.077 759.562 439.037L737.849 426.274C737.791 426.24 737.74 426.194 737.699 426.14C737.658 426.086 737.628 426.024 737.611 425.958C737.594 425.892 737.59 425.823 737.6 425.756C737.609 425.689 737.632 425.624 737.667 425.565C737.736 425.447 737.849 425.362 737.981 425.327C738.113 425.293 738.254 425.313 738.372 425.382L760.085 438.145C760.185 438.203 760.262 438.294 760.305 438.403C760.347 438.511 760.351 438.631 760.317 438.742C760.283 438.854 760.213 438.95 760.117 439.017C760.021 439.083 759.906 439.115 759.79 439.107Z" fill="#A5B6F5"/>
<path d="M770.427 434.634C770.347 434.629 770.269 434.605 770.199 434.565L748.486 421.799C748.368 421.73 748.283 421.616 748.248 421.484C748.214 421.351 748.233 421.21 748.302 421.091C748.372 420.973 748.485 420.887 748.617 420.852C748.75 420.818 748.891 420.837 749.009 420.906L770.722 433.672C770.822 433.731 770.899 433.822 770.942 433.93C770.984 434.039 770.988 434.158 770.954 434.27C770.92 434.381 770.85 434.478 770.754 434.544C770.658 434.61 770.543 434.642 770.427 434.634Z" fill="#A5B6F5"/>
<g filter="url(#filter4_f_3234_4242)">
<path d="M791.526 433.465C797.926 430.255 805.465 430.255 811.865 433.465C828.555 441.834 828.554 465.655 811.864 474.024C805.465 477.232 797.926 477.232 791.527 474.024C774.837 465.655 774.837 441.834 791.526 433.465Z" fill="#0A1C60"/>
</g>
<path d="M813.361 434.446L801.695 440.297L772.754 425.785L801.695 411.274L813.361 417.123V434.446Z" fill="url(#paint9_linear_3234_4242)" stroke="#6674A6" stroke-width="0.5" stroke-linejoin="round" stroke-dasharray="1 1"/>
<path d="M830.636 454.803L801.695 469.315V440.298L813.369 434.444L830.636 443.106V454.803Z" fill="#E3E5F9" stroke="#6674A6" stroke-width="0.5" stroke-linejoin="round" stroke-dasharray="1 1"/>
<path d="M801.695 469.315L772.754 454.803V425.785L801.695 440.298V469.315Z" fill="#4D68EE" stroke="#FEFEFE" stroke-width="0.5"/>
<path d="M830.636 443.106L813.361 434.444L784.423 448.957L801.695 457.618L830.636 443.106Z" fill="url(#paint10_linear_3234_4242)" stroke="#6674A6" stroke-width="0.5" stroke-linejoin="round" stroke-dasharray="1 1"/>
<path d="M813.361 417.123L784.423 431.636V448.957L813.361 434.444V417.123Z" fill="#E3E5F9" stroke="#6674A6" stroke-width="0.5" stroke-linejoin="round" stroke-dasharray="1 1"/>
<path d="M816.647 433.11L811.536 435.672L806.427 433.11L811.536 430.547L816.647 433.11Z" fill="url(#paint11_linear_3234_4242)"/>
<path d="M816.647 438.234L811.536 440.797V435.672L816.647 433.11V438.234Z" fill="#E3E5F9"/>
<path d="M811.536 440.797L806.427 438.234V433.11L811.536 435.672V440.797Z" fill="url(#paint12_linear_3234_4242)"/>
<path d="M830.636 433.11L825.528 435.672L820.417 433.11L825.528 430.547L830.636 433.11Z" fill="url(#paint13_linear_3234_4242)" stroke="#6674A6" stroke-width="0.5" stroke-linejoin="round" stroke-dasharray="1 1"/>
<path d="M830.636 438.234L825.528 440.797V435.672L830.636 433.11V438.234Z" fill="#E3E5F9" stroke="#6674A6" stroke-width="0.5" stroke-linejoin="round" stroke-dasharray="1 1"/>
<path d="M825.528 440.797L820.417 438.234V433.11L825.528 435.672V440.797Z" fill="#4D68EE" stroke="#FEFEFE" stroke-width="0.5"/>
<path d="M823.421 436.729L818.31 439.292L813.202 436.729L818.31 434.167L823.421 436.729Z" fill="url(#paint14_linear_3234_4242)" stroke="#6674A6" stroke-width="0.5" stroke-linejoin="round" stroke-dasharray="1 1"/>
<path d="M823.421 441.852L818.31 444.414V439.292L823.421 436.729V441.852Z" fill="#E3E5F9" stroke="#6674A6" stroke-width="0.5" stroke-linejoin="round" stroke-dasharray="1 1"/>
<path d="M818.31 444.414L813.202 441.852V436.729L818.31 439.292V444.414Z" fill="#4D68EE" stroke="#FEFEFE" stroke-width="0.5"/>
<path d="M823.421 422.315L818.31 424.877L813.202 422.315L818.31 419.755L823.421 422.315Z" fill="url(#paint15_linear_3234_4242)" stroke="#6674A6" stroke-width="0.5" stroke-linejoin="round" stroke-dasharray="1 1"/>
<path d="M823.421 427.439L818.31 430.002V424.877L823.421 422.315V427.439Z" fill="#E3E5F9" stroke="#6674A6" stroke-width="0.5" stroke-linejoin="round" stroke-dasharray="1 1"/>
<path d="M818.31 430.002L813.202 427.439V422.315L818.31 424.877V430.002Z" fill="#4D68EE" stroke="#FEFEFE" stroke-width="0.5"/>
<path d="M816.647 425.904L811.536 428.466L806.427 425.904L811.536 423.341L816.647 425.904Z" fill="url(#paint16_linear_3234_4242)" stroke="#6674A6" stroke-width="0.5" stroke-linejoin="round" stroke-dasharray="1 1"/>
<path d="M816.647 431.028L811.536 433.59V428.466L816.647 425.904V431.028Z" fill="#E3E5F9" stroke="#6674A6" stroke-width="0.5" stroke-linejoin="round" stroke-dasharray="1 1"/>
<path d="M811.536 433.59L806.427 431.028V425.904L811.536 428.466V433.59Z" fill="#4D68EE" stroke="#FEFEFE" stroke-width="0.5"/>
<path d="M830.636 425.904L825.528 428.466L820.417 425.904L825.528 423.341L830.636 425.904Z" fill="url(#paint17_linear_3234_4242)" stroke="#6674A6" stroke-width="0.5" stroke-linejoin="round" stroke-dasharray="1 1"/>
<path d="M830.636 431.028L825.528 433.59V428.466L830.636 425.904V431.028Z" fill="#E3E5F9" stroke="#6674A6" stroke-width="0.5" stroke-linejoin="round" stroke-dasharray="1 1"/>
<path d="M825.528 433.59L820.417 431.028V425.904L825.528 428.466V433.59Z" fill="#4D68EE" stroke="#FEFEFE" stroke-width="0.5"/>
<path d="M823.421 429.523L818.31 432.086L813.202 429.523L818.31 426.961L823.421 429.523Z" fill="url(#paint18_linear_3234_4242)" stroke="#6674A6" stroke-width="0.5" stroke-linejoin="round" stroke-dasharray="1 1"/>
<path d="M823.421 434.645L818.31 437.208V432.086L823.421 429.523V434.645Z" fill="#E3E5F9" stroke="#6674A6" stroke-width="0.5" stroke-linejoin="round" stroke-dasharray="1 1"/>
<path d="M818.31 437.208L813.202 434.645V429.523L818.31 432.086V437.208Z" fill="#4D68EE" stroke="#FEFEFE" stroke-width="0.5"/>
<path d="M813.753 434.25L801.695 440.298L789.637 434.25L801.695 428.205L813.753 434.25Z" fill="url(#paint19_linear_3234_4242)" stroke="#6674A6" stroke-width="0.5" stroke-linejoin="round" stroke-dasharray="1 1"/>
<path d="M813.753 446.34L801.695 452.388V440.297L813.753 434.25V446.34Z" fill="#E3E5F9" stroke="#6674A6" stroke-width="0.5" stroke-linejoin="round" stroke-dasharray="1 1"/>
<path d="M801.695 452.388L789.637 446.34V434.25L801.695 440.297V452.388Z" fill="#4D68EE" stroke="#FEFEFE" stroke-width="0.5"/>
<path d="M461.243 240.557L432.302 255.069L403.361 240.557L432.302 226.046L461.243 240.557Z" fill="url(#paint20_linear_3234_4242)" stroke="#6674A5" stroke-width="0.5" stroke-dasharray="1 1"/>
<path d="M461.243 269.575L432.302 284.087V255.069L461.243 240.557V269.575Z" fill="#E3E5F9" stroke="#6674A5" stroke-width="0.5" stroke-dasharray="1 1"/>
<path d="M432.302 284.087L403.361 269.575V240.557L432.302 255.069V284.087Z" fill="#4D68EE" stroke="#FEFEFE" stroke-width="0.5"/>
<path d="M449.577 263.729L432.302 255.067L415.03 263.729L432.302 272.39L449.577 263.729Z" fill="url(#paint21_linear_3234_4242)" stroke="#6674A5" stroke-width="0.5" stroke-dasharray="1 1"/>
<path d="M449.577 246.408L432.302 237.746V255.067L449.577 263.729V246.408Z" fill="#4D68EE" stroke="#FEFEFE" stroke-width="0.5"/>
<path d="M432.302 237.746L415.03 246.408V263.729L432.302 255.067V237.746Z" fill="#E3E5F9" stroke="#6674A5" stroke-width="0.5" stroke-dasharray="1 1"/>
<path d="M444.36 249.024L432.302 255.07L420.244 249.024L432.302 242.977L444.36 249.024Z" fill="#EDEFFC" stroke="#6674A5" stroke-width="0.5" stroke-dasharray="1 1"/>
<path d="M444.36 261.112L432.302 267.16V255.069L444.36 249.024V261.112Z" fill="#E3E5F9" stroke="#6674A5" stroke-width="0.5" stroke-dasharray="1 1"/>
<path d="M432.302 267.16L420.244 261.112V249.024L432.302 255.069V267.16Z" fill="#4D68EE" stroke="#FEFEFE" stroke-width="0.5"/>
<path d="M452.896 436.872C441.596 431.204 423.271 431.204 411.969 436.872C406.316 439.716 403.49 443.421 403.493 447.136V454.148C403.493 457.861 406.329 461.577 411.969 464.41C423.271 470.075 441.596 470.075 452.896 464.41C458.551 461.566 461.375 457.859 461.372 454.143V447.162C461.367 443.421 458.551 439.705 452.896 436.872Z" fill="#4D68EE" stroke="#FEFEFE" stroke-width="0.5"/>
<path d="M432.434 461.394C432.108 461.394 431.784 461.391 431.461 461.386L431.457 461.636C430.803 461.625 430.154 461.603 429.511 461.571L429.524 461.321C428.871 461.288 428.225 461.245 427.586 461.19L427.565 461.44C426.911 461.384 426.265 461.318 425.627 461.24L425.657 460.992C425.008 460.914 424.368 460.824 423.737 460.724L423.698 460.971C423.048 460.868 422.407 460.754 421.777 460.629L421.826 460.383C421.184 460.256 420.554 460.117 419.936 459.968L419.877 460.211C419.235 460.055 418.605 459.888 417.99 459.71L418.06 459.47C417.429 459.288 416.814 459.094 416.215 458.889L416.134 459.125C415.507 458.91 414.897 458.683 414.306 458.445L414.4 458.213C413.788 457.966 413.197 457.707 412.628 457.437L412.521 457.663C411.919 457.377 411.342 457.078 410.791 456.767L410.914 456.549C410.338 456.224 409.791 455.886 409.276 455.536L409.135 455.742C408.58 455.365 408.061 454.974 407.579 454.571L407.74 454.379C407.231 453.952 406.766 453.512 406.348 453.06L406.165 453.23C405.707 452.735 405.303 452.226 404.958 451.703L405.166 451.565C404.805 451.019 404.51 450.46 404.284 449.891L404.051 449.983C403.807 449.37 403.641 448.742 403.557 448.103L403.804 448.07C403.763 447.76 403.743 447.447 403.743 447.131C403.743 446.816 403.763 446.502 403.804 446.192L403.557 446.159C403.641 445.52 403.807 444.893 404.051 444.279L404.284 444.372C404.51 443.802 404.805 443.244 405.166 442.698L404.958 442.56C405.303 442.037 405.707 441.527 406.165 441.032L406.348 441.202C406.766 440.75 407.231 440.31 407.74 439.883L407.579 439.692C408.061 439.288 408.58 438.897 409.135 438.52L409.276 438.727C409.791 438.377 410.338 438.039 410.914 437.713L410.791 437.496C411.342 437.185 411.919 436.886 412.521 436.6L412.628 436.826C413.197 436.555 413.788 436.296 414.4 436.049L414.306 435.817C414.897 435.579 415.507 435.352 416.134 435.137L416.215 435.374C416.814 435.169 417.429 434.975 418.06 434.792L417.99 434.552C418.605 434.374 419.235 434.207 419.877 434.052L419.936 434.295C420.554 434.145 421.184 434.007 421.826 433.879L421.777 433.634C422.407 433.509 423.048 433.394 423.698 433.291L423.737 433.538C424.368 433.438 425.008 433.349 425.657 433.27L425.627 433.022C426.265 432.945 426.911 432.878 427.565 432.823L427.586 433.072C428.225 433.018 428.871 432.974 429.524 432.941L429.511 432.691C430.154 432.659 430.803 432.637 431.457 432.627L431.461 432.876C431.784 432.871 432.108 432.868 432.434 432.868C432.759 432.868 433.083 432.871 433.406 432.876L433.41 432.627C434.064 432.637 434.713 432.659 435.356 432.691L435.343 432.941C435.996 432.974 436.642 433.018 437.281 433.072L437.302 432.823C437.956 432.878 438.602 432.945 439.241 433.022L439.211 433.27C439.859 433.349 440.5 433.438 441.13 433.538L441.169 433.291C441.82 433.394 442.46 433.509 443.09 433.634L443.041 433.879C443.683 434.007 444.313 434.145 444.931 434.295L444.99 434.052C445.632 434.207 446.262 434.374 446.877 434.552L446.807 434.792C447.438 434.975 448.053 435.169 448.652 435.374L448.733 435.137C449.361 435.352 449.97 435.579 450.561 435.817L450.467 436.049C451.079 436.296 451.67 436.555 452.239 436.826L452.347 436.6C452.948 436.886 453.525 437.185 454.076 437.496L453.953 437.713C454.529 438.039 455.076 438.377 455.591 438.727L455.732 438.52C456.287 438.897 456.807 439.288 457.288 439.692L457.128 439.883C457.636 440.31 458.101 440.75 458.519 441.202L458.703 441.032C459.16 441.527 459.564 442.037 459.91 442.56L459.701 442.698C460.062 443.244 460.357 443.802 460.584 444.372L460.816 444.279C461.06 444.893 461.226 445.52 461.311 446.159L461.063 446.192C461.104 446.502 461.125 446.816 461.125 447.131C461.125 447.447 461.104 447.76 461.063 448.07L461.311 448.103C461.226 448.742 461.06 449.37 460.816 449.983L460.584 449.891C460.357 450.46 460.062 451.019 459.701 451.565L459.91 451.703C459.564 452.226 459.16 452.735 458.703 453.23L458.519 453.06C458.101 453.512 457.636 453.952 457.128 454.379L457.288 454.571C456.807 454.974 456.287 455.365 455.732 455.742L455.591 455.536C455.076 455.886 454.529 456.224 453.953 456.549L454.076 456.767C453.525 457.078 452.948 457.377 452.347 457.663L452.239 457.437C451.67 457.707 451.079 457.966 450.467 458.213L450.561 458.445C449.97 458.683 449.361 458.91 448.733 459.125L448.652 458.889C448.053 459.094 447.438 459.288 446.807 459.47L446.877 459.71C446.262 459.888 445.632 460.055 444.99 460.211L444.931 459.968C444.313 460.117 443.683 460.256 443.041 460.383L443.09 460.629C442.46 460.754 441.82 460.868 441.169 460.971L441.13 460.724C440.499 460.824 439.859 460.914 439.211 460.992L439.241 461.24C438.602 461.318 437.956 461.384 437.302 461.44L437.281 461.19C436.642 461.245 435.996 461.288 435.343 461.321L435.356 461.571C434.713 461.603 434.064 461.625 433.41 461.636L433.406 461.386C433.083 461.391 432.759 461.394 432.434 461.394Z" fill="white" stroke="#6674A6" stroke-width="0.5" stroke-dasharray="2 2"/>
<path d="M452.896 424.955C441.596 419.287 423.271 419.287 411.969 424.955C406.316 427.799 403.49 431.507 403.493 435.222V442.219C403.493 445.934 406.329 449.647 411.969 452.481C423.271 458.148 441.596 458.148 452.896 452.481C458.551 449.637 461.375 445.932 461.372 442.216V435.235C461.367 431.507 458.551 427.789 452.896 424.955Z" fill="#4D68EE" stroke="#FEFEFE" stroke-width="0.5"/>
<path d="M432.434 449.477C432.108 449.477 431.784 449.474 431.461 449.469L431.457 449.719C430.803 449.708 430.154 449.686 429.511 449.654L429.524 449.404C428.871 449.372 428.225 449.328 427.586 449.274L427.565 449.523C426.911 449.467 426.265 449.401 425.627 449.323L425.657 449.075C425.008 448.997 424.368 448.907 423.737 448.807L423.698 449.054C423.048 448.951 422.407 448.837 421.777 448.712L421.826 448.466C421.184 448.339 420.554 448.2 419.936 448.051L419.877 448.294C419.235 448.138 418.605 447.971 417.99 447.793L418.06 447.553C417.429 447.371 416.814 447.177 416.215 446.972L416.134 447.208C415.507 446.993 414.897 446.766 414.306 446.528L414.4 446.296C413.788 446.049 413.197 445.79 412.628 445.52L412.521 445.746C411.919 445.46 411.342 445.161 410.791 444.85L410.914 444.632C410.338 444.307 409.791 443.969 409.276 443.619L409.135 443.825C408.58 443.448 408.061 443.057 407.579 442.654L407.74 442.462C407.231 442.035 406.766 441.595 406.348 441.143L406.165 441.313C405.707 440.818 405.303 440.309 404.958 439.786L405.166 439.648C404.805 439.102 404.51 438.543 404.284 437.974L404.051 438.066C403.807 437.453 403.641 436.825 403.557 436.186L403.804 436.154C403.763 435.843 403.743 435.53 403.743 435.214C403.743 434.899 403.763 434.585 403.804 434.275L403.557 434.242C403.641 433.603 403.807 432.976 404.051 432.362L404.284 432.455C404.51 431.885 404.805 431.327 405.166 430.781L404.958 430.643C405.303 430.12 405.707 429.61 406.165 429.115L406.348 429.285C406.766 428.833 407.231 428.393 407.74 427.966L407.579 427.775C408.061 427.371 408.58 426.98 409.135 426.603L409.276 426.81C409.791 426.46 410.338 426.122 410.914 425.796L410.791 425.579C411.342 425.268 411.919 424.969 412.521 424.683L412.628 424.909C413.197 424.638 413.788 424.379 414.4 424.132L414.306 423.9C414.897 423.662 415.507 423.435 416.134 423.22L416.215 423.457C416.814 423.252 417.429 423.058 418.06 422.875L417.99 422.635C418.605 422.457 419.235 422.29 419.877 422.135L419.936 422.378C420.554 422.228 421.184 422.09 421.826 421.962L421.777 421.717C422.407 421.592 423.048 421.477 423.698 421.374L423.737 421.621C424.368 421.521 425.008 421.432 425.657 421.353L425.627 421.105C426.265 421.028 426.911 420.961 427.565 420.906L427.586 421.155C428.225 421.101 428.871 421.057 429.524 421.024L429.511 420.774C430.154 420.742 430.803 420.72 431.457 420.71L431.461 420.959C431.784 420.954 432.108 420.951 432.434 420.951C432.759 420.951 433.083 420.954 433.406 420.959L433.41 420.71C434.064 420.72 434.713 420.742 435.356 420.774L435.343 421.024C435.996 421.057 436.642 421.101 437.281 421.155L437.302 420.906C437.956 420.961 438.602 421.028 439.241 421.105L439.211 421.353C439.859 421.432 440.5 421.521 441.13 421.621L441.169 421.374C441.82 421.477 442.46 421.592 443.09 421.717L443.041 421.962C443.683 422.09 444.313 422.228 444.931 422.378L444.99 422.135C445.632 422.29 446.262 422.457 446.877 422.635L446.807 422.875C447.438 423.058 448.053 423.252 448.652 423.457L448.733 423.22C449.361 423.435 449.97 423.662 450.561 423.9L450.467 424.132C451.079 424.379 451.67 424.638 452.239 424.909L452.347 424.683C452.948 424.969 453.525 425.268 454.076 425.579L453.953 425.796C454.529 426.122 455.076 426.46 455.591 426.81L455.732 426.603C456.287 426.98 456.807 427.371 457.288 427.775L457.128 427.966C457.636 428.393 458.101 428.833 458.519 429.285L458.703 429.115C459.16 429.61 459.564 430.12 459.91 430.643L459.701 430.781C460.062 431.327 460.357 431.885 460.584 432.455L460.816 432.362C461.06 432.976 461.226 433.603 461.311 434.242L461.063 434.275C461.104 434.585 461.125 434.899 461.125 435.214C461.125 435.53 461.104 435.843 461.063 436.154L461.311 436.186C461.226 436.825 461.06 437.453 460.816 438.066L460.584 437.974C460.357 438.543 460.062 439.102 459.701 439.648L459.91 439.786C459.564 440.309 459.16 440.818 458.703 441.313L458.519 441.143C458.101 441.595 457.636 442.035 457.128 442.462L457.288 442.654C456.807 443.057 456.287 443.448 455.732 443.825L455.591 443.619C455.076 443.969 454.529 444.307 453.953 444.632L454.076 444.85C453.525 445.161 452.948 445.46 452.347 445.746L452.239 445.52C451.67 445.79 451.079 446.049 450.467 446.296L450.561 446.528C449.97 446.766 449.361 446.993 448.733 447.208L448.652 446.972C448.053 447.177 447.438 447.371 446.807 447.553L446.877 447.793C446.262 447.971 445.632 448.138 444.99 448.294L444.931 448.051C444.313 448.2 443.683 448.339 443.041 448.466L443.09 448.712C442.46 448.837 441.82 448.951 441.169 449.054L441.13 448.807C440.499 448.907 439.859 448.997 439.211 449.075L439.241 449.323C438.602 449.401 437.956 449.467 437.302 449.523L437.281 449.274C436.642 449.328 435.996 449.372 435.343 449.404L435.356 449.654C434.713 449.686 434.064 449.708 433.41 449.719L433.406 449.469C433.083 449.474 432.759 449.477 432.434 449.477Z" fill="white" stroke="#6674A6" stroke-width="0.5" stroke-dasharray="2 2"/>
<path d="M452.896 413.038C441.596 407.373 423.271 407.373 411.969 413.038C406.316 415.882 403.49 419.59 403.493 423.305V430.304C403.493 434.017 406.329 437.733 411.969 440.566C423.271 446.231 441.596 446.231 452.896 440.566C458.551 437.722 461.375 434.015 461.372 430.299V423.318C461.367 419.59 458.551 415.882 452.896 413.038Z" fill="#4D68EE" stroke="#FEFEFE" stroke-width="0.5"/>
<path d="M432.434 437.563C432.108 437.563 431.784 437.56 431.461 437.555L431.457 437.805C430.803 437.794 430.154 437.772 429.511 437.74L429.524 437.49C428.871 437.457 428.225 437.413 427.586 437.359L427.565 437.608C426.911 437.553 426.265 437.486 425.627 437.409L425.657 437.161C425.008 437.082 424.368 436.993 423.737 436.893L423.698 437.14C423.048 437.037 422.407 436.922 421.777 436.797L421.826 436.552C421.184 436.425 420.554 436.286 419.936 436.136L419.877 436.379C419.235 436.224 418.605 436.057 417.99 435.879L418.06 435.639C417.429 435.456 416.814 435.262 416.215 435.057L416.134 435.294C415.507 435.079 414.897 434.852 414.306 434.614L414.4 434.382C413.788 434.135 413.197 433.876 412.628 433.606L412.521 433.831C411.919 433.545 411.342 433.246 410.791 432.936L410.914 432.718C410.338 432.393 409.791 432.054 409.276 431.704L409.135 431.911C408.58 431.534 408.061 431.143 407.579 430.739L407.74 430.548C407.231 430.121 406.766 429.681 406.348 429.229L406.165 429.399C405.707 428.904 405.303 428.394 404.958 427.871L405.166 427.733C404.805 427.188 404.51 426.629 404.284 426.06L404.051 426.152C403.807 425.538 403.641 424.911 403.557 424.272L403.804 424.239C403.763 423.929 403.743 423.616 403.743 423.3C403.743 422.984 403.763 422.671 403.804 422.361L403.557 422.328C403.641 421.689 403.807 421.062 404.051 420.448L404.284 420.54C404.51 419.971 404.805 419.412 405.166 418.867L404.958 418.729C405.303 418.206 405.707 417.696 406.165 417.201L406.348 417.371C406.766 416.919 407.231 416.479 407.74 416.052L407.579 415.861C408.061 415.457 408.58 415.066 409.135 414.689L409.276 414.896C409.791 414.546 410.338 414.207 410.914 413.882L410.791 413.664C411.342 413.354 411.919 413.055 412.521 412.769L412.628 412.994C413.197 412.724 413.788 412.465 414.4 412.218L414.306 411.986C414.897 411.748 415.507 411.521 416.134 411.306L416.215 411.543C416.814 411.337 417.429 411.143 418.06 410.961L417.99 410.721C418.605 410.543 419.235 410.376 419.877 410.22L419.936 410.463C420.554 410.314 421.184 410.175 421.826 410.048L421.777 409.803C422.407 409.677 423.048 409.563 423.698 409.46L423.737 409.707C424.368 409.607 425.008 409.517 425.657 409.439L425.627 409.191C426.265 409.114 426.911 409.047 427.565 408.992L427.586 409.241C428.225 409.186 428.871 409.143 429.524 409.11L429.511 408.86C430.154 408.828 430.803 408.806 431.457 408.795L431.461 409.045C431.784 409.04 432.108 409.037 432.434 409.037C432.759 409.037 433.083 409.04 433.406 409.045L433.41 408.795C434.064 408.806 434.713 408.828 435.356 408.86L435.343 409.11C435.996 409.143 436.642 409.186 437.281 409.241L437.302 408.992C437.956 409.047 438.602 409.114 439.241 409.191L439.211 409.439C439.859 409.517 440.5 409.607 441.13 409.707L441.169 409.46C441.82 409.563 442.46 409.677 443.09 409.803L443.041 410.048C443.683 410.175 444.313 410.314 444.931 410.463L444.99 410.22C445.632 410.376 446.262 410.543 446.877 410.721L446.807 410.961C447.438 411.143 448.053 411.337 448.652 411.543L448.733 411.306C449.361 411.521 449.97 411.748 450.561 411.986L450.467 412.218C451.079 412.465 451.67 412.724 452.239 412.994L452.347 412.769C452.948 413.055 453.525 413.354 454.076 413.664L453.953 413.882C454.529 414.207 455.076 414.546 455.591 414.896L455.732 414.689C456.287 415.066 456.807 415.457 457.288 415.861L457.128 416.052C457.636 416.479 458.101 416.919 458.519 417.371L458.703 417.201C459.16 417.696 459.564 418.206 459.91 418.729L459.701 418.867C460.062 419.412 460.357 419.971 460.584 420.54L460.816 420.448C461.06 421.062 461.226 421.689 461.311 422.328L461.063 422.361C461.104 422.671 461.125 422.984 461.125 423.3C461.125 423.616 461.104 423.929 461.063 424.239L461.311 424.272C461.226 424.911 461.06 425.538 460.816 426.152L460.584 426.06C460.357 426.629 460.062 427.188 459.701 427.733L459.91 427.871C459.564 428.394 459.16 428.904 458.703 429.399L458.519 429.229C458.101 429.681 457.636 430.121 457.128 430.548L457.288 430.739C456.807 431.143 456.287 431.534 455.732 431.911L455.591 431.704C455.076 432.054 454.529 432.393 453.953 432.718L454.076 432.936C453.525 433.246 452.948 433.545 452.347 433.831L452.239 433.606C451.67 433.876 451.079 434.135 450.467 434.382L450.561 434.614C449.97 434.852 449.361 435.079 448.733 435.294L448.652 435.057C448.053 435.262 447.438 435.456 446.807 435.639L446.877 435.879C446.262 436.057 445.632 436.224 444.99 436.379L444.931 436.136C444.313 436.286 443.683 436.425 443.041 436.552L443.09 436.797C442.46 436.922 441.82 437.037 441.169 437.14L441.13 436.893C440.499 436.993 439.859 437.082 439.211 437.161L439.241 437.409C438.602 437.486 437.956 437.553 437.302 437.608L437.281 437.359C436.642 437.413 435.996 437.457 435.343 437.49L435.356 437.74C434.713 437.772 434.064 437.794 433.41 437.805L433.406 437.555C433.083 437.56 432.759 437.563 432.434 437.563Z" fill="white" stroke="#6674A6" stroke-width="0.5" stroke-dasharray="2 2"/>
<path d="M414.06 418.775V423.062C414.06 425.42 415.865 427.778 419.442 429.575C426.616 433.174 438.248 433.174 445.422 429.575C449.012 427.765 450.804 425.418 450.804 423.059V418.775H414.06Z" fill="url(#paint22_linear_3234_4242)"/>
<path d="M432.433 427.735C432.124 427.735 431.817 427.731 431.512 427.723L431.505 427.973C430.879 427.958 430.261 427.926 429.652 427.88L429.671 427.631C429.05 427.583 428.438 427.52 427.839 427.442L427.807 427.69C427.182 427.609 426.57 427.512 425.974 427.399L426.02 427.154C425.404 427.037 424.804 426.905 424.222 426.758L424.161 427C423.546 426.845 422.952 426.672 422.379 426.484L422.457 426.246C421.858 426.05 421.284 425.836 420.738 425.606L420.641 425.837C420.05 425.588 419.491 425.322 418.966 425.038L419.085 424.818C418.525 424.516 418.007 424.195 417.535 423.858L417.389 424.061C416.86 423.683 416.386 423.284 415.973 422.867L416.15 422.691C415.703 422.24 415.332 421.769 415.043 421.285L414.828 421.413C414.499 420.86 414.271 420.286 414.153 419.695L414.399 419.646C414.342 419.358 414.312 419.067 414.312 418.772C414.312 418.478 414.342 418.186 414.399 417.899L414.153 417.85C414.271 417.259 414.499 416.685 414.828 416.132L415.043 416.26C415.332 415.775 415.703 415.305 416.15 414.854L415.973 414.678C416.386 414.261 416.86 413.862 417.389 413.484L417.535 413.687C418.007 413.35 418.525 413.029 419.085 412.726L418.966 412.506C419.491 412.223 420.05 411.957 420.641 411.708L420.738 411.939C421.284 411.709 421.858 411.495 422.457 411.299L422.379 411.061C422.952 410.873 423.546 410.7 424.161 410.545L424.222 410.787C424.804 410.64 425.404 410.507 426.02 410.391L425.974 410.146C426.57 410.033 427.182 409.936 427.807 409.855L427.839 410.103C428.438 410.025 429.05 409.962 429.671 409.914L429.652 409.665C430.261 409.619 430.879 409.587 431.505 409.572L431.512 409.822C431.817 409.814 432.124 409.81 432.433 409.81C432.742 409.81 433.05 409.814 433.355 409.822L433.361 409.572C433.988 409.587 434.606 409.619 435.214 409.665L435.195 409.914C435.817 409.962 436.428 410.025 437.028 410.103L437.06 409.855C437.684 409.936 438.296 410.033 438.893 410.146L438.847 410.391C439.463 410.507 440.063 410.64 440.644 410.787L440.706 410.545C441.32 410.7 441.915 410.873 442.488 411.061L442.41 411.299C443.009 411.495 443.583 411.709 444.129 411.939L444.225 411.708C444.816 411.957 445.376 412.223 445.9 412.506L445.781 412.726C446.341 413.029 446.86 413.35 447.332 413.687L447.477 413.484C448.007 413.862 448.481 414.261 448.894 414.678L448.716 414.854C449.164 415.305 449.535 415.775 449.824 416.26L450.038 416.132C450.368 416.685 450.596 417.259 450.713 417.85L450.468 417.899C450.525 418.186 450.554 418.478 450.554 418.772C450.554 419.067 450.525 419.358 450.468 419.646L450.713 419.695C450.596 420.286 450.368 420.86 450.038 421.413L449.824 421.285C449.535 421.769 449.164 422.24 448.716 422.691L448.894 422.867C448.481 423.284 448.007 423.683 447.477 424.061L447.332 423.858C446.86 424.195 446.341 424.516 445.781 424.818L445.9 425.038C445.376 425.322 444.816 425.588 444.225 425.837L444.129 425.606C443.583 425.836 443.009 426.05 442.41 426.246L442.488 426.484C441.915 426.672 441.32 426.845 440.706 427L440.644 426.758C440.063 426.905 439.463 427.037 438.847 427.154L438.893 427.399C438.296 427.512 437.684 427.609 437.06 427.69L437.028 427.442C436.428 427.52 435.817 427.583 435.195 427.631L435.214 427.88C434.606 427.926 433.988 427.958 433.361 427.973L433.355 427.723C433.05 427.731 432.742 427.735 432.433 427.735Z" fill="white" stroke="#6674A6" stroke-width="0.5" stroke-dasharray="2 2"/>
<path d="M432.434 424.438C438.673 424.438 443.731 421.901 443.731 418.773C443.731 415.644 438.673 413.108 432.434 413.108C426.194 413.108 421.136 415.644 421.136 418.773C421.136 421.901 426.194 424.438 432.434 424.438Z" fill="#4D68EE" stroke="#FEFEFE" stroke-width="0.5"/>
<path d="M828.815 234.509L810.948 225.55C805.934 223.037 797.796 223.037 792.796 225.55L773.713 235.117C771.207 236.373 769.954 238.02 769.954 239.667V268.714C769.954 270.361 771.207 272.008 773.713 273.264L791.581 282.226C796.594 284.739 804.733 284.739 809.735 282.226L828.818 272.659C831.324 271.403 832.578 269.755 832.578 268.108V239.062C832.575 237.415 831.322 235.768 828.815 234.509Z" fill="#4D68EE" stroke="#FEFEFE" stroke-width="0.5"/>
<path d="M828.816 243.613L809.733 253.179C804.72 255.693 796.581 255.693 791.579 253.179L773.711 244.218C768.698 241.705 768.698 237.63 773.711 235.117L792.793 225.55C797.804 223.037 805.932 223.037 810.945 225.55L828.813 234.509C833.828 237.025 833.829 241.097 828.816 243.613Z" fill="url(#paint23_linear_3234_4242)" stroke="#626F9D" stroke-width="0.5" stroke-dasharray="1 1"/>
<path d="M816.1 225.144C807.742 220.953 794.194 220.953 785.836 225.144C781.656 227.241 779.58 229.979 779.58 232.735V238.512C779.58 241.257 781.669 244.003 785.849 246.098C794.207 250.289 807.755 250.289 816.113 246.098C820.293 244.003 822.382 241.255 822.379 238.506V232.735C822.369 229.979 820.28 227.241 816.1 225.144Z" fill="#4D68EE" stroke="#FEFEFE" stroke-width="0.5"/>
<path d="M800.968 243.46C812.787 243.46 822.369 238.656 822.369 232.73C822.369 226.804 812.787 222 800.968 222C789.149 222 779.567 226.804 779.567 232.73C779.567 238.656 789.149 243.46 800.968 243.46Z" fill="url(#paint24_linear_3234_4242)" stroke="#626F9D" stroke-width="0.5" stroke-dasharray="1 1"/>
<path d="M800.968 238.674C807.514 238.674 812.82 236.013 812.82 232.73C812.82 229.447 807.514 226.786 800.968 226.786C794.422 226.786 789.116 229.447 789.116 232.73C789.116 236.013 794.422 238.674 800.968 238.674Z" fill="#4D68EE" stroke="#FEFEFE" stroke-width="0.5"/>
<path d="M780.704 256.21C779.526 255.62 778.572 256.098 778.572 257.28C778.572 258.462 779.526 259.897 780.704 260.486C781.883 261.076 782.837 260.597 782.837 259.418C782.837 258.239 781.88 256.802 780.704 256.21ZM786.999 263.643C788.178 264.233 789.132 263.754 789.132 262.575C789.132 261.396 788.178 259.959 786.999 259.367C785.821 258.775 784.866 259.255 784.866 260.437C784.866 261.619 785.821 263.054 786.999 263.643ZM780.704 262.524C779.526 261.931 778.572 262.41 778.572 263.591C778.572 264.773 779.526 266.208 780.704 266.798C781.883 267.387 782.837 266.911 782.837 265.73C782.837 264.548 781.88 263.113 780.704 262.524ZM786.999 265.681C785.821 265.088 784.866 265.567 784.866 266.748C784.866 267.93 785.821 269.365 786.999 269.955C788.178 270.544 789.132 270.068 789.132 268.887C789.132 267.705 788.178 266.27 786.999 265.681Z" fill="white" stroke="#626F9D" stroke-width="0.5" stroke-dasharray="1 1"/>
<path d="M737.004 264.146L763.181 249.149L728.014 247.545C727.598 247.526 710.99 246.766 689.838 245.806C692.213 243.62 694.283 241.247 696.007 238.708C703.008 228.412 703.557 216.633 697.552 205.54C691.548 194.448 679.714 185.368 664.222 179.978C648.735 174.585 631.448 173.526 615.549 176.995C606.095 179.056 598.925 182.68 593.158 185.958C577.733 194.716 500.495 238.966 499.718 239.411L473.541 254.408L508.708 256.012C509.123 256.03 525.732 256.79 546.883 257.751C544.509 259.936 542.439 262.31 540.715 264.849C533.714 275.144 533.17 286.928 539.174 298.02C542.003 303.25 546.123 308.027 551.324 312.186C557.149 316.851 564.32 320.732 572.504 323.582C587.991 328.975 605.278 330.035 621.178 326.566C630.631 324.505 637.802 320.874 643.573 317.6C658.989 308.841 736.227 264.591 737.004 264.146ZM611.299 200.59C615.395 198.263 619.912 195.951 625.189 194.8C634.272 192.819 644.143 193.422 652.988 196.501C657.669 198.13 661.761 200.347 665.086 203.009C668.05 205.383 670.405 208.113 672.022 211.103C675.45 217.44 675.141 224.167 671.138 230.049C667.141 235.929 659.938 240.26 650.854 242.241C645.528 243.401 639.502 243.325 634.311 243.095C621.95 242.548 576.707 240.484 544.112 239.002C568.253 225.184 601.73 206.025 611.299 200.59ZM625.423 302.967C621.327 305.294 616.81 307.605 611.533 308.757C602.449 310.738 592.579 310.135 583.734 307.056C574.89 303.976 568.128 298.791 564.7 292.454C561.271 286.116 561.581 279.39 565.584 273.507C569.581 267.628 576.784 263.297 585.867 261.316C591.193 260.155 597.22 260.232 602.411 260.462C614.772 261.008 660.015 263.072 692.609 264.555C668.469 278.372 634.996 297.535 625.423 302.967Z" fill="#4C67EF"/>
<path d="M737.398 259.085L763.575 244.088L728.408 242.484C727.992 242.465 711.384 241.705 690.232 240.744C692.607 238.559 694.677 236.185 696.401 233.646C703.402 223.351 703.951 211.571 697.946 200.479C691.942 189.386 680.108 180.307 664.616 174.917C649.129 169.524 631.842 168.464 615.943 171.933C606.489 173.994 599.319 177.619 593.552 180.896C578.127 189.655 500.889 233.904 500.112 234.349L473.935 249.346L509.102 250.95C509.517 250.969 526.126 251.729 547.277 252.689C544.903 254.875 542.833 257.248 541.109 259.787C534.108 270.083 533.564 281.866 539.568 292.959C542.397 298.188 546.517 302.966 551.718 307.124C557.543 311.789 564.714 315.67 572.899 318.521C588.385 323.914 605.672 324.973 621.572 321.504C631.025 319.443 638.196 315.812 643.967 312.538C659.383 303.779 736.621 259.529 737.398 259.085ZM611.693 195.528C615.789 193.201 620.306 190.89 625.583 189.738C634.666 187.758 644.537 188.36 653.382 191.44C658.063 193.068 662.155 195.285 665.48 197.948C668.444 200.322 670.799 203.052 672.416 206.041C675.845 212.379 675.535 219.105 671.532 224.988C667.535 230.867 660.332 235.198 651.249 237.179C645.922 238.34 639.896 238.263 634.705 238.033C622.344 237.487 577.101 235.423 544.507 233.941C568.647 220.123 602.125 200.964 611.693 195.528ZM625.817 297.906C621.721 300.233 617.204 302.544 611.927 303.695C602.843 305.676 592.973 305.073 584.128 301.994C575.284 298.915 568.522 293.73 565.094 287.392C561.665 281.055 561.975 274.328 565.978 268.446C569.975 262.566 577.178 258.235 586.261 256.255C591.587 255.094 597.614 255.17 602.805 255.401C615.166 255.947 660.409 258.011 693.003 259.493C668.863 273.311 635.39 292.474 625.817 297.906Z" fill="white"/>
<defs>
<filter id="filter0_f_3234_4242" x="417.705" y="198.767" width="401.39" height="316.272" filterUnits="userSpaceOnUse" color-interpolation-filters="sRGB">
<feFlood flood-opacity="0" result="BackgroundImageFix"/>
<feBlend mode="normal" in="SourceGraphic" in2="BackgroundImageFix" result="shape"/>
<feGaussianBlur stdDeviation="50" result="effect1_foregroundBlur_3234_4242"/>
</filter>
<filter id="filter1_f_3234_4242" x="749.009" y="215.83" width="105.373" height="105.373" filterUnits="userSpaceOnUse" color-interpolation-filters="sRGB">
<feFlood flood-opacity="0" result="BackgroundImageFix"/>
<feBlend mode="normal" in="SourceGraphic" in2="BackgroundImageFix" result="shape"/>
<feGaussianBlur stdDeviation="15" result="effect1_foregroundBlur_3234_4242"/>
</filter>
<filter id="filter2_f_3234_4242" x="379.616" y="401.058" width="105.373" height="105.373" filterUnits="userSpaceOnUse" color-interpolation-filters="sRGB">
<feFlood flood-opacity="0" result="BackgroundImageFix"/>
<feBlend mode="normal" in="SourceGraphic" in2="BackgroundImageFix" result="shape"/>
<feGaussianBlur stdDeviation="15" result="effect1_foregroundBlur_3234_4242"/>
</filter>
<filter id="filter3_f_3234_4242" x="379.616" y="215.83" width="105.373" height="105.373" filterUnits="userSpaceOnUse" color-interpolation-filters="sRGB">
<feFlood flood-opacity="0" result="BackgroundImageFix"/>
<feBlend mode="normal" in="SourceGraphic" in2="BackgroundImageFix" result="shape"/>
<feGaussianBlur stdDeviation="15" result="effect1_foregroundBlur_3234_4242"/>
</filter>
<filter id="filter4_f_3234_4242" x="749.009" y="401.058" width="105.373" height="105.373" filterUnits="userSpaceOnUse" color-interpolation-filters="sRGB">
<feFlood flood-opacity="0" result="BackgroundImageFix"/>
<feBlend mode="normal" in="SourceGraphic" in2="BackgroundImageFix" result="shape"/>
<feGaussianBlur stdDeviation="15" result="effect1_foregroundBlur_3234_4242"/>
</filter>
<linearGradient id="paint0_linear_3234_4242" x1="702.798" y1="701.887" x2="0.455226" y2="701.887" gradientUnits="userSpaceOnUse">
<stop/>
<stop offset="1" stop-color="#B4B4B4"/>
</linearGradient>
<linearGradient id="paint1_linear_3234_4242" x1="268.38" y1="268.032" x2="0.173839" y2="268.032" gradientUnits="userSpaceOnUse">
<stop/>
<stop offset="1" stop-color="#B4B4B4"/>
</linearGradient>
<linearGradient id="paint2_linear_3234_4242" x1="317.837" y1="533.788" x2="995.388" y2="140.721" gradientUnits="userSpaceOnUse">
<stop stop-color="#93A0CE" stop-opacity="0"/>
<stop offset="0.274979" stop-color="#4A5168"/>
<stop offset="0.679088" stop-color="#93A0CE" stop-opacity="0"/>
</linearGradient>
<linearGradient id="paint3_linear_3234_4242" x1="874.738" y1="492.899" x2="293.046" y2="155.997" gradientUnits="userSpaceOnUse">
<stop stop-color="#93A0CE" stop-opacity="0"/>
<stop offset="0.53" stop-color="#4A5168"/>
<stop offset="1" stop-color="#93A0CE" stop-opacity="0"/>
</linearGradient>
<linearGradient id="paint4_linear_3234_4242" x1="204.043" y1="203.779" x2="0.132166" y2="203.779" gradientUnits="userSpaceOnUse">
<stop/>
<stop offset="1" stop-color="#B4B4B4"/>
</linearGradient>
<linearGradient id="paint5_linear_3234_4242" x1="83.8813" y1="83.7726" x2="0.0543328" y2="83.7726" gradientUnits="userSpaceOnUse">
<stop/>
<stop offset="1" stop-color="#B4B4B4"/>
</linearGradient>
<linearGradient id="paint6_linear_3234_4242" x1="83.8813" y1="83.7726" x2="0.0543328" y2="83.7726" gradientUnits="userSpaceOnUse">
<stop/>
<stop offset="1" stop-color="#B4B4B4"/>
</linearGradient>
<linearGradient id="paint7_linear_3234_4242" x1="83.8813" y1="83.7726" x2="0.0543328" y2="83.7726" gradientUnits="userSpaceOnUse">
<stop/>
<stop offset="1" stop-color="#B4B4B4"/>
</linearGradient>
<linearGradient id="paint8_linear_3234_4242" x1="83.8813" y1="83.7726" x2="0.0543328" y2="83.7726" gradientUnits="userSpaceOnUse">
<stop/>
<stop offset="1" stop-color="#B4B4B4"/>
</linearGradient>
<linearGradient id="paint9_linear_3234_4242" x1="772.754" y1="425.785" x2="813.361" y2="425.785" gradientUnits="userSpaceOnUse">
<stop stop-color="#E8EAFB"/>
<stop offset="1" stop-color="white"/>
</linearGradient>
<linearGradient id="paint10_linear_3234_4242" x1="784.423" y1="446.03" x2="830.636" y2="446.03" gradientUnits="userSpaceOnUse">
<stop stop-color="#E8EAFB"/>
<stop offset="1" stop-color="white"/>
</linearGradient>
<linearGradient id="paint11_linear_3234_4242" x1="806.427" y1="433.11" x2="816.644" y2="433.11" gradientUnits="userSpaceOnUse">
<stop stop-color="#E8EAFB"/>
<stop offset="1" stop-color="white"/>
</linearGradient>
<linearGradient id="paint12_linear_3234_4242" x1="806.427" y1="436.952" x2="811.536" y2="436.952" gradientUnits="userSpaceOnUse">
<stop stop-color="#D9DEFC"/>
<stop offset="1" stop-color="#CCD6FF"/>
</linearGradient>
<linearGradient id="paint13_linear_3234_4242" x1="820.417" y1="433.11" x2="830.636" y2="433.11" gradientUnits="userSpaceOnUse">
<stop stop-color="#E8EAFB"/>
<stop offset="1" stop-color="white"/>
</linearGradient>
<linearGradient id="paint14_linear_3234_4242" x1="813.202" y1="436.729" x2="823.421" y2="436.729" gradientUnits="userSpaceOnUse">
<stop stop-color="#E8EAFB"/>
<stop offset="1" stop-color="white"/>
</linearGradient>
<linearGradient id="paint15_linear_3234_4242" x1="813.202" y1="422.315" x2="823.421" y2="422.315" gradientUnits="userSpaceOnUse">
<stop stop-color="#E8EAFB"/>
<stop offset="1" stop-color="white"/>
</linearGradient>
<linearGradient id="paint16_linear_3234_4242" x1="806.427" y1="425.904" x2="816.644" y2="425.904" gradientUnits="userSpaceOnUse">
<stop stop-color="#E8EAFB"/>
<stop offset="1" stop-color="white"/>
</linearGradient>
<linearGradient id="paint17_linear_3234_4242" x1="820.417" y1="425.904" x2="830.636" y2="425.904" gradientUnits="userSpaceOnUse">
<stop stop-color="#E8EAFB"/>
<stop offset="1" stop-color="white"/>
</linearGradient>
<linearGradient id="paint18_linear_3234_4242" x1="813.202" y1="429.523" x2="823.421" y2="429.523" gradientUnits="userSpaceOnUse">
<stop stop-color="#E8EAFB"/>
<stop offset="1" stop-color="white"/>
</linearGradient>
<linearGradient id="paint19_linear_3234_4242" x1="789.637" y1="434.25" x2="813.753" y2="434.25" gradientUnits="userSpaceOnUse">
<stop stop-color="#E8EAFB"/>
<stop offset="1" stop-color="white"/>
</linearGradient>
<linearGradient id="paint20_linear_3234_4242" x1="403.361" y1="240.557" x2="461.243" y2="240.557" gradientUnits="userSpaceOnUse">
<stop stop-color="#E8EAFB"/>
<stop offset="1" stop-color="white"/>
</linearGradient>
<linearGradient id="paint21_linear_3234_4242" x1="415.03" y1="263.729" x2="449.577" y2="263.729" gradientUnits="userSpaceOnUse">
<stop stop-color="#E8EAFB"/>
<stop offset="1" stop-color="white"/>
</linearGradient>
<linearGradient id="paint22_linear_3234_4242" x1="414.251" y1="425.526" x2="450.616" y2="425.526" gradientUnits="userSpaceOnUse">
<stop stop-color="#BCC9F8"/>
<stop offset="1" stop-color="#E3E5F9"/>
</linearGradient>
<linearGradient id="paint23_linear_3234_4242" x1="769.954" y1="239.365" x2="832.575" y2="239.365" gradientUnits="userSpaceOnUse">
<stop stop-color="#E8EAFB"/>
<stop offset="1" stop-color="white"/>
</linearGradient>
<linearGradient id="paint24_linear_3234_4242" x1="779.567" y1="232.73" x2="822.369" y2="232.73" gradientUnits="userSpaceOnUse">
<stop stop-color="#E8EAFB"/>
<stop offset="1" stop-color="white"/>
</linearGradient>
</defs>
</svg>
