<?xml version="1.0" encoding="utf-8"?>
<!-- Generator: Adobe Illustrator 26.4.1, SVG Export Plug-In . SVG Version: 6.00 Build 0)  -->
<svg version="1.1" id="图层_1" xmlns="http://www.w3.org/2000/svg" xmlns:xlink="http://www.w3.org/1999/xlink" x="0px" y="0px"
	 viewBox="0 0 143 157" style="enable-background:new 0 0 143 157;" xml:space="preserve">
<style type="text/css">
	.st0{opacity:0.1;}
	.st1{fill:#FFFFFF;}
	.st2{fill:#D1D1D1;}
	.st3{opacity:0.3;}
	.st4{fill:#4C67EF;}
	.st5{fill-rule:evenodd;clip-rule:evenodd;fill:#FFFFFF;}
	.st6{fill:#6674A6;}
</style>
<g>
	<g>
		<g class="st0">
			<path class="st1" d="M133.9,105.1L80.1,74c-4.8-2.8-12.5-2.8-17.3,0L8.7,105.3c-4.8,2.8-4.8,7.2,0,10l53.8,31
				c4.8,2.8,12.5,2.8,17.3,0l54.1-31.2C138.7,112.3,138.7,107.8,133.9,105.1z"/>
		</g>
		<g>
			<path class="st2" d="M71,148.6c-0.2,0-0.3,0-0.5,0l0-0.5c0.2,0,0.4,0,0.6,0c0.1,0,0.3,0,0.4,0l0,0.5
				C71.3,148.6,71.2,148.6,71,148.6z M72.5,148.6l0-0.5c0.3,0,0.7-0.1,1-0.1l0.1,0.5C73.2,148.5,72.9,148.6,72.5,148.6z M69.5,148.6
				c-0.3,0-0.7-0.1-1-0.1l0.1-0.5c0.3,0,0.7,0.1,1,0.1L69.5,148.6z M74.5,148.4l-0.1-0.5c0.3-0.1,0.7-0.1,1-0.2l0.1,0.5
				C75.2,148.2,74.9,148.3,74.5,148.4z M67.5,148.3c-0.3-0.1-0.7-0.1-1-0.2l0.1-0.5c0.3,0.1,0.6,0.1,1,0.2L67.5,148.3z M76.5,147.9
				l-0.1-0.5c0.3-0.1,0.6-0.2,0.9-0.3l0.2,0.5C77.2,147.7,76.8,147.8,76.5,147.9z M65.5,147.9c-0.3-0.1-0.6-0.2-1-0.3l0.2-0.5
				c0.3,0.1,0.6,0.2,0.9,0.3L65.5,147.9z M78.4,147.3l-0.2-0.5c0.3-0.1,0.6-0.3,0.9-0.4l0.2,0.4C79.1,147,78.7,147.1,78.4,147.3z
				 M63.6,147.2c-0.3-0.1-0.6-0.3-0.9-0.4l0.2-0.4c0.3,0.2,0.6,0.3,0.9,0.4L63.6,147.2z M80.2,146.3l-0.2-0.4l0.9-0.5l0.2,0.4
				L80.2,146.3z M61.8,146.2l-0.9-0.5l0.2-0.4l0.9,0.5L61.8,146.2z M82,145.3l-0.2-0.4l0.9-0.5l0.2,0.4L82,145.3z M60.1,145.2
				l-0.9-0.5l0.2-0.4l0.9,0.5L60.1,145.2z M83.7,144.3l-0.2-0.4l0.9-0.5l0.2,0.4L83.7,144.3z M58.3,144.2l-0.9-0.5l0.2-0.4l0.9,0.5
				L58.3,144.2z M85.4,143.3l-0.2-0.4l0.9-0.5l0.2,0.4L85.4,143.3z M56.6,143.2l-0.9-0.5l0.2-0.4l0.9,0.5L56.6,143.2z M87.2,142.3
				l-0.2-0.4l0.9-0.5l0.2,0.4L87.2,142.3z M54.9,142.2l-0.9-0.5l0.2-0.4l0.9,0.5L54.9,142.2z M88.9,141.3l-0.2-0.4l0.9-0.5l0.2,0.4
				L88.9,141.3z M53.1,141.2l-0.9-0.5l0.2-0.4l0.9,0.5L53.1,141.2z M90.6,140.3l-0.2-0.4l0.9-0.5l0.2,0.4L90.6,140.3z M51.4,140.2
				l-0.9-0.5l0.2-0.4l0.9,0.5L51.4,140.2z M92.4,139.3l-0.2-0.4l0.9-0.5l0.2,0.4L92.4,139.3z M49.7,139.2l-0.9-0.5l0.2-0.4l0.9,0.5
				L49.7,139.2z M94.1,138.3l-0.2-0.4l0.9-0.5l0.2,0.4L94.1,138.3z M47.9,138.2l-0.9-0.5l0.2-0.4l0.9,0.5L47.9,138.2z M95.8,137.3
				l-0.2-0.4l0.9-0.5l0.2,0.4L95.8,137.3z M46.2,137.2l-0.9-0.5l0.2-0.4l0.9,0.5L46.2,137.2z M97.6,136.3l-0.2-0.4l0.9-0.5l0.2,0.4
				L97.6,136.3z M44.5,136.2l-0.9-0.5l0.2-0.4l0.9,0.5L44.5,136.2z M99.3,135.3l-0.2-0.4l0.9-0.5l0.2,0.4L99.3,135.3z M42.8,135.2
				l-0.9-0.5l0.2-0.4l0.9,0.5L42.8,135.2z M101,134.3l-0.2-0.4l0.9-0.5l0.2,0.4L101,134.3z M41,134.2l-0.9-0.5l0.2-0.4l0.9,0.5
				L41,134.2z M102.8,133.3l-0.2-0.4l0.9-0.5l0.2,0.4L102.8,133.3z M39.3,133.2l-0.9-0.5l0.2-0.4l0.9,0.5L39.3,133.2z M104.5,132.3
				l-0.2-0.4l0.9-0.5l0.2,0.4L104.5,132.3z M37.6,132.2l-0.9-0.5l0.2-0.4l0.9,0.5L37.6,132.2z M106.2,131.3l-0.2-0.4l0.9-0.5
				l0.2,0.4L106.2,131.3z M35.8,131.2l-0.9-0.5l0.2-0.4l0.9,0.5L35.8,131.2z M108,130.3l-0.2-0.4l0.9-0.5l0.2,0.4L108,130.3z
				 M34.1,130.2l-0.9-0.5l0.2-0.4l0.9,0.5L34.1,130.2z M109.7,129.3l-0.2-0.4l0.9-0.5l0.2,0.4L109.7,129.3z M32.4,129.2l-0.9-0.5
				l0.2-0.4l0.9,0.5L32.4,129.2z M111.4,128.3l-0.2-0.4l0.9-0.5l0.2,0.4L111.4,128.3z M30.6,128.2l-0.9-0.5l0.2-0.4l0.9,0.5
				L30.6,128.2z M113.1,127.3l-0.2-0.4l0.9-0.5l0.2,0.4L113.1,127.3z M28.9,127.2l-0.9-0.5l0.2-0.4l0.9,0.5L28.9,127.2z
				 M114.9,126.3l-0.2-0.4l0.9-0.5l0.2,0.4L114.9,126.3z M27.2,126.2l-0.9-0.5l0.2-0.4l0.9,0.5L27.2,126.2z M116.6,125.3l-0.2-0.4
				l0.9-0.5l0.2,0.4L116.6,125.3z M25.4,125.2l-0.9-0.5l0.2-0.4l0.9,0.5L25.4,125.2z M118.3,124.3l-0.2-0.4l0.9-0.5l0.2,0.4
				L118.3,124.3z M23.7,124.2l-0.9-0.5l0.2-0.4l0.9,0.5L23.7,124.2z M120.1,123.3l-0.2-0.4l0.9-0.5l0.2,0.4L120.1,123.3z M22,123.2
				l-0.9-0.5l0.2-0.4l0.9,0.5L22,123.2z M121.8,122.3l-0.2-0.4l0.9-0.5l0.2,0.4L121.8,122.3z M20.2,122.2l-0.9-0.5l0.2-0.4l0.9,0.5
				L20.2,122.2z M123.5,121.3l-0.2-0.4l0.9-0.5l0.2,0.4L123.5,121.3z M18.5,121.2l-0.9-0.5l0.2-0.4l0.9,0.5L18.5,121.2z
				 M125.3,120.3l-0.2-0.4l0.9-0.5l0.2,0.4L125.3,120.3z M16.8,120.2l-0.9-0.5l0.2-0.4l0.9,0.5L16.8,120.2z M127,119.3l-0.2-0.4
				l0.9-0.5l0.2,0.4L127,119.3z M15,119.2l-0.9-0.5l0.2-0.4l0.9,0.5L15,119.2z M128.7,118.3l-0.2-0.4l0.9-0.5l0.2,0.4L128.7,118.3z
				 M13.3,118.2l-0.9-0.5l0.2-0.4l0.9,0.5L13.3,118.2z M130.5,117.3l-0.2-0.4l0.9-0.5l0.2,0.4L130.5,117.3z M11.6,117.2l-0.9-0.5
				l0.2-0.4l0.9,0.5L11.6,117.2z M132.2,116.3l-0.2-0.4l0.9-0.5l0.2,0.4L132.2,116.3z M9.8,116.2L9,115.7l0.2-0.4l0.9,0.5L9.8,116.2
				z M133.9,115.3l-0.2-0.4l0.1,0c0.3-0.2,0.5-0.3,0.8-0.5l0.3,0.4C134.5,115,134.3,115.1,133.9,115.3L133.9,115.3z M8.1,115.2
				c-0.3-0.2-0.6-0.4-0.8-0.6l0.3-0.4c0.2,0.2,0.5,0.4,0.8,0.6L8.1,115.2z M135.6,114.2l-0.3-0.4c0.2-0.2,0.5-0.4,0.7-0.7l0.4,0.3
				C136.1,113.7,135.9,113.9,135.6,114.2z M6.5,114c-0.2-0.3-0.5-0.5-0.7-0.8l0.4-0.3c0.2,0.3,0.4,0.5,0.6,0.7L6.5,114z M137,112.6
				l-0.4-0.3c0.2-0.3,0.3-0.6,0.4-0.9l0.5,0.2C137.3,112,137.1,112.3,137,112.6z M5.3,112.3c-0.2-0.3-0.3-0.7-0.4-1l0.5-0.1
				c0.1,0.3,0.2,0.6,0.3,0.9L5.3,112.3z M137.7,110.6l-0.5-0.1c0-0.2,0-0.3,0-0.5c0-0.1,0-0.3,0-0.4l0.5-0.1c0,0.2,0,0.3,0,0.5
				C137.7,110.3,137.7,110.4,137.7,110.6z M5.3,110.2l-0.5,0c0-0.3,0.1-0.7,0.1-1l0.5,0.1C5.4,109.6,5.3,109.9,5.3,110.2z
				 M137,108.7c-0.1-0.3-0.2-0.6-0.4-0.9l0.4-0.3c0.2,0.3,0.3,0.6,0.5,0.9L137,108.7z M5.8,108.4l-0.4-0.2c0.2-0.3,0.3-0.6,0.6-0.9
				l0.4,0.3C6.1,107.9,5.9,108.1,5.8,108.4z M136,107.1c-0.2-0.2-0.4-0.5-0.7-0.7l0.3-0.4c0.3,0.2,0.5,0.5,0.7,0.7L136,107.1z
				 M6.9,106.9l-0.4-0.4c0.2-0.2,0.5-0.5,0.8-0.7l0.3,0.4C7.4,106.4,7.1,106.7,6.9,106.9z M134.6,105.8c-0.2-0.2-0.5-0.3-0.8-0.5
				l-0.9-0.5l0.2-0.4l0.9,0.5c0.3,0.2,0.6,0.4,0.8,0.5L134.6,105.8z M8.4,105.7l-0.3-0.4c0.1-0.1,0.2-0.1,0.4-0.2l0.5-0.3l0.2,0.4
				l-0.5,0.3C8.7,105.6,8.6,105.6,8.4,105.7z M10.2,104.7l-0.2-0.4l0.9-0.5l0.2,0.4L10.2,104.7z M132,104.3l-0.9-0.5l0.2-0.4
				l0.9,0.5L132,104.3z M11.9,103.7l-0.2-0.4l0.9-0.5l0.2,0.4L11.9,103.7z M130.3,103.3l-0.9-0.5l0.2-0.4l0.9,0.5L130.3,103.3z
				 M13.6,102.7l-0.2-0.4l0.9-0.5l0.2,0.4L13.6,102.7z M128.6,102.3l-0.9-0.5l0.2-0.4l0.9,0.5L128.6,102.3z M15.4,101.7l-0.2-0.4
				l0.9-0.5l0.2,0.4L15.4,101.7z M126.8,101.3l-0.9-0.5l0.2-0.4l0.9,0.5L126.8,101.3z M17.1,100.7l-0.2-0.4l0.9-0.5l0.2,0.4
				L17.1,100.7z M125.1,100.3l-0.9-0.5l0.2-0.4l0.9,0.5L125.1,100.3z M18.8,99.7l-0.2-0.4l0.9-0.5l0.2,0.4L18.8,99.7z M123.4,99.3
				l-0.9-0.5l0.2-0.4l0.9,0.5L123.4,99.3z M20.6,98.7l-0.2-0.4l0.9-0.5l0.2,0.4L20.6,98.7z M121.6,98.3l-0.9-0.5l0.2-0.4l0.9,0.5
				L121.6,98.3z M22.3,97.7L22,97.3l0.9-0.5l0.2,0.4L22.3,97.7z M119.9,97.3l-0.9-0.5l0.2-0.4l0.9,0.5L119.9,97.3z M24,96.7
				l-0.2-0.4l0.9-0.5l0.2,0.4L24,96.7z M118.2,96.3l-0.9-0.5l0.2-0.4l0.9,0.5L118.2,96.3z M25.8,95.7l-0.2-0.4l0.9-0.5l0.2,0.4
				L25.8,95.7z M116.4,95.3l-0.9-0.5l0.2-0.4l0.9,0.5L116.4,95.3z M27.5,94.7l-0.2-0.4l0.9-0.5l0.2,0.4L27.5,94.7z M114.7,94.3
				l-0.9-0.5l0.2-0.4l0.9,0.5L114.7,94.3z M29.2,93.7L29,93.3l0.9-0.5l0.2,0.4L29.2,93.7z M113,93.3l-0.9-0.5l0.2-0.4l0.9,0.5
				L113,93.3z M31,92.7l-0.2-0.4l0.9-0.5l0.2,0.4L31,92.7z M111.2,92.3l-0.9-0.5l0.2-0.4l0.9,0.5L111.2,92.3z M32.7,91.7l-0.2-0.4
				l0.9-0.5l0.2,0.4L32.7,91.7z M109.5,91.3l-0.9-0.5l0.2-0.4l0.9,0.5L109.5,91.3z M34.4,90.7l-0.2-0.4l0.9-0.5l0.2,0.4L34.4,90.7z
				 M107.8,90.3l-0.9-0.5l0.2-0.4l0.9,0.5L107.8,90.3z M36.1,89.7l-0.2-0.4l0.9-0.5l0.2,0.4L36.1,89.7z M106,89.3l-0.9-0.5l0.2-0.4
				l0.9,0.5L106,89.3z M37.9,88.7l-0.2-0.4l0.9-0.5l0.2,0.4L37.9,88.7z M104.3,88.3l-0.9-0.5l0.2-0.4l0.9,0.5L104.3,88.3z
				 M39.6,87.7l-0.2-0.4l0.9-0.5l0.2,0.4L39.6,87.7z M102.6,87.3l-0.9-0.5l0.2-0.4l0.9,0.5L102.6,87.3z M41.3,86.7l-0.2-0.4l0.9-0.5
				l0.2,0.4L41.3,86.7z M100.8,86.3l-0.9-0.5l0.2-0.4l0.9,0.5L100.8,86.3z M43.1,85.7l-0.2-0.4l0.9-0.5l0.2,0.4L43.1,85.7z
				 M99.1,85.3l-0.9-0.5l0.2-0.4l0.9,0.5L99.1,85.3z M44.8,84.7l-0.2-0.4l0.9-0.5l0.2,0.4L44.8,84.7z M97.4,84.3l-0.9-0.5l0.2-0.4
				l0.9,0.5L97.4,84.3z M46.5,83.7l-0.2-0.4l0.9-0.5l0.2,0.4L46.5,83.7z M95.6,83.3l-0.9-0.5l0.2-0.4l0.9,0.5L95.6,83.3z M48.3,82.7
				L48,82.3l0.9-0.5l0.2,0.4L48.3,82.7z M93.9,82.3l-0.9-0.5l0.2-0.4l0.9,0.5L93.9,82.3z M50,81.7l-0.2-0.4l0.9-0.5l0.2,0.4L50,81.7
				z M92.2,81.3l-0.9-0.5l0.2-0.4l0.9,0.5L92.2,81.3z M51.7,80.7l-0.2-0.4l0.9-0.5l0.2,0.4L51.7,80.7z M90.5,80.3l-0.9-0.5l0.2-0.4
				l0.9,0.5L90.5,80.3z M53.5,79.7l-0.2-0.4l0.9-0.5l0.2,0.4L53.5,79.7z M88.7,79.3l-0.9-0.5l0.2-0.4l0.9,0.5L88.7,79.3z M55.2,78.7
				L55,78.3l0.9-0.5l0.2,0.4L55.2,78.7z M87,78.3l-0.9-0.5l0.2-0.4l0.9,0.5L87,78.3z M56.9,77.7l-0.2-0.4l0.9-0.5l0.2,0.4L56.9,77.7
				z M85.3,77.3l-0.9-0.5l0.2-0.4l0.9,0.5L85.3,77.3z M58.7,76.7l-0.2-0.4l0.9-0.5l0.2,0.4L58.7,76.7z M83.5,76.3l-0.9-0.5l0.2-0.4
				l0.9,0.5L83.5,76.3z M60.4,75.7l-0.2-0.4l0.9-0.5l0.2,0.4L60.4,75.7z M81.8,75.3l-0.9-0.5l0.2-0.4l0.9,0.5L81.8,75.3z M62.1,74.7
				l-0.2-0.4l0.9-0.5l0.2,0.4L62.1,74.7z M80.1,74.3L80.1,74.3c-0.3-0.2-0.6-0.3-0.9-0.5l0.2-0.5c0.3,0.1,0.5,0.3,0.8,0.4l0.1,0
				L80.1,74.3z M63.9,73.7l-0.2-0.5c0.3-0.1,0.6-0.3,0.9-0.4l0.2,0.5C64.5,73.5,64.2,73.6,63.9,73.7z M78.3,73.4
				c-0.3-0.1-0.6-0.2-0.9-0.3l0.2-0.5c0.3,0.1,0.6,0.2,1,0.3L78.3,73.4z M65.7,73l-0.1-0.5c0.3-0.1,0.6-0.2,1-0.3l0.1,0.5
				C66.3,72.9,66,72.9,65.7,73z M76.4,72.8c-0.3-0.1-0.6-0.2-1-0.2l0.1-0.5c0.3,0.1,0.7,0.1,1,0.2L76.4,72.8z M67.6,72.6l-0.1-0.5
				c0.3-0.1,0.7-0.1,1-0.2l0.1,0.5C68.3,72.4,67.9,72.5,67.6,72.6z M74.5,72.4c-0.3,0-0.7-0.1-1-0.1l0-0.5c0.3,0,0.7,0.1,1,0.1
				L74.5,72.4z M69.6,72.3l0-0.5c0.3,0,0.7-0.1,1-0.1l0,0.5C70.2,72.2,69.9,72.3,69.6,72.3z M72.5,72.2c-0.3,0-0.7,0-1,0l0-0.5
				c0.3,0,0.7,0,1,0L72.5,72.2z"/>
		</g>
	</g>
	<g>
		<g class="st3">
			<path class="st1" d="M133.9,96.9L80.1,65.9c-4.8-2.8-12.5-2.8-17.3,0L8.7,97.1c-4.8,2.8-4.8,7.2,0,10l53.8,31.1
				c4.8,2.8,12.5,2.8,17.3,0l54.1-31.2C138.7,104.2,138.7,99.7,133.9,96.9z"/>
		</g>
		<g>
			<path class="st2" d="M71.1,140.5c-0.2,0-0.4,0-0.6,0l0-0.5c0.2,0,0.4,0,0.6,0l0.4,0l0,0.5L71.1,140.5z M72.5,140.4l0-0.5
				c0.3,0,0.7-0.1,1-0.1l0.1,0.5C73.2,140.4,72.9,140.4,72.5,140.4z M69.5,140.4c-0.3,0-0.7-0.1-1-0.1l0.1-0.5c0.3,0,0.7,0.1,1,0.1
				L69.5,140.4z M74.5,140.2l-0.1-0.5c0.3-0.1,0.7-0.1,1-0.2l0.1,0.5C75.2,140.1,74.9,140.1,74.5,140.2z M67.5,140.2
				c-0.3-0.1-0.7-0.1-1-0.2l0.1-0.5c0.3,0.1,0.6,0.1,1,0.2L67.5,140.2z M76.5,139.8l-0.1-0.5c0.3-0.1,0.6-0.2,0.9-0.3l0.2,0.5
				C77.2,139.6,76.8,139.7,76.5,139.8z M65.5,139.7c-0.3-0.1-0.6-0.2-1-0.3l0.2-0.5c0.3,0.1,0.6,0.2,0.9,0.3L65.5,139.7z
				 M78.4,139.1l-0.2-0.5c0.3-0.1,0.6-0.3,0.9-0.4l0.2,0.4C79.1,138.8,78.7,139,78.4,139.1z M63.6,139c-0.3-0.1-0.6-0.3-0.9-0.4
				l0.2-0.4c0.3,0.2,0.6,0.3,0.9,0.4L63.6,139z M80.2,138.2l-0.2-0.4l0.9-0.5l0.2,0.4L80.2,138.2z M61.8,138.1l-0.9-0.5l0.2-0.4
				l0.9,0.5L61.8,138.1z M82,137.2l-0.2-0.4l0.9-0.5l0.2,0.4L82,137.2z M60.1,137.1l-0.9-0.5l0.2-0.4l0.9,0.5L60.1,137.1z
				 M83.7,136.2l-0.2-0.4l0.9-0.5l0.2,0.4L83.7,136.2z M58.3,136.1l-0.9-0.5l0.2-0.4l0.9,0.5L58.3,136.1z M85.4,135.2l-0.2-0.4
				l0.9-0.5l0.2,0.4L85.4,135.2z M56.6,135.1l-0.9-0.5l0.2-0.4l0.9,0.5L56.6,135.1z M87.2,134.2l-0.2-0.4l0.9-0.5l0.2,0.4
				L87.2,134.2z M54.9,134.1l-0.9-0.5l0.2-0.4l0.9,0.5L54.9,134.1z M88.9,133.2l-0.2-0.4l0.9-0.5l0.2,0.4L88.9,133.2z M53.1,133.1
				l-0.9-0.5l0.2-0.4l0.9,0.5L53.1,133.1z M90.6,132.2l-0.2-0.4l0.9-0.5l0.2,0.4L90.6,132.2z M51.4,132.1l-0.9-0.5l0.2-0.4l0.9,0.5
				L51.4,132.1z M92.4,131.2l-0.2-0.4l0.9-0.5l0.2,0.4L92.4,131.2z M49.7,131.1l-0.9-0.5l0.2-0.4l0.9,0.5L49.7,131.1z M94.1,130.2
				l-0.2-0.4l0.9-0.5l0.2,0.4L94.1,130.2z M47.9,130.1l-0.9-0.5l0.2-0.4l0.9,0.5L47.9,130.1z M95.8,129.2l-0.2-0.4l0.9-0.5l0.2,0.4
				L95.8,129.2z M46.2,129.1l-0.9-0.5l0.2-0.4l0.9,0.5L46.2,129.1z M97.6,128.2l-0.2-0.4l0.9-0.5l0.2,0.4L97.6,128.2z M44.5,128.1
				l-0.9-0.5l0.2-0.4l0.9,0.5L44.5,128.1z M99.3,127.2l-0.2-0.4l0.9-0.5l0.2,0.4L99.3,127.2z M42.8,127.1l-0.9-0.5l0.2-0.4l0.9,0.5
				L42.8,127.1z M101,126.2l-0.2-0.4l0.9-0.5l0.2,0.4L101,126.2z M41,126.1l-0.9-0.5l0.2-0.4l0.9,0.5L41,126.1z M102.8,125.2
				l-0.2-0.4l0.9-0.5l0.2,0.4L102.8,125.2z M39.3,125.1l-0.9-0.5l0.2-0.4l0.9,0.5L39.3,125.1z M104.5,124.2l-0.2-0.4l0.9-0.5
				l0.2,0.4L104.5,124.2z M37.6,124.1l-0.9-0.5l0.2-0.4l0.9,0.5L37.6,124.1z M106.2,123.2l-0.2-0.4l0.9-0.5l0.2,0.4L106.2,123.2z
				 M35.8,123.1l-0.9-0.5l0.2-0.4l0.9,0.5L35.8,123.1z M108,122.2l-0.2-0.4l0.9-0.5l0.2,0.4L108,122.2z M34.1,122.1l-0.9-0.5
				l0.2-0.4l0.9,0.5L34.1,122.1z M109.7,121.2l-0.2-0.4l0.9-0.5l0.2,0.4L109.7,121.2z M32.4,121.1l-0.9-0.5l0.2-0.4l0.9,0.5
				L32.4,121.1z M111.4,120.2l-0.2-0.4l0.9-0.5l0.2,0.4L111.4,120.2z M30.6,120.1l-0.9-0.5l0.2-0.4l0.9,0.5L30.6,120.1z
				 M113.1,119.2l-0.2-0.4l0.9-0.5l0.2,0.4L113.1,119.2z M28.9,119.1l-0.9-0.5l0.2-0.4l0.9,0.5L28.9,119.1z M114.9,118.2l-0.2-0.4
				l0.9-0.5l0.2,0.4L114.9,118.2z M27.2,118.1l-0.9-0.5l0.2-0.4l0.9,0.5L27.2,118.1z M116.6,117.2l-0.2-0.4l0.9-0.5l0.2,0.4
				L116.6,117.2z M25.4,117.1l-0.9-0.5l0.2-0.4l0.9,0.5L25.4,117.1z M118.3,116.2l-0.2-0.4l0.9-0.5l0.2,0.4L118.3,116.2z
				 M23.7,116.1l-0.9-0.5l0.2-0.4l0.9,0.5L23.7,116.1z M120.1,115.2l-0.2-0.4l0.9-0.5l0.2,0.4L120.1,115.2z M22,115.1l-0.9-0.5
				l0.2-0.4l0.9,0.5L22,115.1z M121.8,114.2l-0.2-0.4l0.9-0.5l0.2,0.4L121.8,114.2z M20.2,114.1l-0.9-0.5l0.2-0.4l0.9,0.5
				L20.2,114.1z M123.5,113.2l-0.2-0.4l0.9-0.5l0.2,0.4L123.5,113.2z M18.5,113.1l-0.9-0.5l0.2-0.4l0.9,0.5L18.5,113.1z
				 M125.3,112.2l-0.2-0.4l0.9-0.5l0.2,0.4L125.3,112.2z M16.8,112.1l-0.9-0.5l0.2-0.4l0.9,0.5L16.8,112.1z M127,111.2l-0.2-0.4
				l0.9-0.5l0.2,0.4L127,111.2z M15,111.1l-0.9-0.5l0.2-0.4l0.9,0.5L15,111.1z M128.7,110.2l-0.2-0.4l0.9-0.5l0.2,0.4L128.7,110.2z
				 M13.3,110.1l-0.9-0.5l0.2-0.4l0.9,0.5L13.3,110.1z M130.5,109.2l-0.2-0.4l0.9-0.5l0.2,0.4L130.5,109.2z M11.6,109.1l-0.9-0.5
				l0.2-0.4l0.9,0.5L11.6,109.1z M132.2,108.2l-0.2-0.4l0.9-0.5l0.2,0.4L132.2,108.2z M9.8,108.1L9,107.6l0.2-0.4l0.9,0.5L9.8,108.1
				z M133.9,107.2l-0.2-0.4l0.1,0c0.3-0.2,0.5-0.3,0.8-0.5l0.3,0.4C134.5,106.8,134.3,107,133.9,107.2L133.9,107.2z M8.1,107
				c-0.3-0.2-0.6-0.4-0.8-0.6l0.3-0.4c0.2,0.2,0.5,0.4,0.8,0.6L8.1,107z M135.6,106l-0.3-0.4c0.2-0.2,0.5-0.4,0.7-0.7l0.4,0.3
				C136.1,105.5,135.9,105.8,135.6,106z M6.5,105.8c-0.2-0.3-0.5-0.5-0.7-0.8l0.4-0.3c0.2,0.3,0.4,0.5,0.6,0.7L6.5,105.8z
				 M137,104.4l-0.4-0.3c0.2-0.3,0.3-0.6,0.4-0.9l0.5,0.2C137.3,103.8,137.2,104.1,137,104.4z M5.3,104.1c-0.2-0.3-0.3-0.7-0.4-1
				l0.5-0.1c0.1,0.3,0.2,0.6,0.3,0.9L5.3,104.1z M137.7,102.5l-0.5-0.1c0-0.2,0-0.3,0-0.5c0-0.1,0-0.3,0-0.4l0.5-0.1
				c0,0.2,0,0.3,0,0.5C137.7,102.1,137.7,102.3,137.7,102.5z M5.3,102l-0.5,0c0-0.3,0.1-0.7,0.1-1l0.5,0.1
				C5.4,101.4,5.3,101.7,5.3,102z M137,100.6c-0.1-0.3-0.2-0.6-0.4-0.9l0.4-0.3c0.2,0.3,0.3,0.6,0.5,0.9L137,100.6z M5.8,100.2
				L5.3,100c0.2-0.3,0.3-0.6,0.6-0.9l0.4,0.3C6.1,99.7,5.9,100,5.8,100.2z M136,98.9c-0.2-0.2-0.4-0.5-0.7-0.7l0.3-0.4
				c0.3,0.2,0.5,0.5,0.7,0.7L136,98.9z M6.9,98.7l-0.4-0.4c0.2-0.2,0.5-0.5,0.8-0.7l0.3,0.4C7.4,98.3,7.1,98.5,6.9,98.7z
				 M134.6,97.7c-0.3-0.2-0.5-0.4-0.8-0.5l-0.9-0.5l0.2-0.4l0.9,0.5c0.3,0.2,0.6,0.4,0.8,0.5L134.6,97.7z M8.4,97.5l-0.3-0.4
				c0.1-0.1,0.2-0.1,0.4-0.2l0.5-0.3L9.3,97l-0.5,0.3C8.7,97.4,8.6,97.4,8.4,97.5z M10.2,96.5l-0.2-0.4l0.9-0.5L11,96L10.2,96.5z
				 M132,96.1l-0.9-0.5l0.2-0.4l0.9,0.5L132,96.1z M11.9,95.5l-0.2-0.4l0.9-0.5l0.2,0.4L11.9,95.5z M130.3,95.1l-0.9-0.5l0.2-0.4
				l0.9,0.5L130.3,95.1z M13.6,94.5l-0.2-0.4l0.9-0.5l0.2,0.4L13.6,94.5z M128.6,94.1l-0.9-0.5l0.2-0.4l0.9,0.5L128.6,94.1z
				 M15.4,93.5l-0.2-0.4l0.9-0.5l0.2,0.4L15.4,93.5z M126.8,93.1l-0.9-0.5l0.2-0.4l0.9,0.5L126.8,93.1z M17.1,92.5l-0.2-0.4l0.9-0.5
				L18,92L17.1,92.5z M125.1,92.1l-0.9-0.5l0.2-0.4l0.9,0.5L125.1,92.1z M18.8,91.5l-0.2-0.4l0.9-0.5l0.2,0.4L18.8,91.5z
				 M123.4,91.1l-0.9-0.5l0.2-0.4l0.9,0.5L123.4,91.1z M20.6,90.5l-0.2-0.4l0.9-0.5l0.2,0.4L20.6,90.5z M121.6,90.1l-0.9-0.5
				l0.2-0.4l0.9,0.5L121.6,90.1z M22.3,89.5L22,89.1l0.9-0.5l0.2,0.4L22.3,89.5z M119.9,89.1l-0.9-0.5l0.2-0.4l0.9,0.5L119.9,89.1z
				 M24,88.5l-0.2-0.4l0.9-0.5l0.2,0.4L24,88.5z M118.2,88.1l-0.9-0.5l0.2-0.4l0.9,0.5L118.2,88.1z M25.8,87.5l-0.2-0.4l0.9-0.5
				l0.2,0.4L25.8,87.5z M116.4,87.1l-0.9-0.5l0.2-0.4l0.9,0.5L116.4,87.1z M27.5,86.5l-0.2-0.4l0.9-0.5l0.2,0.4L27.5,86.5z
				 M114.7,86.1l-0.9-0.5l0.2-0.4l0.9,0.5L114.7,86.1z M29.2,85.5L29,85.1l0.9-0.5l0.2,0.4L29.2,85.5z M113,85.1l-0.9-0.5l0.2-0.4
				l0.9,0.5L113,85.1z M31,84.5l-0.2-0.4l0.9-0.5l0.2,0.4L31,84.5z M111.2,84.1l-0.9-0.5l0.2-0.4l0.9,0.5L111.2,84.1z M32.7,83.5
				l-0.2-0.4l0.9-0.5l0.2,0.4L32.7,83.5z M109.5,83.1l-0.9-0.5l0.2-0.4l0.9,0.5L109.5,83.1z M34.4,82.5l-0.2-0.4l0.9-0.5l0.2,0.4
				L34.4,82.5z M107.8,82.1l-0.9-0.5l0.2-0.4l0.9,0.5L107.8,82.1z M36.1,81.5l-0.2-0.4l0.9-0.5L37,81L36.1,81.5z M106,81.1l-0.9-0.5
				l0.2-0.4l0.9,0.5L106,81.1z M37.9,80.5l-0.2-0.4l0.9-0.5l0.2,0.4L37.9,80.5z M104.3,80.1l-0.9-0.5l0.2-0.4l0.9,0.5L104.3,80.1z
				 M39.6,79.5l-0.2-0.4l0.9-0.5l0.2,0.4L39.6,79.5z M102.6,79.1l-0.9-0.5l0.2-0.4l0.9,0.5L102.6,79.1z M41.3,78.5l-0.2-0.4l0.9-0.5
				l0.2,0.4L41.3,78.5z M100.8,78.1l-0.9-0.5l0.2-0.4l0.9,0.5L100.8,78.1z M43.1,77.5l-0.2-0.4l0.9-0.5l0.2,0.4L43.1,77.5z
				 M99.1,77.1l-0.9-0.5l0.2-0.4l0.9,0.5L99.1,77.1z M44.8,76.5l-0.2-0.4l0.9-0.5l0.2,0.4L44.8,76.5z M97.4,76.1l-0.9-0.5l0.2-0.4
				l0.9,0.5L97.4,76.1z M46.5,75.5l-0.2-0.4l0.9-0.5l0.2,0.4L46.5,75.5z M95.7,75.1l-0.9-0.5l0.2-0.4l0.9,0.5L95.7,75.1z M48.3,74.5
				L48,74.1l0.9-0.5l0.2,0.4L48.3,74.5z M93.9,74.1l-0.9-0.5l0.2-0.4l0.9,0.5L93.9,74.1z M50,73.5l-0.2-0.4l0.9-0.5l0.2,0.4L50,73.5
				z M92.2,73.1l-0.9-0.5l0.2-0.4l0.9,0.5L92.2,73.1z M51.7,72.5l-0.2-0.4l0.9-0.5l0.2,0.4L51.7,72.5z M90.5,72.1l-0.9-0.5l0.2-0.4
				l0.9,0.5L90.5,72.1z M53.5,71.5l-0.2-0.4l0.9-0.5l0.2,0.4L53.5,71.5z M88.7,71.1l-0.9-0.5l0.2-0.4l0.9,0.5L88.7,71.1z M55.2,70.5
				L55,70.1l0.9-0.5l0.2,0.4L55.2,70.5z M87,70.1l-0.9-0.5l0.2-0.4l0.9,0.5L87,70.1z M56.9,69.5l-0.2-0.4l0.9-0.5l0.2,0.4L56.9,69.5
				z M85.3,69.1l-0.9-0.5l0.2-0.4l0.9,0.5L85.3,69.1z M58.7,68.5l-0.2-0.4l0.9-0.5l0.2,0.4L58.7,68.5z M83.5,68.1l-0.9-0.5l0.2-0.4
				l0.9,0.5L83.5,68.1z M60.4,67.5l-0.2-0.4l0.9-0.5l0.2,0.4L60.4,67.5z M81.8,67.1l-0.9-0.5l0.2-0.4l0.9,0.5L81.8,67.1z M62.1,66.5
				l-0.2-0.4l0.9-0.5L63,66L62.1,66.5z M80.1,66.1l-0.1-0.1c-0.2-0.1-0.5-0.3-0.7-0.4l0.2-0.4c0.3,0.1,0.5,0.3,0.8,0.4l0.1,0.1
				L80.1,66.1z M63.9,65.6l-0.2-0.5c0.3-0.1,0.6-0.3,0.9-0.4l0.2,0.5C64.5,65.3,64.2,65.4,63.9,65.6z M78.3,65.3
				c-0.3-0.1-0.6-0.2-0.9-0.3l0.2-0.5c0.3,0.1,0.6,0.2,1,0.3L78.3,65.3z M65.7,64.9l-0.1-0.5c0.3-0.1,0.6-0.2,1-0.3l0.1,0.5
				C66.3,64.7,66,64.8,65.7,64.9z M76.4,64.7c-0.3-0.1-0.6-0.2-1-0.2l0.1-0.5c0.3,0.1,0.7,0.1,1,0.2L76.4,64.7z M67.6,64.4l-0.1-0.5
				c0.3-0.1,0.7-0.1,1-0.2l0.1,0.5C68.3,64.3,67.9,64.3,67.6,64.4z M74.5,64.3c-0.3,0-0.7-0.1-1-0.1l0.1-0.5c0.3,0,0.7,0.1,1,0.1
				L74.5,64.3z M69.6,64.1l0-0.5c0.3,0,0.7-0.1,1-0.1l0,0.5C70.2,64.1,69.9,64.1,69.6,64.1z M72.5,64.1c-0.3,0-0.7,0-1,0l0-0.5
				c0.3,0,0.7,0,1,0L72.5,64.1z"/>
		</g>
	</g>
	<g>
		<ellipse transform="matrix(0.866 -0.5 0.5 0.866 -21.2721 42.5821)" class="st4" cx="68.8" cy="61" rx="28.7" ry="49.7"/>
	</g>
	<g>
		<path class="st5" d="M26.9,28.3c2.2-4.5,5.5-7.7,9.7-9.3c4.2-1.6,9.1-1.6,14.4,0c-2.3,2.9-4.2,8.1-5.5,15
			c-1.1-0.3-2.1-0.2-2.9,0.2c-0.8,0.4-1.5,1.2-1.8,2.2L26.9,28.3z M67.3,28.4c5.3,4.5,10.2,10.2,14.4,16.7
			c4.2,6.5,7.5,13.5,9.7,20.5L73.5,55.2C72.3,44.6,70.1,35,67.3,28.4z M93.1,71.9c1.5,7,1.7,13.6,0.6,19.3l-16.1-9.3
			c-0.6-2.2-1.7-4.4-3.2-6.2c0.1-4.8,0-9.7-0.4-14.8L93.1,71.9z M92.4,95.9c-2,5.3-5.3,9.1-9.7,11.1c-4.4,2-9.7,2.2-15.4,0.4
			c2.6-3.2,4.6-9.4,5.9-17.6c1,0.2,1.9,0,2.7-0.4s1.3-1.1,1.7-2.1L92.4,95.9z M51,98c-5.7-4.9-11-11.1-15.4-18.2
			C31.3,72.8,28,65.1,26,57.6l18.6,10.7C45.7,80.1,48,90.7,51,98z M24.7,51.4c-1.1-6.9-0.9-13.3,0.6-18.6l15.5,9
			c0.6,2.2,1.7,4.5,3.3,6.3c-0.2,4.7-0.2,9.6,0.1,14.6L24.7,51.4z M59.2,22.6c0.9,0.5,1.7,1.5,2.4,2.9c1.1,1.9,2.1,4.3,3,7.1
			c1.8,5.5,3.2,12.4,4.1,19.9L54.1,44c-0.3-1.2-0.8-2.5-1.5-3.7c-0.7-1.2-1.4-2.3-2.3-3.3c0.9-4.5,2-8.2,3.4-10.9
			c0.9-1.7,1.9-3,3-3.6C57.5,22.2,58.3,22.1,59.2,22.6z M59.2,103.8c-0.9-0.5-1.7-1.5-2.4-2.9c-1.1-1.9-2.1-4.3-3-7.1
			c-2-6.2-3.6-14.2-4.4-22.8l15,8.7c0.3,1.3,0.9,2.7,1.6,3.9c0.7,1.3,1.6,2.4,2.6,3.4c-0.9,5.6-2.2,10.1-3.8,13.2
			c-0.9,1.7-1.9,3-3,3.6C60.8,104.2,60,104.3,59.2,103.8L59.2,103.8z M70.9,83.5c-0.3-0.2-0.6-0.4-0.9-0.7c-0.3-0.3-0.5-0.6-0.8-1
			c-0.2-0.4-0.4-0.8-0.5-1.2c-0.1-0.4-0.2-0.8-0.2-1.1v0c0-0.7,0.2-1.3,0.7-1.5c0.4-0.3,1-0.2,1.7,0.2l0,0c0.6,0.4,1.2,1,1.7,1.8
			c0.4,0.8,0.7,1.6,0.7,2.3c0,0.7-0.2,1.3-0.7,1.5C72.1,83.9,71.5,83.9,70.9,83.5z M69.7,72.1c-1.2-0.5-2.4-0.5-3.3-0.1
			c-1,0.4-1.7,1.2-2.1,2.3l-15.4-8.9c-0.3-4.7-0.3-9.3-0.1-13.7c1.2,0.4,2.4,0.5,3.3,0.1c0.9-0.4,1.7-1.2,2.1-2.3l15.2,8.8
			C69.7,63,69.8,67.6,69.7,72.1z M47.5,40.2c0.5,0.3,0.9,0.7,1.3,1.2c0.4,0.5,0.7,1.1,0.9,1.7c0.2,0.6,0.2,1.2,0.1,1.6
			c-0.1,0.5-0.3,0.8-0.6,1c-0.3,0.2-0.7,0.2-1.2,0s-0.9-0.5-1.4-0.9c-0.4-0.5-0.8-1-1.1-1.6c-0.3-0.6-0.4-1.2-0.4-1.7
			c0-0.7,0.2-1.3,0.7-1.5C46.2,39.8,46.8,39.8,47.5,40.2z"/>
		<path class="st6" d="M75,108.8l0-0.5c0.3,0,0.7,0,1,0l0,0.5C75.7,108.8,75.4,108.8,75,108.8z M74,108.8c-0.3,0-0.7,0-1-0.1l0-0.5
			c0.3,0,0.7,0,1,0.1L74,108.8z M77,108.7l-0.1-0.5c0.3,0,0.7-0.1,1-0.1l0.1,0.5C77.7,108.7,77.4,108.7,77,108.7z M72,108.7
			c-0.3,0-0.7-0.1-1-0.1l0.1-0.5c0.3,0.1,0.7,0.1,1,0.1L72,108.7z M79,108.4l-0.1-0.5c0.3-0.1,0.6-0.1,1-0.2l0.1,0.5
			C79.7,108.3,79.4,108.4,79,108.4z M70,108.3c-0.3-0.1-0.7-0.1-1-0.2l0.1-0.5c0.3,0.1,0.6,0.1,1,0.2L70,108.3z M81,107.9l-0.2-0.5
			c0.3-0.1,0.6-0.2,0.9-0.3l0.2,0.5C81.6,107.7,81.3,107.8,81,107.9z M68,107.9c-0.3-0.1-0.5-0.1-0.8-0.2l-0.4-0.1l0.3-0.4l0.1,0.1
			l0-0.1c0.3,0.1,0.5,0.2,0.8,0.2L68,107.9z M82.9,107.2l-0.2-0.5c0.3-0.1,0.6-0.3,0.9-0.4l0.2,0.4C83.5,106.9,83.2,107,82.9,107.2z
			 M68.2,106.6l-0.4-0.3c0.2-0.3,0.3-0.5,0.5-0.8l0.4,0.2C68.6,106,68.4,106.3,68.2,106.6z M84.7,106.2l-0.3-0.4
			c0.3-0.2,0.6-0.4,0.8-0.5l0.3,0.4C85.2,105.8,85,106,84.7,106.2z M86.3,105l-0.3-0.4c0.3-0.2,0.5-0.4,0.7-0.6l0.3,0.4
			C86.8,104.6,86.6,104.8,86.3,105z M69.2,104.8l-0.4-0.2c0.1-0.3,0.3-0.6,0.4-0.9l0.5,0.2C69.5,104.2,69.4,104.5,69.2,104.8z
			 M60.3,104.4c-0.1,0-0.3,0-0.4,0l0.1-0.5c0.3,0.1,0.6,0,0.9,0l0.1,0.5C60.8,104.4,60.5,104.4,60.3,104.4z M59.1,104
			c-0.3-0.2-0.6-0.4-0.8-0.6l0.3-0.4c0.2,0.2,0.5,0.4,0.7,0.6L59.1,104z M62,103.9l-0.3-0.4c0.3-0.2,0.5-0.4,0.7-0.6l0.3,0.4
			C62.5,103.5,62.2,103.7,62,103.9z M87.8,103.7l-0.4-0.4c0.2-0.2,0.5-0.5,0.7-0.7l0.4,0.3C88.3,103.2,88.1,103.4,87.8,103.7z
			 M70.1,103l-0.5-0.2c0.1-0.3,0.2-0.6,0.4-0.9l0.5,0.2C70.3,102.4,70.2,102.7,70.1,103z M57.5,102.6c-0.2-0.2-0.4-0.5-0.6-0.8
			l0.4-0.3c0.2,0.3,0.4,0.6,0.6,0.8L57.5,102.6z M63.5,102.5l-0.4-0.3c0.2-0.2,0.4-0.5,0.6-0.8l0.4,0.3
			C63.9,101.9,63.7,102.2,63.5,102.5z M89.2,102.1l-0.4-0.3c0.2-0.3,0.4-0.5,0.6-0.8l0.4,0.3C89.6,101.6,89.4,101.9,89.2,102.1z
			 M70.8,101.1l-0.5-0.2c0.1-0.3,0.2-0.6,0.3-0.9l0.5,0.2C71,100.5,70.9,100.8,70.8,101.1z M56.4,100.9c-0.2-0.3-0.3-0.6-0.5-0.9
			l0.4-0.2c0.2,0.3,0.3,0.6,0.5,0.9L56.4,100.9z M64.6,100.8l-0.4-0.2c0.1-0.1,0.2-0.3,0.3-0.5c0.1-0.1,0.1-0.3,0.2-0.4l0.4,0.2
			c-0.1,0.1-0.1,0.3-0.2,0.4C64.8,100.4,64.7,100.6,64.6,100.8z M90.3,100.5l-0.4-0.3c0.2-0.3,0.3-0.6,0.5-0.8l0.4,0.2
			C90.7,99.9,90.5,100.2,90.3,100.5z M71.4,99.2l-0.5-0.1c0.1-0.3,0.2-0.6,0.3-1l0.5,0.1C71.6,98.6,71.5,98.9,71.4,99.2z M55.5,99.1
			c-0.1-0.3-0.3-0.6-0.4-0.9l0.5-0.2c0.1,0.3,0.3,0.6,0.4,0.9L55.5,99.1z M65.5,99l-0.5-0.2c0.1-0.3,0.3-0.6,0.4-0.9l0.5,0.2
			C65.8,98.3,65.7,98.7,65.5,99z M51.7,98.9l-0.8-0.7c-0.3-0.2-0.5-0.4-0.8-0.7l0.3-0.4c0.2,0.2,0.4,0.4,0.7,0.6l0.1,0L51.7,98.9z
			 M91.4,98.7l-0.4-0.2c0.2-0.3,0.3-0.6,0.4-0.9l0.5,0.2C91.7,98.1,91.5,98.4,91.4,98.7z M72,97.3l-0.5-0.1c0.1-0.3,0.2-0.6,0.2-1
			l0.5,0.1C72.1,96.6,72,97,72,97.3z M54.7,97.3c-0.1-0.3-0.2-0.6-0.4-0.9l0.5-0.2c0.1,0.3,0.2,0.6,0.4,0.9L54.7,97.3z M66.3,97.1
			l-0.5-0.2c0.1-0.3,0.2-0.6,0.3-0.9l0.5,0.2C66.5,96.5,66.4,96.8,66.3,97.1z M50.4,97c-0.1-0.3-0.2-0.6-0.4-0.9l0.5-0.2
			c0.1,0.3,0.2,0.6,0.4,0.9L50.4,97z M92.2,96.9l-0.5-0.2c0.1-0.3,0.2-0.6,0.4-0.9l0.1,0l0.1-0.2l0.3,0.2L92.6,96
			C92.5,96.3,92.3,96.6,92.2,96.9z M49.4,96.9c-0.2-0.2-0.5-0.5-0.7-0.7l0.3-0.4c0.2,0.2,0.5,0.5,0.7,0.7L49.4,96.9z M91.2,95.5
			L90.4,95l0.2-0.4l0.9,0.5L91.2,95.5z M47.9,95.5c-0.2-0.2-0.5-0.5-0.7-0.7l0.4-0.4c0.2,0.2,0.5,0.5,0.7,0.7L47.9,95.5z M54,95.4
			c-0.1-0.3-0.2-0.6-0.3-0.9l0.5-0.2c0.1,0.3,0.2,0.6,0.3,0.9L54,95.4z M72.4,95.3l-0.5-0.1c0.1-0.3,0.1-0.6,0.2-1l0.5,0.1
			C72.6,94.7,72.5,95,72.4,95.3z M66.9,95.2L66.4,95c0.1-0.3,0.2-0.6,0.3-1l0.5,0.1C67.1,94.5,67,94.9,66.9,95.2z M49.7,95.1
			c-0.1-0.3-0.2-0.6-0.3-1l0.5-0.2c0.1,0.3,0.2,0.6,0.3,0.9L49.7,95.1z M89.5,94.5L88.6,94l0.2-0.4l0.9,0.5L89.5,94.5z M46.5,94.1
			c-0.2-0.2-0.5-0.5-0.7-0.7l0.4-0.3c0.2,0.2,0.5,0.5,0.7,0.7L46.5,94.1z M87.8,93.5L86.9,93l0.2-0.4l0.9,0.5L87.8,93.5z M53.3,93.5
			c-0.1-0.3-0.2-0.6-0.3-1l0.5-0.1c0.1,0.3,0.2,0.6,0.3,1L53.3,93.5z M72.8,93.4l-0.5-0.1c0.1-0.3,0.1-0.6,0.2-1l0.5,0.1
			C73,92.7,72.9,93,72.8,93.4z M67.5,93.2L67,93.1c0.1-0.3,0.2-0.6,0.2-1l0.5,0.1C67.6,92.6,67.5,92.9,67.5,93.2z M49,93.2
			c-0.1-0.3-0.2-0.6-0.3-1l0.5-0.1c0.1,0.3,0.2,0.6,0.3,1L49,93.2z M45.1,92.6c-0.2-0.2-0.5-0.5-0.7-0.7l0.4-0.3
			c0.2,0.2,0.4,0.5,0.7,0.7L45.1,92.6z M86,92.5L85.2,92l0.2-0.4l0.9,0.5L86,92.5z M52.7,91.6c-0.1-0.3-0.2-0.6-0.3-1l0.5-0.1
			c0.1,0.3,0.2,0.6,0.3,1L52.7,91.6z M84.3,91.5L83.4,91l0.2-0.4l0.9,0.5L84.3,91.5z M73.2,91.4l-0.5-0.1c0.1-0.3,0.1-0.7,0.2-1
			l0.5,0.1C73.3,90.7,73.3,91.1,73.2,91.4z M67.9,91.3l-0.5-0.1c0.1-0.3,0.1-0.6,0.2-1l0.5,0.1C68.1,90.6,68,91,67.9,91.3z
			 M48.4,91.3c-0.1-0.3-0.2-0.6-0.3-1l0.5-0.1c0.1,0.3,0.2,0.6,0.3,1L48.4,91.3z M43.8,91.2c-0.2-0.2-0.4-0.5-0.7-0.8l0.4-0.3
			c0.2,0.3,0.4,0.5,0.7,0.8L43.8,91.2z M93,91.1l-0.9-0.5l0.2-0.4l0.9,0.5L93,91.1z M94,90.9l-0.5-0.1c0.1-0.3,0.1-0.6,0.2-1
			l0.5,0.1C94.1,90.2,94,90.5,94,90.9z M82.6,90.5L81.7,90l0.2-0.4l0.9,0.5L82.6,90.5z M91.3,90.1l-0.9-0.5l0.2-0.4l0.9,0.5
			L91.3,90.1z M74,90.1c-0.1,0-0.3,0-0.4,0l0-0.5c0.1,0,0.3,0,0.4,0c0.2,0,0.4,0,0.5,0l0.1,0.5C74.5,90.1,74.3,90.1,74,90.1z
			 M75.7,89.8l-0.2-0.5c0.1,0,0.2-0.1,0.3-0.1c0.2-0.1,0.4-0.2,0.5-0.4l0.3,0.4c-0.2,0.2-0.4,0.3-0.6,0.4
			C75.9,89.7,75.8,89.7,75.7,89.8z M42.4,89.6c-0.2-0.3-0.4-0.5-0.6-0.8l0.4-0.3c0.2,0.3,0.4,0.5,0.6,0.8L42.4,89.6z M52.2,89.6
			c-0.1-0.3-0.2-0.6-0.2-1l0.5-0.1c0.1,0.3,0.2,0.6,0.2,1L52.2,89.6z M80.8,89.5L80,89l0.2-0.4l0.9,0.5L80.8,89.5z M47.9,89.3
			c-0.1-0.3-0.2-0.6-0.3-1l0.5-0.1c0.1,0.3,0.2,0.6,0.3,1L47.9,89.3z M68.3,89.3l-0.5-0.1c0.1-0.3,0.1-0.6,0.2-1l0.5,0.1
			C68.5,88.7,68.4,89,68.3,89.3z M89.5,89.1l-0.9-0.5l0.2-0.4l0.9,0.5L89.5,89.1z M94.3,88.9l-0.5-0.1c0-0.3,0.1-0.7,0.1-1l0.5,0
			C94.4,88.2,94.3,88.5,94.3,88.9z M79.1,88.5L78.2,88l0.2-0.4l0.9,0.5L79.1,88.5z M77.3,88.4l-0.4-0.3c0.2-0.3,0.3-0.5,0.4-0.8
			l0.5,0.2C77.6,87.8,77.5,88.1,77.3,88.4z M87.8,88.1l-0.9-0.5l0.2-0.4l0.9,0.5L87.8,88.1z M41.2,88.1c-0.2-0.3-0.4-0.5-0.6-0.8
			L41,87c0.2,0.3,0.4,0.5,0.6,0.8L41.2,88.1z M51.7,87.7c-0.1-0.3-0.2-0.6-0.2-1l0.5-0.1c0.1,0.3,0.1,0.7,0.2,1L51.7,87.7z
			 M47.4,87.4c-0.1-0.3-0.2-0.6-0.2-1l0.5-0.1c0.1,0.3,0.2,0.6,0.2,1L47.4,87.4z M68.7,87.3l-0.5-0.1l0-0.2
			c-0.1-0.1-0.3-0.3-0.4-0.4l0.4-0.3c0.2,0.2,0.3,0.3,0.5,0.5l0.1,0.1L68.7,87.3z M86.1,87.1l-0.9-0.5l0.2-0.4l0.9,0.5L86.1,87.1z
			 M94.5,86.9l-0.5,0c0-0.3,0-0.7,0.1-1l0.5,0C94.5,86.2,94.5,86.5,94.5,86.9z M39.9,86.5c-0.2-0.3-0.4-0.5-0.6-0.8l0.4-0.3
			c0.2,0.3,0.4,0.5,0.6,0.8L39.9,86.5z M84.3,86.1l-0.9-0.5l0.2-0.4l0.9,0.5L84.3,86.1z M67.1,85.9c-0.2-0.3-0.4-0.5-0.6-0.8
			l0.4-0.3c0.2,0.3,0.4,0.5,0.6,0.8L67.1,85.9z M51.3,85.7c-0.1-0.3-0.1-0.7-0.2-1l0.5-0.1c0.1,0.3,0.1,0.7,0.2,1L51.3,85.7z
			 M47,85.4c-0.1-0.3-0.1-0.7-0.2-1l0.5-0.1c0.1,0.3,0.1,0.7,0.2,1L47,85.4z M82.6,85.1l-0.9-0.5l0.2-0.4l0.9,0.5L82.6,85.1z
			 M38.8,84.9c-0.2-0.3-0.4-0.5-0.6-0.8l0.4-0.3c0.2,0.3,0.4,0.5,0.6,0.8L38.8,84.9z M94.6,84.9l-0.5,0c0-0.3,0-0.7,0-1l0.5,0
			C94.6,84.2,94.6,84.5,94.6,84.9z M66,84.2c-0.1-0.2-0.2-0.3-0.3-0.5c-0.1-0.1-0.1-0.3-0.2-0.4l0.4-0.2c0.1,0.1,0.1,0.2,0.2,0.4
			c0.1,0.2,0.2,0.3,0.3,0.5L66,84.2z M80.9,84.1L80,83.6l0.2-0.4l0.9,0.5L80.9,84.1z M71.5,84c-0.2-0.1-0.5-0.2-0.7-0.3
			c-0.3-0.2-0.6-0.4-0.8-0.6l0.4-0.4c0.2,0.2,0.5,0.4,0.7,0.6c0.2,0.1,0.4,0.2,0.6,0.2L71.5,84z M72.7,83.9l-0.2-0.4
			c0.2-0.1,0.4-0.3,0.5-0.6l0.5,0.2C73.2,83.4,73,83.7,72.7,83.9z M50.9,83.8c-0.1-0.3-0.1-0.7-0.2-1l0.5-0.1c0.1,0.3,0.1,0.7,0.2,1
			L50.9,83.8z M46.5,83.5c-0.1-0.3-0.1-0.7-0.2-1l0.5-0.1c0.1,0.3,0.1,0.7,0.2,1L46.5,83.5z M37.6,83.3c-0.2-0.3-0.4-0.6-0.6-0.8
			l0.4-0.3c0.2,0.3,0.4,0.6,0.6,0.8L37.6,83.3z M79.1,83.1l-0.9-0.5l0.2-0.4l0.9,0.5L79.1,83.1z M94.1,82.9c0-0.3,0-0.7,0-1l0.5,0
			c0,0.3,0,0.7,0,1L94.1,82.9z M65,82.4c-0.1-0.3-0.3-0.6-0.4-0.9l0.5-0.2c0.1,0.3,0.2,0.6,0.4,0.9L65,82.4z M69.3,82.3
			c-0.1-0.1-0.2-0.2-0.2-0.4c-0.1-0.2-0.2-0.4-0.3-0.5l0.5-0.2c0.1,0.2,0.2,0.3,0.3,0.5c0.1,0.1,0.1,0.2,0.2,0.3L69.3,82.3z
			 M77.4,82.1L77.4,82.1L77.3,82c-0.1-0.3-0.2-0.6-0.3-0.9l0.5-0.2c0.1,0.3,0.2,0.6,0.3,1l-0.2,0.1L77.4,82.1z M73,81.9
			c0-0.3-0.1-0.6-0.2-0.9l0.5-0.2c0.1,0.4,0.2,0.7,0.2,1L73,81.9z M50.5,81.8c-0.1-0.3-0.1-0.7-0.2-1l0.5-0.1c0.1,0.3,0.1,0.7,0.2,1
			L50.5,81.8z M36.5,81.6c-0.2-0.3-0.4-0.6-0.5-0.8l0.4-0.3c0.2,0.3,0.4,0.6,0.5,0.8L36.5,81.6z M46.1,81.5c-0.1-0.3-0.1-0.7-0.2-1
			l0.5-0.1c0.1,0.3,0.1,0.7,0.2,1L46.1,81.5z M94,80.9c0-0.3,0-0.7-0.1-1l0.5,0c0,0.3,0,0.7,0.1,1L94,80.9z M64.3,80.6
			c-0.1-0.2-0.2-0.5-0.2-0.7l0,0l0,0c0,0,0,0,0,0l0,0l0.2-0.3l0.2,0.1l0,0.1c0.1,0.3,0.1,0.5,0.2,0.8L64.3,80.6z M68.4,80.4
			c-0.1-0.3-0.1-0.6-0.1-0.9l0-0.2l0.5,0l0,0.1c0,0.3,0,0.5,0.1,0.8L68.4,80.4z M72.4,80.1L72.3,80c-0.1-0.2-0.3-0.4-0.4-0.6
			l0.4-0.3c0.2,0.2,0.3,0.4,0.5,0.7l0.1,0.2L72.4,80.1z M76.7,80.1c-0.1-0.3-0.3-0.6-0.4-0.9l0.5-0.2c0.1,0.3,0.3,0.6,0.4,0.9
			L76.7,80.1z M35.4,79.9c-0.2-0.3-0.4-0.6-0.5-0.9l0.4-0.3c0.2,0.3,0.3,0.6,0.5,0.9L35.4,79.9z M50.1,79.8c-0.1-0.3-0.1-0.7-0.2-1
			l0.5-0.1c0.1,0.3,0.1,0.7,0.2,1L50.1,79.8z M45.8,79.5c-0.1-0.3-0.1-0.7-0.2-1l0.5-0.1c0.1,0.3,0.1,0.7,0.2,1L45.8,79.5z
			 M63.1,79.3l-0.9-0.5l0.2-0.4l0.9,0.5L63.1,79.3z M93.9,78.9c0-0.3-0.1-0.7-0.1-1l0.5-0.1c0,0.3,0.1,0.7,0.1,1L93.9,78.9z
			 M71.3,78.6c-0.2-0.1-0.3-0.2-0.5-0.3c-0.1-0.1-0.2-0.1-0.3-0.1l0.2-0.5c0.1,0,0.2,0.1,0.3,0.2c0.2,0.1,0.4,0.2,0.6,0.4L71.3,78.6
			z M69,78.5l-0.4-0.3c0.1-0.2,0.3-0.4,0.5-0.5c0.1-0.1,0.3-0.1,0.4-0.2l0.1,0.5c-0.1,0-0.2,0.1-0.3,0.1
			C69.2,78.2,69.1,78.3,69,78.5z M75.8,78.3c-0.2-0.3-0.3-0.6-0.5-0.8l0.4-0.3c0.2,0.3,0.4,0.6,0.5,0.9L75.8,78.3z M61.4,78.3
			l-0.9-0.5l0.2-0.4l0.9,0.5L61.4,78.3z M34.4,78.2c-0.2-0.3-0.3-0.6-0.5-0.9l0.4-0.2c0.2,0.3,0.3,0.6,0.5,0.9L34.4,78.2z
			 M49.8,77.8c0-0.3-0.1-0.7-0.1-1l0.5-0.1c0,0.3,0.1,0.7,0.1,1L49.8,77.8z M45.5,77.6c-0.1-0.3-0.1-0.7-0.2-1l0.5-0.1
			c0,0.3,0.1,0.7,0.2,1L45.5,77.6z M59.7,77.3l-0.9-0.5l0.2-0.4l0.9,0.5L59.7,77.3z M93.7,76.9c0-0.3-0.1-0.7-0.1-1l0.5-0.1
			c0,0.3,0.1,0.7,0.1,1L93.7,76.9z M74.8,76.7c-0.2-0.3-0.4-0.5-0.6-0.8l0.4-0.3c0.2,0.3,0.4,0.5,0.6,0.8L74.8,76.7z M33.4,76.4
			c-0.2-0.3-0.3-0.6-0.5-0.9l0.4-0.2c0.2,0.3,0.3,0.6,0.5,0.9L33.4,76.4z M57.9,76.3l-0.9-0.5l0.2-0.4l0.9,0.5L57.9,76.3z
			 M49.6,75.9c0-0.3-0.1-0.7-0.1-1l0.5-0.1c0,0.3,0.1,0.7,0.1,1L49.6,75.9z M45.2,75.6l-0.1-1l0.5-0.1l0.1,1L45.2,75.6z M56.2,75.3
			l-0.9-0.5l0.2-0.4l0.9,0.5L56.2,75.3z M93.4,74.9c-0.1-0.3-0.1-0.7-0.2-1l0.5-0.1c0.1,0.3,0.1,0.7,0.2,1L93.4,74.9z M74.6,74.7
			l-0.5,0c0-0.3,0-0.7,0-1l0.5,0C74.7,74.1,74.7,74.4,74.6,74.7z M32.4,74.7c-0.2-0.3-0.3-0.6-0.5-0.9l0.4-0.2
			c0.2,0.3,0.3,0.6,0.5,0.9L32.4,74.7z M64.4,74.6l-0.6-0.3l0.2-0.4l0.1,0c0-0.1,0.1-0.2,0.2-0.3l0.4,0.2c-0.1,0.2-0.2,0.3-0.2,0.5
			L64.4,74.6z M54.5,74.3l-0.9-0.5l0.2-0.4l0.9,0.5L54.5,74.3z M49.3,73.9c0-0.3-0.1-0.7-0.1-1l0.5-0.1c0,0.3,0.1,0.7,0.1,1
			L49.3,73.9z M62.9,73.8l-0.9-0.5l0.2-0.4l0.9,0.5L62.9,73.8z M44.9,73.6c0-0.3-0.1-0.7-0.1-1l0.5-0.1c0,0.3,0.1,0.7,0.1,1
			L44.9,73.6z M52.8,73.3l-0.9-0.5l0.2-0.4l0.9,0.5L52.8,73.3z M65.3,73l-0.4-0.3c0.2-0.3,0.5-0.5,0.8-0.7l0.3,0.4
			C65.7,72.6,65.5,72.8,65.3,73z M93,73c-0.1-0.3-0.1-0.7-0.2-1l0.5-0.1c0.1,0.3,0.1,0.7,0.2,1L93,73z M31.5,72.9
			c-0.1-0.3-0.3-0.6-0.4-0.9l0.5-0.2c0.1,0.3,0.3,0.6,0.4,0.9L31.5,72.9z M61.2,72.8l-0.9-0.5l0.2-0.4l0.9,0.5L61.2,72.8z
			 M74.7,72.7l-0.5,0l0-1h0.5L74.7,72.7z M69.9,72.4l-0.3-0.1c-0.3-0.1-0.6-0.2-0.9-0.3l0.1-0.5c0.3,0.1,0.7,0.2,1,0.3l0,0.1l0.2,0
			L69.9,72.4z M51,72.3l-0.9-0.5l0.2-0.4l0.9,0.5L51,72.3z M66.8,72.1l-0.1-0.5c0.3-0.1,0.7-0.1,1.1-0.1l0,0.5
			C67.4,72,67.1,72,66.8,72.1z M49.1,71.9L49,70.6l0.6,0.3L49.5,71l0.1,0l0.1,0.8L49.1,71.9z M59.5,71.8l-0.9-0.5l0.2-0.4l0.9,0.5
			L59.5,71.8z M92.2,71.7l-0.9-0.5l0.2-0.4l0.9,0.5L92.2,71.7z M44.7,71.6c0-0.3-0.1-0.7-0.1-1l0.5-0.1c0,0.3,0.1,0.7,0.1,1
			L44.7,71.6z M30.7,71.1c-0.1-0.3-0.3-0.6-0.4-0.9l0.5-0.2c0.1,0.3,0.3,0.6,0.4,0.9L30.7,71.1z M70,70.9l-0.5,0l0-1l0.5,0L70,70.9z
			 M57.7,70.8l-0.9-0.5l0.2-0.4l0.9,0.5L57.7,70.8z M74.2,70.7c0-0.3,0-0.7,0-1l0.5,0c0,0.3,0,0.7,0,1L74.2,70.7z M90.5,70.7
			l-0.9-0.5l0.2-0.4l0.9,0.5L90.5,70.7z M56,69.8l-0.9-0.5l0.2-0.4l0.9,0.5L56,69.8z M88.8,69.7l-0.9-0.5l0.2-0.4l0.9,0.5L88.8,69.7
			z M44.4,69.6l-0.1-1l0.5,0l0.1,1L44.4,69.6z M29.8,69.2c-0.1-0.3-0.3-0.6-0.4-0.9l0.5-0.2c0.1,0.3,0.3,0.6,0.4,0.9L29.8,69.2z
			 M69.5,68.9l0-1l0.5,0l0,1L69.5,68.9z M54.3,68.8l-0.9-0.5l0.2-0.4l0.9,0.5L54.3,68.8z M74.1,68.7l0-1l0.5,0l0,1L74.1,68.7z
			 M87,68.7l-0.9-0.5l0.2-0.4l0.9,0.5L87,68.7z M43.8,68.2L43,67.7l0.2-0.4l0.9,0.5L43.8,68.2z M52.6,67.8l-0.9-0.5l0.2-0.4l0.9,0.5
			L52.6,67.8z M85.3,67.7l-0.9-0.5l0.2-0.4l0.9,0.5L85.3,67.7z M29,67.4c-0.1-0.3-0.3-0.6-0.4-0.9l0.5-0.2c0.1,0.3,0.2,0.6,0.4,0.9
			L29,67.4z M42.1,67.2l-0.9-0.5l0.2-0.4l0.9,0.5L42.1,67.2z M69.5,66.9c0-0.3,0-0.7,0-1l0.5,0c0,0.3,0,0.7,0,1L69.5,66.9z
			 M50.8,66.8L50,66.3l0.2-0.4l0.9,0.5L50.8,66.8z M74.1,66.7l0-1l0.5,0l0,1L74.1,66.7z M83.6,66.7l-0.9-0.5l0.2-0.4l0.9,0.5
			L83.6,66.7z M40.4,66.2l-0.9-0.5l0.2-0.4l0.9,0.5L40.4,66.2z M91.8,66.1l-0.6-0.4l0.1-0.1l-0.1,0c-0.1-0.3-0.2-0.6-0.3-0.8
			l0.5-0.2c0.1,0.3,0.2,0.6,0.3,0.9L91.8,66.1z M49.1,65.8l-0.5-0.3l0-0.7l0.5-0.1l0,0.4l0.2,0.1L49.1,65.8z M81.8,65.7L81,65.2
			l0.2-0.4l0.9,0.5L81.8,65.7z M28.3,65.5c-0.1-0.3-0.2-0.6-0.4-0.9l0.5-0.2c0.1,0.3,0.2,0.6,0.3,0.9L28.3,65.5z M90.3,65.2
			l-0.9-0.5l0.2-0.4l0.9,0.5L90.3,65.2z M38.6,65.2l-0.9-0.5l0.2-0.4l0.9,0.5L38.6,65.2z M69.4,64.9c0-0.3,0-0.7,0-1l0.5,0
			c0,0.3,0,0.7,0,1L69.4,64.9z M74,64.7l0-1l0.5-0.1l0.1,1L74,64.7z M80.1,64.7l-0.9-0.5l0.2-0.4l0.9,0.5L80.1,64.7z M88.6,64.2
			l-0.9-0.5l0.2-0.4l0.9,0.5L88.6,64.2z M36.9,64.2L36,63.7l0.2-0.4l0.9,0.5L36.9,64.2z M90.6,63.8c-0.1-0.3-0.2-0.6-0.3-0.9
			l0.5-0.2c0.1,0.3,0.2,0.6,0.3,0.9L90.6,63.8z M48.5,63.8c0-0.3,0-0.7,0-1l0.5,0c0,0.3,0,0.7,0,1L48.5,63.8z M78.4,63.7l-0.9-0.5
			l0.2-0.4l0.9,0.5L78.4,63.7z M27.6,63.6c-0.1-0.3-0.2-0.6-0.3-0.9l0.5-0.2c0.1,0.3,0.2,0.6,0.3,0.9L27.6,63.6z M86.9,63.2L86,62.7
			l0.2-0.4l0.9,0.5L86.9,63.2z M35.2,63.2l-0.9-0.5l0.2-0.4l0.9,0.5L35.2,63.2z M44.4,63.1l-0.9-0.5l0.2-0.4l0.1,0v0l0.5,0
			L44.4,63.1z M69.3,62.9c0-0.3,0-0.7,0-1l0.5,0c0,0.3,0,0.7,0,1L69.3,62.9z M73.9,62.8l-0.1-1l0.5,0l0.1,1L73.9,62.8z M76.6,62.7
			l-0.9-0.5l0.2-0.4l0.9,0.5L76.6,62.7z M85.1,62.2l-0.9-0.5l0.2-0.4l0.9,0.5L85.1,62.2z M33.4,62.2l-0.9-0.5l0.2-0.4l0.9,0.5
			L33.4,62.2z M42.7,62.1l-0.9-0.5l0.2-0.4l0.9,0.5L42.7,62.1z M89.9,62c-0.1-0.3-0.2-0.6-0.3-0.9l0.5-0.2c0.1,0.3,0.2,0.6,0.4,0.9
			L89.9,62z M48.4,61.8c0-0.3,0-0.7,0-1l0.5,0c0,0.3,0,0.7,0,1L48.4,61.8z M27,61.7c-0.1-0.3-0.2-0.6-0.3-1l0.5-0.1
			c0.1,0.3,0.2,0.6,0.3,1L27,61.7z M74.9,61.7L74,61.2l0.2-0.4l0.9,0.5L74.9,61.7z M83.4,61.2l-0.9-0.5l0.2-0.4l0.9,0.5L83.4,61.2z
			 M43.8,61.2c0-0.3,0-0.7,0-1l0.5,0c0,0.3,0,0.7,0,1L43.8,61.2z M31.7,61.2l-0.9-0.5l0.2-0.4l0.9,0.5L31.7,61.2z M41,61.1l-0.9-0.5
			l0.2-0.4l0.9,0.5L41,61.1z M69.2,60.9c0-0.3,0-0.7-0.1-1l0.5,0c0,0.3,0,0.7,0.1,1L69.2,60.9z M81.7,60.2l-0.9-0.5l0.2-0.4l0.9,0.5
			L81.7,60.2z M30,60.2l-0.9-0.5l0.2-0.4l0.9,0.5L30,60.2z M89.2,60.1c-0.1-0.3-0.2-0.6-0.4-0.9l0.5-0.2c0.1,0.3,0.3,0.6,0.4,0.9
			L89.2,60.1z M39.2,60.1l-0.9-0.5l0.2-0.4l0.9,0.5L39.2,60.1z M26.4,59.8c-0.1-0.3-0.2-0.6-0.3-1l0.5-0.1c0.1,0.3,0.2,0.6,0.3,1
			L26.4,59.8z M48.4,59.8c0-0.3,0-0.7,0-1l0.5,0c0,0.3,0,0.7,0,1L48.4,59.8z M79.9,59.2l-0.9-0.5l0.2-0.4l0.9,0.5L79.9,59.2z
			 M43.8,59.2c0-0.3,0-0.7,0-1l0.5,0c0,0.3,0,0.7,0,1L43.8,59.2z M28.3,59.2l-0.9-0.5l0.2-0.4l0.9,0.5L28.3,59.2z M37.5,59.1
			l-0.9-0.5l0.2-0.4l0.9,0.5L37.5,59.1z M69.1,58.9l0-0.6l-0.1-0.1l0.2-0.4l0.4,0.2l0.1,0.8L69.1,58.9z M88.5,58.3
			c-0.1-0.3-0.3-0.6-0.4-0.9l0.5-0.2c0.1,0.3,0.3,0.6,0.4,0.9L88.5,58.3z M78.2,58.2l-0.9-0.5l0.2-0.4l0.9,0.5L78.2,58.2z
			 M26.5,58.2L26,57.8l-0.2,0l-0.2-0.8l0.5,0.2l0.6,0.4L26.5,58.2z M35.8,58.1l-0.9-0.5l0.2-0.4l0.9,0.5L35.8,58.1z M68.1,57.8
			l-0.9-0.5l0.2-0.4l0.9,0.5L68.1,57.8z M48.4,57.8l0-0.7l0-0.3l0.5,0l0,0.3l0,0.7L48.4,57.8z M76.5,57.2l-0.9-0.5l0.2-0.4l0.9,0.5
			L76.5,57.2z M43.7,57.2c0-0.3,0-0.7,0-1l0.5,0c0,0.3,0,0.7,0,1L43.7,57.2z M34,57.1l-0.9-0.5l0.2-0.4l0.9,0.5L34,57.1z M66.3,56.8
			l-0.9-0.5l0.2-0.4l0.9,0.5L66.3,56.8z M87.7,56.4c-0.1-0.3-0.3-0.6-0.4-0.9l0.5-0.2c0.1,0.3,0.3,0.6,0.4,0.9L87.7,56.4z
			 M74.7,56.2l-0.9-0.5l0.2-0.4l0.9,0.5L74.7,56.2z M32.3,56.1l-0.9-0.5l0.2-0.4l0.9,0.5L32.3,56.1z M64.6,55.8l-0.9-0.5l0.2-0.4
			l0.9,0.5L64.6,55.8z M48.9,55.8l-0.5,0c0-0.3,0-0.7,0-1l0.5,0C48.9,55.1,48.9,55.4,48.9,55.8z M43.7,55.2l0-1h0.5l0,1L43.7,55.2z
			 M30.6,55.1l-0.9-0.5l0.2-0.4l0.9,0.5L30.6,55.1z M73.2,54.8l-0.1-1l0.5-0.1l0.1,1L73.2,54.8z M62.9,54.8L62,54.3l0.2-0.4l0.9,0.5
			L62.9,54.8z M86.8,54.6c-0.1-0.3-0.3-0.6-0.4-0.9l0.4-0.2c0.1,0.3,0.3,0.6,0.4,0.9L86.8,54.6z M28.8,54.1L28,53.6l0.2-0.4l0.9,0.5
			L28.8,54.1z M61.1,53.8l-0.9-0.5l0.2-0.4l0.9,0.5L61.1,53.8z M48.9,53.8l-0.5,0c0-0.3,0-0.7,0-1l0.5,0
			C48.9,53.1,48.9,53.4,48.9,53.8z M44.2,53.2l-0.5,0c0-0.3,0-0.7,0-1l0.5,0C44.2,52.5,44.2,52.8,44.2,53.2z M27.1,53.1l-0.9-0.5
			l0.2-0.4l0.9,0.5L27.1,53.1z M73,52.8c0-0.3-0.1-0.7-0.1-1l0.5-0.1c0,0.3,0.1,0.7,0.1,1L73,52.8z M85.9,52.8
			c-0.2-0.3-0.3-0.6-0.5-0.9l0.4-0.2c0.2,0.3,0.3,0.6,0.5,0.9L85.9,52.8z M59.4,52.8l-0.9-0.5l0.2-0.4l0.9,0.5L59.4,52.8z
			 M68.6,52.7l-0.9-0.5l0.2-0.4l0.9,0.5L68.6,52.7z M50.6,52.2L50.5,52l0-0.2c0.4,0,0.6,0,0.9-0.1l0.1,0.5
			C51.3,52.2,50.9,52.2,50.6,52.2z M25.4,52.1l-0.9-0.5l0-0.1c-0.1-0.3-0.1-0.7-0.1-1l0.5-0.1c0,0.3,0.1,0.6,0.1,0.9l0.7,0.4
			L25.4,52.1z M49.5,52.1c-0.3-0.1-0.5-0.1-0.8-0.2l0-0.1l-0.2,0l0-0.5l0.3,0.1c0.3,0.1,0.5,0.2,0.8,0.2L49.5,52.1z M50.5,52l0-0.2
			L50.5,52z M57.7,51.8l-0.9-0.5l0.2-0.4l0.9,0.5L57.7,51.8z M52.6,51.7l-0.3-0.4c0.3-0.2,0.5-0.3,0.7-0.6l0.4,0.3
			C53.1,51.3,52.9,51.5,52.6,51.7z M66.9,51.7L66,51.2l0.2-0.4l0.9,0.5L66.9,51.7z M68.4,51.6c0-0.3-0.1-0.7-0.1-1l0.5-0.1
			c0,0.3,0.1,0.7,0.1,1L68.4,51.6z M44.2,51.2l-0.5,0l0-1l0.5,0L44.2,51.2z M85,51.1c-0.2-0.3-0.3-0.6-0.5-0.9l0.4-0.2
			c0.2,0.3,0.3,0.6,0.5,0.9L85,51.1z M72.7,50.9c0-0.3-0.1-0.7-0.1-1l0.5-0.1c0,0.3,0.1,0.7,0.1,1L72.7,50.9z M56,50.8l-0.9-0.5
			l0.2-0.4l0.9,0.5L56,50.8z M65.1,50.7l-0.9-0.5l0.2-0.4l0.9,0.5L65.1,50.7z M54,50.2l-0.4-0.2c0.1-0.2,0.2-0.4,0.3-0.6L54,49
			l0.5,0.3l-0.2,0.4l0,0C54.1,49.9,54.1,50,54,50.2z M63.4,49.7l-0.9-0.5l0.2-0.4l0.9,0.5L63.4,49.7z M68.2,49.6
			c0-0.3-0.1-0.7-0.1-1l0.5-0.1c0,0.3,0.1,0.7,0.1,1L68.2,49.6z M24.2,49.5c0-0.3-0.1-0.7-0.1-1l0.5-0.1c0,0.3,0.1,0.7,0.1,1
			L24.2,49.5z M84,49.3c-0.2-0.3-0.3-0.6-0.5-0.9l0.4-0.3c0.2,0.3,0.3,0.6,0.5,0.9L84,49.3z M44.3,49.2l-0.5,0l0-1l0.5,0L44.3,49.2z
			 M72.4,48.9c-0.1-0.3-0.1-0.7-0.2-1l0.5-0.1c0.1,0.3,0.1,0.7,0.2,1L72.4,48.9z M61.7,48.7l-0.9-0.5l0.2-0.4l0.9,0.5L61.7,48.7z
			 M59.9,47.7l-0.9-0.5l0.2-0.4l0.9,0.5L59.9,47.7z M67.9,47.6c-0.1-0.3-0.1-0.7-0.2-1l0.5-0.1c0.1,0.3,0.1,0.7,0.2,1L67.9,47.6z
			 M83,47.6c-0.2-0.3-0.3-0.6-0.5-0.9l0.4-0.3c0.2,0.3,0.4,0.6,0.5,0.9L83,47.6z M43.3,47.5c-0.2-0.3-0.4-0.5-0.6-0.8l0.4-0.3
			c0.2,0.3,0.4,0.5,0.6,0.8L43.3,47.5z M24,47.5c0-0.3-0.1-0.7-0.1-1l0.5,0c0,0.3,0,0.7,0.1,1L24,47.5z M72.1,46.9
			c-0.1-0.3-0.1-0.7-0.2-1l0.5-0.1c0.1,0.3,0.1,0.7,0.2,1L72.1,46.9z M58.2,46.7l-0.9-0.5l0.2-0.4l0.9,0.5L58.2,46.7z M48.8,46.1
			l-0.1-0.5c0.1,0,0.2-0.1,0.3-0.1c0.1-0.1,0.3-0.2,0.3-0.3l0.4,0.3c-0.1,0.2-0.3,0.4-0.5,0.5C49.1,46,49,46.1,48.8,46.1z M47.7,46
			c-0.3-0.1-0.6-0.3-0.9-0.6l0.3-0.4c0.3,0.2,0.5,0.4,0.8,0.5L47.7,46z M82,45.9c-0.2-0.2-0.3-0.5-0.5-0.7l-0.1-0.1l0.4-0.3l0.1,0.1
			c0.2,0.2,0.3,0.5,0.5,0.7L82,45.9z M42.2,45.8c-0.2-0.3-0.3-0.6-0.5-0.9l0.4-0.2c0.1,0.3,0.3,0.6,0.5,0.9L42.2,45.8z M56.5,45.7
			l-0.9-0.5l0.2-0.4l0.9,0.5L56.5,45.7z M67.5,45.6c-0.1-0.3-0.1-0.7-0.2-1l0.5-0.1c0.1,0.3,0.1,0.7,0.2,1L67.5,45.6z M23.8,45.5
			c0-0.3,0-0.7,0-1l0.5,0c0,0.3,0,0.7,0,1L23.8,45.5z M71.7,45c-0.1-0.3-0.1-0.7-0.2-1l0.5-0.1c0.1,0.3,0.1,0.7,0.2,1L71.7,45z
			 M54.7,44.7l-0.9-0.5L53.8,44l0.3-0.1l0.1-0.1l0.8,0.5L54.7,44.7z M46,44.7c-0.2-0.3-0.4-0.6-0.6-0.9l0.4-0.2
			c0.2,0.3,0.3,0.6,0.5,0.8L46,44.7z M50,44.4l-0.5,0l0-0.1c0-0.3,0-0.5-0.1-0.8l0.5-0.1c0.1,0.3,0.1,0.6,0.1,0.9L50,44.4z
			 M80.9,44.2c-0.2-0.3-0.4-0.6-0.6-0.8l0.4-0.3c0.2,0.3,0.4,0.6,0.6,0.8L80.9,44.2z M41.3,44c-0.1-0.3-0.3-0.6-0.4-0.9l0.5-0.2
			c0.1,0.3,0.2,0.6,0.4,0.9L41.3,44z M67.2,43.7c-0.1-0.3-0.1-0.7-0.2-1l0.5-0.1c0.1,0.3,0.1,0.7,0.2,1L67.2,43.7z M23.8,43.4
			c0-0.2,0-0.4,0-0.6l0-0.4l0.5,0l0,0.4c0,0.2,0,0.4,0,0.6L23.8,43.4z M53.5,43c-0.1-0.3-0.2-0.6-0.3-0.9l0.5-0.2
			c0.1,0.3,0.2,0.6,0.4,0.9L53.5,43z M71.3,43c-0.1-0.3-0.1-0.7-0.2-1l0.5-0.1c0.1,0.3,0.1,0.7,0.2,1L71.3,43z M45.1,42.8
			c-0.1-0.4-0.2-0.7-0.2-1l0.5,0c0,0.3,0.1,0.6,0.2,0.9L45.1,42.8z M79.8,42.6c-0.2-0.3-0.4-0.5-0.6-0.8l0.4-0.3
			c0.2,0.3,0.4,0.5,0.6,0.8L79.8,42.6z M49.1,42.5c-0.1-0.3-0.3-0.6-0.5-0.8l0.4-0.3c0.2,0.3,0.4,0.6,0.5,0.9L49.1,42.5z M40.6,42.1
			c0-0.1,0-0.1,0-0.2l-0.5-0.3l0.2-0.4l0.7,0.4l0,0.1c0,0.1,0,0.2,0.1,0.3L40.6,42.1z M66.8,41.7c-0.1-0.3-0.1-0.7-0.2-1l0.5-0.1
			c0.1,0.3,0.1,0.7,0.2,1L66.8,41.7z M24.3,41.4l-0.5,0c0-0.3,0-0.7,0-1l0.5,0C24.3,40.8,24.3,41.1,24.3,41.4z M52.8,41.2
			c-0.1-0.3-0.3-0.5-0.4-0.8l-0.1-0.1l0.4-0.2l0.1,0.1c0.1,0.3,0.3,0.5,0.4,0.8L52.8,41.2z M39.2,41.1l-0.9-0.5l0.2-0.4l0.9,0.5
			L39.2,41.1z M70.9,41.1c-0.1-0.3-0.1-0.7-0.2-1l0.5-0.1c0.1,0.3,0.2,0.6,0.2,1L70.9,41.1z M78.6,41c-0.2-0.3-0.4-0.5-0.6-0.8
			l0.4-0.3c0.2,0.3,0.4,0.5,0.6,0.8L78.6,41z M48.1,41c-0.2-0.2-0.5-0.4-0.7-0.6c-0.2-0.1-0.4-0.2-0.6-0.2l0.1-0.5
			c0.2,0.1,0.5,0.2,0.7,0.3c0.3,0.2,0.6,0.4,0.8,0.7L48.1,41z M45.5,40.8L45,40.7c0.1-0.4,0.4-0.7,0.7-0.9l0.2,0.4
			C45.7,40.3,45.5,40.6,45.5,40.8z M37.5,40.1l-0.9-0.5l0.2-0.4l0.9,0.5L37.5,40.1z M66.4,39.8c-0.1-0.3-0.1-0.7-0.2-1l0.5-0.1
			c0.1,0.3,0.2,0.6,0.2,1L66.4,39.8z M51.8,39.5c-0.2-0.3-0.4-0.6-0.6-0.8l0.4-0.3c0.2,0.3,0.4,0.6,0.6,0.8L51.8,39.5z M24.4,39.5
			l-0.5,0c0-0.3,0.1-0.7,0.1-1l0.5,0.1C24.4,38.8,24.4,39.1,24.4,39.5z M77.4,39.4c-0.2-0.3-0.4-0.5-0.6-0.8l0.4-0.3
			c0.2,0.3,0.4,0.5,0.6,0.8L77.4,39.4z M35.7,39.1l-0.9-0.5l0.2-0.4l0.9,0.5L35.7,39.1z M70.5,39.1c-0.1-0.3-0.2-0.6-0.2-1l0.5-0.1
			c0.1,0.3,0.2,0.6,0.2,1L70.5,39.1z M34,38.1l-0.9-0.5l0.2-0.4l0.9,0.5L34,38.1z M50.7,37.9c-0.2-0.2-0.4-0.4-0.6-0.7L50,37.1
			l0-0.1l0.3,0l0.1-0.1c0.2,0.2,0.4,0.4,0.6,0.7L50.7,37.9z M65.9,37.8c-0.1-0.3-0.2-0.6-0.2-1l0.5-0.1c0.1,0.3,0.2,0.6,0.2,1
			L65.9,37.8z M76.2,37.8c-0.2-0.3-0.4-0.5-0.6-0.8l0.4-0.3c0.2,0.3,0.4,0.5,0.6,0.8L76.2,37.8z M24.6,37.5l-0.5-0.1
			c0-0.3,0.1-0.7,0.1-1l0.5,0.1C24.7,36.8,24.6,37.2,24.6,37.5z M70,37.2c-0.1-0.3-0.2-0.6-0.3-1l0.5-0.1c0.1,0.3,0.2,0.6,0.3,1
			L70,37.2z M32.3,37.1l-0.9-0.5l0.2-0.4l0.9,0.5L32.3,37.1z M40.9,36.7l-0.7-0.4l0.2-0.4l0.2,0.1c0-0.1,0.1-0.1,0.1-0.2l0.4,0.2
			c-0.1,0.1-0.1,0.3-0.2,0.4L40.9,36.7z M74.9,36.3c-0.2-0.3-0.4-0.5-0.7-0.8l0.4-0.3c0.2,0.2,0.4,0.5,0.7,0.8L74.9,36.3z
			 M30.5,36.1l-0.9-0.5l0.2-0.4l0.9,0.5L30.5,36.1z M50.7,36l-0.5-0.1c0.1-0.3,0.1-0.7,0.2-1l0.5,0.1C50.9,35.4,50.8,35.7,50.7,36z
			 M65.4,35.9c-0.1-0.3-0.2-0.6-0.3-1l0.5-0.1c0.1,0.3,0.2,0.6,0.3,1L65.4,35.9z M39.4,35.8l-0.9-0.5l0.2-0.4l0.9,0.5L39.4,35.8z
			 M24.9,35.5l-0.5-0.1c0.1-0.3,0.1-0.7,0.2-1l0.5,0.1C25,34.9,25,35.2,24.9,35.5z M69.4,35.3c-0.1-0.3-0.2-0.6-0.3-1l0.5-0.1
			c0.1,0.3,0.2,0.6,0.3,1L69.4,35.3z M41.7,35.2l-0.4-0.3c0.2-0.3,0.5-0.5,0.8-0.7l0.3,0.4C42.2,34.8,41.9,35,41.7,35.2z M28.8,35.1
			l-0.9-0.5l0.2-0.4l0.9,0.5L28.8,35.1z M73.6,34.8c-0.2-0.2-0.4-0.5-0.7-0.7l0.4-0.3c0.2,0.2,0.5,0.5,0.7,0.7L73.6,34.8z
			 M37.6,34.8l-0.9-0.5l0.2-0.4l0.9,0.5L37.6,34.8z M45.8,34.3l-0.3-0.1c-0.1,0-0.3-0.1-0.4-0.1l0.1-0.5c0.1,0,0.1,0,0.2,0l0.1-0.3
			l0.5,0.1L45.8,34.3z M43.3,34.2l-0.1-0.5c0.3-0.1,0.7-0.2,1-0.2l0,0.5C43.9,34.1,43.5,34.1,43.3,34.2z M27.1,34.1l-0.9-0.5
			l0.2-0.4l0.9,0.5L27.1,34.1z M51.2,34.1L50.7,34c0.1-0.3,0.2-0.7,0.2-1l0.5,0.1C51.3,33.4,51.2,33.8,51.2,34.1z M64.9,34
			c-0.1-0.3-0.2-0.6-0.3-1l0.5-0.2c0.1,0.3,0.2,0.6,0.3,1L64.9,34z M35.9,33.8L35,33.3l0.2-0.4l0.9,0.5L35.9,33.8z M25.3,33.6
			l-0.5-0.1c0.1-0.3,0.1-0.5,0.2-0.8l0.1-0.3l0.5,0.3l-0.1,0.2l0,0C25.4,33.1,25.4,33.3,25.3,33.6z M72.2,33.3
			c-0.2-0.2-0.5-0.5-0.7-0.7l0.4-0.4c0.2,0.2,0.5,0.5,0.7,0.7L72.2,33.3z M68.9,33.3c-0.1-0.3-0.2-0.6-0.3-0.9l0.5-0.2
			c0.1,0.3,0.2,0.6,0.3,1L68.9,33.3z M34.2,32.8l-0.9-0.5l0.2-0.4l0.9,0.5L34.2,32.8z M46.1,32.5l-0.5-0.1c0.1-0.3,0.1-0.7,0.2-1
			l0.5,0.1C46.3,31.8,46.2,32.2,46.1,32.5z M51.7,32.2L51.2,32c0.1-0.3,0.2-0.7,0.3-1l0.5,0.1C51.9,31.5,51.8,31.8,51.7,32.2z
			 M64.3,32.1c-0.1-0.3-0.2-0.6-0.3-0.9l0.5-0.2c0.1,0.3,0.2,0.6,0.3,0.9L64.3,32.1z M70.8,31.9c-0.2-0.2-0.5-0.5-0.7-0.7l0.3-0.4
			c0.2,0.2,0.5,0.5,0.7,0.7L70.8,31.9z M32.4,31.8l-0.9-0.5l0.2-0.4l0.9,0.5L32.4,31.8z M68.2,31.5c-0.1-0.3-0.2-0.6-0.3-0.9
			l0.5-0.2c0.1,0.3,0.2,0.6,0.3,0.9L68.2,31.5z M30.7,30.8l-0.9-0.5l0.2-0.4l0.9,0.5L30.7,30.8z M69.4,30.5
			c-0.2-0.2-0.5-0.5-0.7-0.7l0.3-0.4c0.2,0.2,0.5,0.5,0.7,0.7L69.4,30.5z M46.6,30.5l-0.5-0.1c0.1-0.3,0.2-0.7,0.2-1l0.5,0.1
			C46.7,29.9,46.6,30.2,46.6,30.5z M52.3,30.3l-0.5-0.2c0.1-0.3,0.2-0.6,0.3-1l0.5,0.2C52.5,29.6,52.4,29.9,52.3,30.3z M63.6,30.2
			c-0.1-0.3-0.2-0.6-0.4-0.9l0.5-0.2c0.1,0.3,0.2,0.6,0.4,0.9L63.6,30.2z M29,29.8l-0.9-0.5l0.2-0.4l0.9,0.5L29,29.8z M67.5,29.6
			c-0.1-0.3-0.2-0.6-0.4-0.9l0.1,0c0,0-0.1-0.1-0.1-0.1l0.3-0.4c0.3,0.2,0.5,0.4,0.8,0.7l-0.3,0.4c0,0.1,0.1,0.1,0.1,0.2L67.5,29.6z
			 M27.3,28.8l-0.6-0.4l0.1-0.2c0.1-0.3,0.3-0.6,0.5-0.9l0.4,0.2c-0.1,0.2-0.2,0.4-0.3,0.7l0.2,0.1L27.3,28.8z M47,28.6l-0.5-0.1
			c0.1-0.3,0.2-0.7,0.3-1l0.5,0.1C47.2,28,47.1,28.3,47,28.6z M52.9,28.4l-0.5-0.2c0.1-0.3,0.3-0.6,0.4-0.9l0.5,0.2
			C53.2,27.8,53.1,28.1,52.9,28.4z M62.8,28.4c-0.1-0.3-0.3-0.6-0.4-0.9l0.5-0.2c0.1,0.3,0.3,0.6,0.4,0.9L62.8,28.4z M47.6,26.7
			l-0.5-0.2c0.1-0.3,0.2-0.6,0.3-1l0.5,0.2C47.8,26.1,47.7,26.4,47.6,26.7z M28.1,26.7l-0.4-0.3c0.2-0.3,0.4-0.6,0.5-0.9l0.4,0.3
			C28.4,26.1,28.3,26.4,28.1,26.7z M53.8,26.6l-0.4-0.2l0.1-0.3c0.1-0.2,0.2-0.4,0.3-0.6l0.4,0.3c-0.1,0.2-0.2,0.4-0.3,0.6
			L53.8,26.6z M62,26.6c-0.2-0.3-0.3-0.6-0.5-0.9l0.4-0.2c0.2,0.3,0.3,0.6,0.5,0.9L62,26.6z M29.2,25l-0.4-0.3
			c0.2-0.3,0.4-0.5,0.6-0.8l0.4,0.3C29.6,24.5,29.4,24.8,29.2,25z M54.8,24.9l-0.4-0.3c0.2-0.3,0.4-0.6,0.6-0.8l0.4,0.3
			C55.1,24.4,54.9,24.6,54.8,24.9z M61,24.9c-0.2-0.3-0.4-0.6-0.6-0.8l0.4-0.3c0.2,0.2,0.4,0.5,0.6,0.8L61,24.9z M48.2,24.8
			l-0.5-0.2c0.1-0.3,0.2-0.6,0.4-0.9l0.5,0.2C48.5,24.2,48.4,24.5,48.2,24.8z M30.4,23.5l-0.4-0.3c0.2-0.2,0.5-0.5,0.7-0.7l0.3,0.4
			C30.9,23.1,30.7,23.3,30.4,23.5z M56,23.4l-0.3-0.4c0.3-0.2,0.6-0.5,0.8-0.6l0.2,0.4C56.5,23,56.3,23.2,56,23.4z M59.8,23.4
			c-0.2-0.2-0.5-0.4-0.7-0.6l0.2-0.4c0.3,0.2,0.6,0.4,0.8,0.6L59.8,23.4z M49,23l-0.5-0.2c0.1-0.3,0.3-0.6,0.4-0.9l0.4,0.2
			C49.3,22.4,49.1,22.7,49,23z M58.5,22.6c-0.3-0.1-0.6-0.1-0.9,0L57.5,22c0.4-0.1,0.7-0.1,1.1,0L58.5,22.6z M31.9,22.2l-0.3-0.4
			c0.3-0.2,0.5-0.4,0.8-0.6l0.3,0.4C32.4,21.7,32.1,21.9,31.9,22.2z M49.9,21.2L49.4,21c0.2-0.3,0.3-0.6,0.5-0.9l0.4,0.3
			C50.2,20.6,50,20.9,49.9,21.2z M33.4,21l-0.3-0.4c0.3-0.2,0.6-0.4,0.9-0.5l0.3,0.4C34,20.6,33.7,20.8,33.4,21z M35.1,20l-0.2-0.4
			c0.3-0.2,0.6-0.3,0.9-0.4l0.2,0.5C35.7,19.7,35.4,19.8,35.1,20z M50.9,19.5l-0.4-0.3c0,0,0.1-0.1,0.1-0.1c0,0-0.1,0-0.1,0l0.1-0.5
			c0.1,0,0.3,0.1,0.4,0.1l0.4,0.1l-0.2,0.3C51.1,19.3,51,19.4,50.9,19.5z M36.9,19.2l-0.2-0.5c0.3-0.1,0.6-0.2,1-0.3l0.1,0.5
			C37.5,18.9,37.2,19,36.9,19.2z M49.6,18.8c-0.3-0.1-0.6-0.2-1-0.2l0.1-0.5c0.3,0.1,0.7,0.1,1,0.2L49.6,18.8z M38.8,18.6l-0.1-0.5
			c0.3-0.1,0.7-0.2,1-0.2l0.1,0.5C39.4,18.4,39.1,18.5,38.8,18.6z M47.6,18.4c-0.3-0.1-0.7-0.1-1-0.2l0.1-0.5c0.3,0,0.7,0.1,1,0.2
			L47.6,18.4z M40.7,18.2l-0.1-0.5c0.3,0,0.7-0.1,1-0.1l0,0.5C41.4,18.1,41.1,18.2,40.7,18.2z M45.7,18.1c-0.3,0-0.7-0.1-1-0.1
			l0-0.5c0.3,0,0.7,0,1,0.1L45.7,18.1z M42.7,18l0-0.5c0.3,0,0.5,0,0.8,0l0.2,0l0,0.5l-0.2,0C43.2,18,43,18,42.7,18z"/>
	</g>
</g>
</svg>
