<?xml version="1.0" encoding="utf-8"?>
<!-- Generator: Adobe Illustrator 26.4.1, SVG Export Plug-In . SVG Version: 6.00 Build 0)  -->
<svg version="1.1" id="图层_1" xmlns="http://www.w3.org/2000/svg" xmlns:xlink="http://www.w3.org/1999/xlink" x="0px" y="0px"
	 viewBox="0 0 143 152" style="enable-background:new 0 0 143 152;" xml:space="preserve">
<style type="text/css">
	.st0{opacity:0.1;}
	.st1{fill:#FFFFFF;}
	.st2{fill:#D1D1D1;}
	.st3{opacity:0.3;}
	.st4{fill:#4C67EF;}
	.st5{fill:#6674A6;}
</style>
<g>
	<g>
		<g class="st0">
			<path class="st1" d="M133.9,100.2l-53.8-31c-4.8-2.8-12.5-2.8-17.3,0L8.7,100.4c-4.8,2.8-4.8,7.2,0,10l53.8,31
				c4.8,2.8,12.5,2.8,17.3,0l54.1-31.2C138.7,107.5,138.7,103,133.9,100.2z"/>
		</g>
		<g>
			<path class="st2" d="M71.1,143.8c-0.2,0-0.4,0-0.6,0l0-0.5c0.3,0,0.7,0,1,0l0,0.5C71.4,143.8,71.2,143.8,71.1,143.8z M72.5,143.7
				l0-0.5c0.3,0,0.7-0.1,1-0.1l0.1,0.5C73.2,143.7,72.9,143.7,72.5,143.7z M69.5,143.7c-0.3,0-0.7-0.1-1-0.1l0.1-0.5
				c0.3,0,0.7,0.1,1,0.1L69.5,143.7z M74.5,143.5l-0.1-0.5c0.3-0.1,0.7-0.1,1-0.2l0.1,0.5C75.2,143.4,74.9,143.5,74.5,143.5z
				 M67.5,143.5c-0.3-0.1-0.7-0.1-1-0.2l0.1-0.5c0.3,0.1,0.6,0.1,1,0.2L67.5,143.5z M76.5,143.1l-0.1-0.5c0.3-0.1,0.6-0.2,0.9-0.3
				l0.2,0.5C77.2,142.9,76.8,143,76.5,143.1z M65.5,143c-0.3-0.1-0.6-0.2-1-0.3l0.2-0.5c0.3,0.1,0.6,0.2,0.9,0.3L65.5,143z
				 M78.4,142.4l-0.2-0.5c0.3-0.1,0.6-0.3,0.9-0.4l0.2,0.4C79.1,142.1,78.7,142.3,78.4,142.4z M63.6,142.3c-0.3-0.1-0.6-0.3-0.9-0.4
				l0.2-0.4c0.3,0.2,0.6,0.3,0.9,0.4L63.6,142.3z M80.2,141.5L80,141l0.9-0.5l0.2,0.4L80.2,141.5z M61.8,141.4l-0.9-0.5l0.2-0.4
				l0.9,0.5L61.8,141.4z M82,140.5l-0.2-0.4l0.9-0.5l0.2,0.4L82,140.5z M60.1,140.4l-0.9-0.5l0.2-0.4l0.9,0.5L60.1,140.4z
				 M83.7,139.5l-0.2-0.4l0.9-0.5l0.2,0.4L83.7,139.5z M58.3,139.4l-0.9-0.5l0.2-0.4l0.9,0.5L58.3,139.4z M85.4,138.5l-0.2-0.4
				l0.9-0.5l0.2,0.4L85.4,138.5z M56.6,138.4l-0.9-0.5l0.2-0.4l0.9,0.5L56.6,138.4z M87.2,137.5l-0.2-0.4l0.9-0.5L88,137L87.2,137.5
				z M54.9,137.4l-0.9-0.5l0.2-0.4l0.9,0.5L54.9,137.4z M88.9,136.5l-0.2-0.4l0.9-0.5l0.2,0.4L88.9,136.5z M53.1,136.4l-0.9-0.5
				l0.2-0.4l0.9,0.5L53.1,136.4z M90.6,135.5l-0.2-0.4l0.9-0.5l0.2,0.4L90.6,135.5z M51.4,135.4l-0.9-0.5l0.2-0.4l0.9,0.5
				L51.4,135.4z M92.4,134.5l-0.2-0.4l0.9-0.5l0.2,0.4L92.4,134.5z M49.7,134.4l-0.9-0.5l0.2-0.4l0.9,0.5L49.7,134.4z M94.1,133.5
				l-0.2-0.4l0.9-0.5L95,133L94.1,133.5z M47.9,133.4l-0.9-0.5l0.2-0.4l0.9,0.5L47.9,133.4z M95.8,132.5l-0.2-0.4l0.9-0.5l0.2,0.4
				L95.8,132.5z M46.2,132.4l-0.9-0.5l0.2-0.4l0.9,0.5L46.2,132.4z M97.6,131.5l-0.2-0.4l0.9-0.5l0.2,0.4L97.6,131.5z M44.5,131.4
				l-0.9-0.5l0.2-0.4l0.9,0.5L44.5,131.4z M99.3,130.5L99,130l0.9-0.5l0.2,0.4L99.3,130.5z M42.8,130.4l-0.9-0.5l0.2-0.4L43,130
				L42.8,130.4z M101,129.5l-0.2-0.4l0.9-0.5l0.2,0.4L101,129.5z M41,129.4l-0.9-0.5l0.2-0.4l0.9,0.5L41,129.4z M102.8,128.5
				l-0.2-0.4l0.9-0.5l0.2,0.4L102.8,128.5z M39.3,128.4l-0.9-0.5l0.2-0.4l0.9,0.5L39.3,128.4z M104.5,127.5l-0.2-0.4l0.9-0.5
				l0.2,0.4L104.5,127.5z M37.6,127.4l-0.9-0.5l0.2-0.4l0.9,0.5L37.6,127.4z M106.2,126.5L106,126l0.9-0.5l0.2,0.4L106.2,126.5z
				 M35.8,126.4l-0.9-0.5l0.2-0.4l0.9,0.5L35.8,126.4z M108,125.5l-0.2-0.4l0.9-0.5l0.2,0.4L108,125.5z M34.1,125.4l-0.9-0.5
				l0.2-0.4l0.9,0.5L34.1,125.4z M109.7,124.5l-0.2-0.4l0.9-0.5l0.2,0.4L109.7,124.5z M32.4,124.4l-0.9-0.5l0.2-0.4l0.9,0.5
				L32.4,124.4z M111.4,123.5l-0.2-0.4l0.9-0.5l0.2,0.4L111.4,123.5z M30.6,123.4l-0.9-0.5l0.2-0.4l0.9,0.5L30.6,123.4z
				 M113.1,122.5l-0.2-0.4l0.9-0.5l0.2,0.4L113.1,122.5z M28.9,122.4l-0.9-0.5l0.2-0.4l0.9,0.5L28.9,122.4z M114.9,121.5l-0.2-0.4
				l0.9-0.5l0.2,0.4L114.9,121.5z M27.2,121.4l-0.9-0.5l0.2-0.4l0.9,0.5L27.2,121.4z M116.6,120.5l-0.2-0.4l0.9-0.5l0.2,0.4
				L116.6,120.5z M25.4,120.4l-0.9-0.5l0.2-0.4l0.9,0.5L25.4,120.4z M118.3,119.5l-0.2-0.4l0.9-0.5l0.2,0.4L118.3,119.5z
				 M23.7,119.4l-0.9-0.5l0.2-0.4l0.9,0.5L23.7,119.4z M120.1,118.5l-0.2-0.4l0.9-0.5l0.2,0.4L120.1,118.5z M22,118.4l-0.9-0.5
				l0.2-0.4l0.9,0.5L22,118.4z M121.8,117.5l-0.2-0.4l0.9-0.5l0.2,0.4L121.8,117.5z M20.2,117.4l-0.9-0.5l0.2-0.4l0.9,0.5
				L20.2,117.4z M123.5,116.5l-0.2-0.4l0.9-0.5l0.2,0.4L123.5,116.5z M18.5,116.4l-0.9-0.5l0.2-0.4l0.9,0.5L18.5,116.4z
				 M125.3,115.5L125,115l0.9-0.5l0.2,0.4L125.3,115.5z M16.8,115.4l-0.9-0.5l0.2-0.4L17,115L16.8,115.4z M127,114.5l-0.2-0.4
				l0.9-0.5l0.2,0.4L127,114.5z M15,114.4l-0.9-0.5l0.2-0.4l0.9,0.5L15,114.4z M128.7,113.5l-0.2-0.4l0.9-0.5l0.2,0.4L128.7,113.5z
				 M13.3,113.4l-0.9-0.5l0.2-0.4l0.9,0.5L13.3,113.4z M130.5,112.5l-0.2-0.4l0.9-0.5l0.2,0.4L130.5,112.5z M11.6,112.4l-0.9-0.5
				l0.2-0.4l0.9,0.5L11.6,112.4z M132.2,111.5l-0.2-0.4l0.9-0.5l0.2,0.4L132.2,111.5z M9.8,111.4L9,110.9l0.2-0.4l0.9,0.5L9.8,111.4
				z M133.9,110.5l-0.3-0.4l0.1,0c0.3-0.2,0.5-0.3,0.8-0.5l0.3,0.4C134.5,110.1,134.3,110.3,133.9,110.5L133.9,110.5z M8.1,110.4
				c-0.3-0.2-0.6-0.4-0.8-0.6l0.3-0.4c0.2,0.2,0.5,0.4,0.8,0.6L8.1,110.4z M135.6,109.3l-0.3-0.4c0.2-0.2,0.5-0.4,0.7-0.7l0.4,0.3
				C136.1,108.8,135.9,109.1,135.6,109.3z M6.5,109.1c-0.2-0.3-0.5-0.5-0.7-0.8l0.4-0.3c0.2,0.3,0.4,0.5,0.6,0.7L6.5,109.1z
				 M137,107.7l-0.4-0.3c0.2-0.3,0.3-0.6,0.4-0.9l0.5,0.2C137.3,107.1,137.1,107.4,137,107.7z M5.3,107.4c-0.2-0.3-0.3-0.7-0.4-1
				l0.5-0.1c0.1,0.3,0.2,0.6,0.3,0.9L5.3,107.4z M137.7,105.8l-0.5-0.1c0-0.2,0-0.3,0-0.5c0-0.1,0-0.3,0-0.4l0.5-0.1
				c0,0.2,0,0.3,0,0.5C137.7,105.4,137.7,105.6,137.7,105.8z M5.3,105.4l-0.5,0c0-0.3,0-0.7,0.1-1l0.5,0.1
				C5.4,104.8,5.3,105.1,5.3,105.4z M137,103.9c-0.1-0.3-0.2-0.6-0.4-0.9l0.4-0.3c0.2,0.3,0.3,0.6,0.5,0.9L137,103.9z M5.8,103.6
				l-0.4-0.2c0.1-0.3,0.3-0.6,0.6-0.9l0.4,0.3C6.1,103,5.9,103.3,5.8,103.6z M136,102.2c-0.2-0.2-0.4-0.5-0.7-0.7l0.3-0.4
				c0.3,0.2,0.5,0.5,0.7,0.7L136,102.2z M6.9,102l-0.4-0.4c0.2-0.2,0.5-0.5,0.8-0.7l0.3,0.4C7.4,101.6,7.1,101.8,6.9,102z
				 M134.6,101c-0.3-0.2-0.5-0.4-0.8-0.5l-0.9-0.5l0.2-0.4l0.9,0.5c0.3,0.2,0.6,0.4,0.8,0.5L134.6,101z M8.4,100.8l-0.3-0.4
				c0.1-0.1,0.2-0.1,0.4-0.2l0.5-0.3l0.2,0.4l-0.5,0.3C8.7,100.7,8.6,100.8,8.4,100.8z M10.2,99.8l-0.2-0.4l0.9-0.5l0.2,0.4
				L10.2,99.8z M132,99.4l-0.9-0.5l0.2-0.4l0.9,0.5L132,99.4z M11.9,98.8l-0.2-0.4l0.9-0.5l0.2,0.4L11.9,98.8z M130.3,98.4l-0.9-0.5
				l0.2-0.4l0.9,0.5L130.3,98.4z M13.6,97.8l-0.2-0.4l0.9-0.5l0.2,0.4L13.6,97.8z M128.6,97.4l-0.9-0.5l0.2-0.4l0.9,0.5L128.6,97.4z
				 M15.4,96.8l-0.2-0.4l0.9-0.5l0.2,0.4L15.4,96.8z M126.8,96.4l-0.9-0.5l0.2-0.4l0.9,0.5L126.8,96.4z M17.1,95.8l-0.2-0.4l0.9-0.5
				l0.2,0.4L17.1,95.8z M125.1,95.4l-0.9-0.5l0.2-0.4l0.9,0.5L125.1,95.4z M18.8,94.8l-0.2-0.4l0.9-0.5l0.2,0.4L18.8,94.8z
				 M123.4,94.4l-0.9-0.5l0.2-0.4l0.9,0.5L123.4,94.4z M20.6,93.8l-0.2-0.4l0.9-0.5l0.2,0.4L20.6,93.8z M121.6,93.4l-0.9-0.5
				l0.2-0.4l0.9,0.5L121.6,93.4z M22.3,92.8L22,92.4l0.9-0.5l0.2,0.4L22.3,92.8z M119.9,92.4l-0.9-0.5l0.2-0.4l0.9,0.5L119.9,92.4z
				 M24,91.8l-0.2-0.4l0.9-0.5l0.2,0.4L24,91.8z M118.2,91.4l-0.9-0.5l0.2-0.4l0.9,0.5L118.2,91.4z M25.8,90.8l-0.2-0.4l0.9-0.5
				l0.2,0.4L25.8,90.8z M116.4,90.4l-0.9-0.5l0.2-0.4l0.9,0.5L116.4,90.4z M27.5,89.8l-0.2-0.4l0.9-0.5l0.2,0.4L27.5,89.8z
				 M114.7,89.4l-0.9-0.5l0.2-0.4L115,89L114.7,89.4z M29.2,88.8L29,88.4l0.9-0.5l0.2,0.4L29.2,88.8z M113,88.4l-0.9-0.5l0.2-0.4
				l0.9,0.5L113,88.4z M31,87.8l-0.2-0.4l0.9-0.5l0.2,0.4L31,87.8z M111.2,87.4l-0.9-0.5l0.2-0.4l0.9,0.5L111.2,87.4z M32.7,86.8
				l-0.2-0.4l0.9-0.5l0.2,0.4L32.7,86.8z M109.5,86.4l-0.9-0.5l0.2-0.4l0.9,0.5L109.5,86.4z M34.4,85.8l-0.2-0.4l0.9-0.5l0.2,0.4
				L34.4,85.8z M107.8,85.4l-0.9-0.5l0.2-0.4L108,85L107.8,85.4z M36.1,84.8l-0.2-0.4l0.9-0.5l0.2,0.4L36.1,84.8z M106,84.4
				l-0.9-0.5l0.2-0.4l0.9,0.5L106,84.4z M37.9,83.8l-0.2-0.4l0.9-0.5l0.2,0.4L37.9,83.8z M104.3,83.4l-0.9-0.5l0.2-0.4l0.9,0.5
				L104.3,83.4z M39.6,82.8l-0.2-0.4l0.9-0.5l0.2,0.4L39.6,82.8z M102.6,82.4l-0.9-0.5l0.2-0.4l0.9,0.5L102.6,82.4z M41.3,81.8
				l-0.2-0.4l0.9-0.5l0.2,0.4L41.3,81.8z M100.8,81.4l-0.9-0.5l0.2-0.4l0.9,0.5L100.8,81.4z M43.1,80.8l-0.2-0.4l0.9-0.5l0.2,0.4
				L43.1,80.8z M99.1,80.4l-0.9-0.5l0.2-0.4l0.9,0.5L99.1,80.4z M44.8,79.8l-0.2-0.4l0.9-0.5l0.2,0.4L44.8,79.8z M97.4,79.4
				l-0.9-0.5l0.2-0.4l0.9,0.5L97.4,79.4z M46.5,78.8l-0.2-0.4l0.9-0.5l0.2,0.4L46.5,78.8z M95.6,78.4l-0.9-0.5l0.2-0.4l0.9,0.5
				L95.6,78.4z M48.3,77.8L48,77.4l0.9-0.5l0.2,0.4L48.3,77.8z M93.9,77.4l-0.9-0.5l0.2-0.4l0.9,0.5L93.9,77.4z M50,76.8l-0.2-0.4
				l0.9-0.5l0.2,0.4L50,76.8z M92.2,76.4l-0.9-0.5l0.2-0.4l0.9,0.5L92.2,76.4z M51.7,75.8l-0.2-0.4l0.9-0.5l0.2,0.4L51.7,75.8z
				 M90.5,75.4l-0.9-0.5l0.2-0.4l0.9,0.5L90.5,75.4z M53.5,74.8l-0.2-0.4l0.9-0.5l0.2,0.4L53.5,74.8z M88.7,74.4l-0.9-0.5l0.2-0.4
				L89,74L88.7,74.4z M55.2,73.8L55,73.4l0.9-0.5l0.2,0.4L55.2,73.8z M87,73.4l-0.9-0.5l0.2-0.4l0.9,0.5L87,73.4z M56.9,72.8
				l-0.2-0.4l0.9-0.5l0.2,0.4L56.9,72.8z M85.3,72.4l-0.9-0.5l0.2-0.4l0.9,0.5L85.3,72.4z M58.7,71.8l-0.2-0.4l0.9-0.5l0.2,0.4
				L58.7,71.8z M83.5,71.4l-0.9-0.5l0.2-0.4l0.9,0.5L83.5,71.4z M60.4,70.8l-0.2-0.4l0.9-0.5l0.2,0.4L60.4,70.8z M81.8,70.4
				l-0.9-0.5l0.2-0.4L82,70L81.8,70.4z M62.1,69.8l-0.2-0.4l0.9-0.5l0.2,0.4L62.1,69.8z M80.1,69.4L80.1,69.4
				c-0.3-0.2-0.6-0.3-0.9-0.5l0.2-0.5c0.3,0.1,0.5,0.3,0.8,0.4l0.1,0L80.1,69.4z M63.9,68.9l-0.2-0.5c0.3-0.1,0.6-0.3,0.9-0.4
				l0.2,0.5C64.5,68.6,64.2,68.8,63.9,68.9z M78.3,68.6c-0.3-0.1-0.6-0.2-0.9-0.3l0.2-0.5c0.3,0.1,0.6,0.2,1,0.3L78.3,68.6z
				 M65.7,68.2l-0.1-0.5c0.3-0.1,0.6-0.2,1-0.3l0.1,0.5C66.3,68,66,68.1,65.7,68.2z M76.4,68c-0.3-0.1-0.6-0.2-1-0.2l0.1-0.5
				c0.3,0.1,0.7,0.1,1,0.2L76.4,68z M67.6,67.7l-0.1-0.5c0.3-0.1,0.7-0.1,1-0.2l0.1,0.5C68.3,67.6,67.9,67.6,67.6,67.7z M74.5,67.6
				c-0.3,0-0.7-0.1-1-0.1l0-0.5c0.3,0,0.7,0.1,1,0.1L74.5,67.6z M69.6,67.4l0-0.5c0.3,0,0.7-0.1,1-0.1l0,0.5
				C70.2,67.4,69.9,67.4,69.6,67.4z M72.5,67.4c-0.3,0-0.7,0-1,0l0-0.5c0.3,0,0.7,0,1,0L72.5,67.4z"/>
		</g>
	</g>
	<g>
		<g class="st3">
			<path class="st1" d="M133.9,92.1L80.1,61c-4.8-2.8-12.5-2.8-17.3,0L8.7,92.2c-4.8,2.8-4.8,7.2,0,10l53.8,31.1
				c4.8,2.8,12.5,2.8,17.3,0l54.1-31.2C138.7,99.3,138.7,94.8,133.9,92.1z"/>
		</g>
		<g>
			<path class="st2" d="M71.1,135.6c-0.2,0-0.4,0-0.6,0l0-0.5c0.2,0,0.4,0,0.6,0l0.4,0l0,0.5L71.1,135.6z M72.5,135.6l0-0.5
				c0.3,0,0.7-0.1,1-0.1l0.1,0.5C73.2,135.5,72.9,135.6,72.5,135.6z M69.5,135.6c-0.3,0-0.7-0.1-1-0.1l0.1-0.5c0.3,0,0.7,0.1,1,0.1
				L69.5,135.6z M74.5,135.3l-0.1-0.5c0.3-0.1,0.7-0.1,1-0.2l0.1,0.5C75.2,135.2,74.9,135.3,74.5,135.3z M67.5,135.3
				c-0.3-0.1-0.7-0.1-1-0.2l0.1-0.5c0.3,0.1,0.6,0.1,1,0.2L67.5,135.3z M76.5,134.9l-0.1-0.5c0.3-0.1,0.6-0.2,0.9-0.3l0.2,0.5
				C77.2,134.7,76.8,134.8,76.5,134.9z M65.5,134.8c-0.3-0.1-0.6-0.2-1-0.3l0.2-0.5c0.3,0.1,0.6,0.2,0.9,0.3L65.5,134.8z
				 M78.4,134.2l-0.2-0.5c0.3-0.1,0.6-0.3,0.9-0.4l0.2,0.4C79.1,134,78.7,134.1,78.4,134.2z M63.6,134.1c-0.3-0.1-0.6-0.3-0.9-0.4
				l0.2-0.4c0.3,0.2,0.6,0.3,0.9,0.4L63.6,134.1z M80.2,133.3l-0.2-0.4l0.9-0.5l0.2,0.4L80.2,133.3z M61.8,133.2l-0.9-0.5l0.2-0.4
				l0.9,0.5L61.8,133.2z M82,132.3l-0.2-0.4l0.9-0.5l0.2,0.4L82,132.3z M60.1,132.2l-0.9-0.5l0.2-0.4l0.9,0.5L60.1,132.2z
				 M83.7,131.3l-0.2-0.4l0.9-0.5l0.2,0.4L83.7,131.3z M58.3,131.2l-0.9-0.5l0.2-0.4l0.9,0.5L58.3,131.2z M85.4,130.3l-0.2-0.4
				l0.9-0.5l0.2,0.4L85.4,130.3z M56.6,130.2l-0.9-0.5l0.2-0.4l0.9,0.5L56.6,130.2z M87.2,129.3l-0.2-0.4l0.9-0.5l0.2,0.4
				L87.2,129.3z M54.9,129.2l-0.9-0.5l0.2-0.4l0.9,0.5L54.9,129.2z M88.9,128.3l-0.2-0.4l0.9-0.5l0.2,0.4L88.9,128.3z M53.1,128.2
				l-0.9-0.5l0.2-0.4l0.9,0.5L53.1,128.2z M90.6,127.3l-0.2-0.4l0.9-0.5l0.2,0.4L90.6,127.3z M51.4,127.2l-0.9-0.5l0.2-0.4l0.9,0.5
				L51.4,127.2z M92.4,126.3l-0.2-0.4l0.9-0.5l0.2,0.4L92.4,126.3z M49.7,126.2l-0.9-0.5l0.2-0.4l0.9,0.5L49.7,126.2z M94.1,125.3
				l-0.2-0.4l0.9-0.5l0.2,0.4L94.1,125.3z M47.9,125.2l-0.9-0.5l0.2-0.4l0.9,0.5L47.9,125.2z M95.8,124.3l-0.2-0.4l0.9-0.5l0.2,0.4
				L95.8,124.3z M46.2,124.2l-0.9-0.5l0.2-0.4l0.9,0.5L46.2,124.2z M97.6,123.3l-0.2-0.4l0.9-0.5l0.2,0.4L97.6,123.3z M44.5,123.2
				l-0.9-0.5l0.2-0.4l0.9,0.5L44.5,123.2z M99.3,122.3l-0.2-0.4l0.9-0.5l0.2,0.4L99.3,122.3z M42.8,122.2l-0.9-0.5l0.2-0.4l0.9,0.5
				L42.8,122.2z M101,121.3l-0.2-0.4l0.9-0.5l0.2,0.4L101,121.3z M41,121.2l-0.9-0.5l0.2-0.4l0.9,0.5L41,121.2z M102.8,120.3
				l-0.2-0.4l0.9-0.5l0.2,0.4L102.8,120.3z M39.3,120.2l-0.9-0.5l0.2-0.4l0.9,0.5L39.3,120.2z M104.5,119.3l-0.2-0.4l0.9-0.5
				l0.2,0.4L104.5,119.3z M37.6,119.2l-0.9-0.5l0.2-0.4l0.9,0.5L37.6,119.2z M106.2,118.3l-0.2-0.4l0.9-0.5l0.2,0.4L106.2,118.3z
				 M35.8,118.2l-0.9-0.5l0.2-0.4l0.9,0.5L35.8,118.2z M108,117.3l-0.2-0.4l0.9-0.5l0.2,0.4L108,117.3z M34.1,117.2l-0.9-0.5
				l0.2-0.4l0.9,0.5L34.1,117.2z M109.7,116.3l-0.2-0.4l0.9-0.5l0.2,0.4L109.7,116.3z M32.4,116.2l-0.9-0.5l0.2-0.4l0.9,0.5
				L32.4,116.2z M111.4,115.3l-0.2-0.4l0.9-0.5l0.2,0.4L111.4,115.3z M30.6,115.2l-0.9-0.5l0.2-0.4l0.9,0.5L30.6,115.2z
				 M113.1,114.3l-0.2-0.4l0.9-0.5l0.2,0.4L113.1,114.3z M28.9,114.2l-0.9-0.5l0.2-0.4l0.9,0.5L28.9,114.2z M114.9,113.3l-0.2-0.4
				l0.9-0.5l0.2,0.4L114.9,113.3z M27.2,113.2l-0.9-0.5l0.2-0.4l0.9,0.5L27.2,113.2z M116.6,112.3l-0.2-0.4l0.9-0.5l0.2,0.4
				L116.6,112.3z M25.4,112.2l-0.9-0.5l0.2-0.4l0.9,0.5L25.4,112.2z M118.3,111.3l-0.2-0.4l0.9-0.5l0.2,0.4L118.3,111.3z
				 M23.7,111.2l-0.9-0.5l0.2-0.4l0.9,0.5L23.7,111.2z M120.1,110.3l-0.2-0.4l0.9-0.5l0.2,0.4L120.1,110.3z M22,110.2l-0.9-0.5
				l0.2-0.4l0.9,0.5L22,110.2z M121.8,109.3l-0.2-0.4l0.9-0.5l0.2,0.4L121.8,109.3z M20.2,109.2l-0.9-0.5l0.2-0.4l0.9,0.5
				L20.2,109.2z M123.5,108.3l-0.2-0.4l0.9-0.5l0.2,0.4L123.5,108.3z M18.5,108.2l-0.9-0.5l0.2-0.4l0.9,0.5L18.5,108.2z
				 M125.3,107.3l-0.2-0.4l0.9-0.5l0.2,0.4L125.3,107.3z M16.8,107.2l-0.9-0.5l0.2-0.4l0.9,0.5L16.8,107.2z M127,106.3l-0.2-0.4
				l0.9-0.5l0.2,0.4L127,106.3z M15,106.2l-0.9-0.5l0.2-0.4l0.9,0.5L15,106.2z M128.7,105.3l-0.2-0.4l0.9-0.5l0.2,0.4L128.7,105.3z
				 M13.3,105.2l-0.9-0.5l0.2-0.4l0.9,0.5L13.3,105.2z M130.5,104.3l-0.2-0.4l0.9-0.5l0.2,0.4L130.5,104.3z M11.6,104.2l-0.9-0.5
				l0.2-0.4l0.9,0.5L11.6,104.2z M132.2,103.3l-0.2-0.4l0.9-0.5l0.2,0.4L132.2,103.3z M9.8,103.2L9,102.7l0.2-0.4l0.9,0.5L9.8,103.2
				z M133.9,102.3l-0.2-0.4l0.1,0c0.3-0.2,0.5-0.3,0.8-0.5l0.3,0.4C134.5,102,134.3,102.1,133.9,102.3L133.9,102.3z M8.1,102.2
				c-0.3-0.2-0.6-0.4-0.8-0.6l0.3-0.4c0.2,0.2,0.5,0.4,0.8,0.6L8.1,102.2z M135.6,101.2l-0.3-0.4c0.2-0.2,0.5-0.4,0.7-0.7l0.4,0.3
				C136.1,100.7,135.9,100.9,135.6,101.2z M6.5,100.9c-0.2-0.3-0.5-0.5-0.7-0.8l0.4-0.3c0.2,0.3,0.4,0.5,0.6,0.7L6.5,100.9z
				 M137,99.6l-0.4-0.3c0.2-0.3,0.3-0.6,0.4-0.9l0.5,0.2C137.3,99,137.2,99.3,137,99.6z M5.3,99.2c-0.2-0.3-0.3-0.7-0.4-1l0.5-0.1
				c0.1,0.3,0.2,0.6,0.3,0.9L5.3,99.2z M137.7,97.6l-0.5-0.1c0-0.2,0-0.3,0-0.5c0-0.1,0-0.3,0-0.4l0.5-0.1c0,0.2,0,0.3,0,0.5
				C137.7,97.3,137.7,97.4,137.7,97.6z M5.3,97.2l-0.5,0c0-0.3,0.1-0.7,0.1-1l0.5,0.1C5.4,96.6,5.3,96.9,5.3,97.2z M137,95.7
				c-0.1-0.3-0.2-0.6-0.4-0.9l0.4-0.3c0.2,0.3,0.3,0.6,0.5,0.9L137,95.7z M5.8,95.4l-0.4-0.2c0.2-0.3,0.3-0.6,0.6-0.9l0.4,0.3
				C6.1,94.8,5.9,95.1,5.8,95.4z M136,94.1c-0.2-0.2-0.4-0.5-0.7-0.7l0.3-0.4c0.3,0.2,0.5,0.5,0.7,0.7L136,94.1z M6.9,93.8l-0.4-0.4
				c0.2-0.2,0.5-0.5,0.8-0.7l0.3,0.4C7.4,93.4,7.1,93.6,6.9,93.8z M134.6,92.8c-0.2-0.2-0.5-0.3-0.8-0.5l-0.9-0.5l0.2-0.4l0.9,0.5
				c0.3,0.2,0.6,0.4,0.8,0.5L134.6,92.8z M8.4,92.6l-0.3-0.4c0.1-0.1,0.2-0.1,0.4-0.2l0.5-0.3l0.2,0.4l-0.5,0.3
				C8.7,92.5,8.6,92.6,8.4,92.6z M10.2,91.6l-0.2-0.4l0.9-0.5l0.2,0.4L10.2,91.6z M132,91.3l-0.9-0.5l0.2-0.4l0.9,0.5L132,91.3z
				 M11.9,90.6l-0.2-0.4l0.9-0.5l0.2,0.4L11.9,90.6z M130.3,90.3l-0.9-0.5l0.2-0.4l0.9,0.5L130.3,90.3z M13.6,89.6l-0.2-0.4l0.9-0.5
				l0.2,0.4L13.6,89.6z M128.6,89.3l-0.9-0.5l0.2-0.4l0.9,0.5L128.6,89.3z M15.4,88.6l-0.2-0.4l0.9-0.5l0.2,0.4L15.4,88.6z
				 M126.8,88.3l-0.9-0.5l0.2-0.4l0.9,0.5L126.8,88.3z M17.1,87.6l-0.2-0.4l0.9-0.5l0.2,0.4L17.1,87.6z M125.1,87.3l-0.9-0.5
				l0.2-0.4l0.9,0.5L125.1,87.3z M18.8,86.6l-0.2-0.4l0.9-0.5l0.2,0.4L18.8,86.6z M123.4,86.3l-0.9-0.5l0.2-0.4l0.9,0.5L123.4,86.3z
				 M20.6,85.6l-0.2-0.4l0.9-0.5l0.2,0.4L20.6,85.6z M121.6,85.3l-0.9-0.5l0.2-0.4l0.9,0.5L121.6,85.3z M22.3,84.6L22,84.2l0.9-0.5
				l0.2,0.4L22.3,84.6z M119.9,84.3l-0.9-0.5l0.2-0.4l0.9,0.5L119.9,84.3z M24,83.6l-0.2-0.4l0.9-0.5l0.2,0.4L24,83.6z M118.2,83.3
				l-0.9-0.5l0.2-0.4l0.9,0.5L118.2,83.3z M25.8,82.6l-0.2-0.4l0.9-0.5l0.2,0.4L25.8,82.6z M116.4,82.3l-0.9-0.5l0.2-0.4l0.9,0.5
				L116.4,82.3z M27.5,81.6l-0.2-0.4l0.9-0.5l0.2,0.4L27.5,81.6z M114.7,81.3l-0.9-0.5l0.2-0.4l0.9,0.5L114.7,81.3z M29.2,80.6
				L29,80.2l0.9-0.5l0.2,0.4L29.2,80.6z M113,80.3l-0.9-0.5l0.2-0.4l0.9,0.5L113,80.3z M31,79.6l-0.2-0.4l0.9-0.5l0.2,0.4L31,79.6z
				 M111.2,79.3l-0.9-0.5l0.2-0.4l0.9,0.5L111.2,79.3z M32.7,78.6l-0.2-0.4l0.9-0.5l0.2,0.4L32.7,78.6z M109.5,78.3l-0.9-0.5
				l0.2-0.4l0.9,0.5L109.5,78.3z M34.4,77.6l-0.2-0.4l0.9-0.5l0.2,0.4L34.4,77.6z M107.8,77.3l-0.9-0.5l0.2-0.4l0.9,0.5L107.8,77.3z
				 M36.1,76.6l-0.2-0.4l0.9-0.5l0.2,0.4L36.1,76.6z M106,76.3l-0.9-0.5l0.2-0.4l0.9,0.5L106,76.3z M37.9,75.6l-0.2-0.4l0.9-0.5
				l0.2,0.4L37.9,75.6z M104.3,75.3l-0.9-0.5l0.2-0.4l0.9,0.5L104.3,75.3z M39.6,74.6l-0.2-0.4l0.9-0.5l0.2,0.4L39.6,74.6z
				 M102.6,74.3l-0.9-0.5l0.2-0.4l0.9,0.5L102.6,74.3z M41.3,73.6l-0.2-0.4l0.9-0.5l0.2,0.4L41.3,73.6z M100.8,73.3l-0.9-0.5
				l0.2-0.4l0.9,0.5L100.8,73.3z M43.1,72.6l-0.2-0.4l0.9-0.5l0.2,0.4L43.1,72.6z M99.1,72.3l-0.9-0.5l0.2-0.4l0.9,0.5L99.1,72.3z
				 M44.8,71.6l-0.2-0.4l0.9-0.5l0.2,0.4L44.8,71.6z M97.4,71.3l-0.9-0.5l0.2-0.4l0.9,0.5L97.4,71.3z M46.5,70.6l-0.2-0.4l0.9-0.5
				l0.2,0.4L46.5,70.6z M95.7,70.3l-0.9-0.5l0.2-0.4l0.9,0.5L95.7,70.3z M48.3,69.6L48,69.2l0.9-0.5l0.2,0.4L48.3,69.6z M93.9,69.3
				l-0.9-0.5l0.2-0.4l0.9,0.5L93.9,69.3z M50,68.6l-0.2-0.4l0.9-0.5l0.2,0.4L50,68.6z M92.2,68.3l-0.9-0.5l0.2-0.4l0.9,0.5
				L92.2,68.3z M51.7,67.6l-0.2-0.4l0.9-0.5l0.2,0.4L51.7,67.6z M90.5,67.3l-0.9-0.5l0.2-0.4l0.9,0.5L90.5,67.3z M53.5,66.6
				l-0.2-0.4l0.9-0.5l0.2,0.4L53.5,66.6z M88.7,66.3l-0.9-0.5l0.2-0.4l0.9,0.5L88.7,66.3z M55.2,65.6L55,65.2l0.9-0.5l0.2,0.4
				L55.2,65.6z M87,65.3l-0.9-0.5l0.2-0.4l0.9,0.5L87,65.3z M56.9,64.6l-0.2-0.4l0.9-0.5l0.2,0.4L56.9,64.6z M85.3,64.3l-0.9-0.5
				l0.2-0.4l0.9,0.5L85.3,64.3z M58.7,63.6l-0.2-0.4l0.9-0.5l0.2,0.4L58.7,63.6z M83.5,63.3l-0.9-0.5l0.2-0.4l0.9,0.5L83.5,63.3z
				 M60.4,62.6l-0.2-0.4l0.9-0.5l0.2,0.4L60.4,62.6z M81.8,62.3l-0.9-0.5l0.2-0.4l0.9,0.5L81.8,62.3z M62.1,61.6l-0.2-0.4l0.9-0.5
				l0.2,0.4L62.1,61.6z M80.1,61.3l-0.1-0.1c-0.2-0.1-0.5-0.3-0.7-0.4l0.2-0.4c0.3,0.1,0.5,0.3,0.8,0.4l0.1,0.1L80.1,61.3z
				 M63.9,60.7l-0.2-0.5c0.3-0.1,0.6-0.3,0.9-0.4l0.2,0.5C64.5,60.4,64.2,60.6,63.9,60.7z M78.3,60.4c-0.3-0.1-0.6-0.2-0.9-0.3
				l0.2-0.5c0.3,0.1,0.6,0.2,1,0.3L78.3,60.4z M65.7,60l-0.1-0.5c0.3-0.1,0.6-0.2,1-0.3l0.1,0.5C66.3,59.8,66,59.9,65.7,60z
				 M76.4,59.8c-0.3-0.1-0.6-0.2-1-0.2l0.1-0.5c0.3,0.1,0.7,0.1,1,0.2L76.4,59.8z M67.6,59.5L67.5,59c0.3-0.1,0.7-0.1,1-0.2l0.1,0.5
				C68.3,59.4,67.9,59.5,67.6,59.5z M74.5,59.4c-0.3,0-0.7-0.1-1-0.1l0.1-0.5c0.3,0,0.7,0.1,1,0.1L74.5,59.4z M69.6,59.3l0-0.5
				c0.3,0,0.7-0.1,1-0.1l0,0.5C70.2,59.2,69.9,59.2,69.6,59.3z M72.5,59.2c-0.3,0-0.7,0-1,0l0-0.5c0.3,0,0.7,0,1,0L72.5,59.2z"/>
		</g>
	</g>
	<g>
		<path class="st4" d="M95.2,99.5l-6.5-66.4c-0.1-1-0.5-2-1.1-3c-0.6-1-1.4-1.7-2.1-2.2L46.8,5.6C46,5.1,45.3,5,44.7,5.3
			c-0.6,0.3-1,0.9-1.1,1.7l-6.4,59c-0.1,0.5,0,1.1,0.1,1.6c0.1,0.6,0.4,1.2,0.7,1.8c0.3,0.6,0.7,1.1,1.1,1.6
			c0.4,0.5,0.9,0.8,1.3,1.1L92,101.9c0.9,0.5,1.7,0.6,2.3,0.2c0.6-0.4,0.9-1.1,0.9-2.1C95.2,99.8,95.2,99.7,95.2,99.5z"/>
	</g>
	<g>
		<path class="st1" d="M86.4,103.9L80,37.5c-0.1-1-0.5-2-1.1-3c-0.6-1-1.4-1.7-2.1-2.2L38,10c-0.8-0.5-1.6-0.6-2.1-0.3
			c-0.6,0.3-1,0.9-1.1,1.7l-6.4,59c-0.1,0.5,0,1.1,0.1,1.6c0.1,0.6,0.4,1.2,0.7,1.8c0.3,0.6,0.7,1.1,1.1,1.6
			c0.4,0.5,0.9,0.8,1.3,1.1l51.6,29.8c0.9,0.5,1.7,0.6,2.3,0.2c0.6-0.4,0.9-1.1,0.9-2.1C86.5,104.2,86.5,104.1,86.4,103.9z
			 M57.4,53.7c-3.7-2.1-7.3-5.9-9.9-10.5c-2.6-4.6-4.1-9.6-4.1-13.9c0-1,0.3-1.8,0.9-2.1c0.6-0.4,1.4-0.3,2.3,0.2
			c0.9,0.5,1.7,1.4,2.3,2.4c0.6,1.1,0.9,2.2,0.9,3.2c0,2.3,0.8,5,2.2,7.5c1.4,2.5,3.3,4.5,5.3,5.6c2,1.2,3.9,1.3,5.3,0.5
			c1.4-0.8,2.2-2.6,2.2-4.9c0-1,0.3-1.8,0.9-2.1c0.6-0.4,1.4-0.3,2.3,0.2c0.9,0.5,1.7,1.4,2.3,2.4c0.6,1.1,0.9,2.2,0.9,3.2
			c0,4.3-1.5,7.6-4.1,9.1C64.7,56.2,61.1,55.9,57.4,53.7z"/>
		<path class="st5" d="M85,106.9l-0.1-0.5c0.2,0,0.3-0.1,0.5-0.2c0.1-0.1,0.2-0.1,0.2-0.2l0.3,0.4c-0.1,0.1-0.2,0.2-0.3,0.3
			C85.4,106.8,85.2,106.9,85,106.9z M83.9,106.8c-0.3-0.1-0.5-0.2-0.8-0.3l-0.2-0.1l0.2-0.4l0.2,0.1c0.2,0.1,0.4,0.2,0.7,0.3
			L83.9,106.8z M82.1,105.9l-0.9-0.5l0.2-0.4l0.9,0.5L82.1,105.9z M86.6,105.5l-0.5-0.2c0.1-0.3,0.1-0.6,0.1-0.9l0.5,0
			C86.7,104.8,86.7,105.2,86.6,105.5z M80.3,104.9l-0.9-0.5l0.2-0.4l0.9,0.5L80.3,104.9z M86.2,103.9l-0.1-1l0.5,0l0.1,1L86.2,103.9
			z M78.6,103.9l-0.9-0.5l0.2-0.4l0.9,0.5L78.6,103.9z M76.9,102.9l-0.9-0.5l0.2-0.4l0.9,0.5L76.9,102.9z M86,101.9l-0.1-1l0.5,0
			l0.1,1L86,101.9z M75.1,101.9l-0.9-0.5l0.2-0.4l0.9,0.5L75.1,101.9z M73.4,100.9l-0.9-0.5l0.2-0.4l0.9,0.5L73.4,100.9z M85.8,99.9
			l-0.1-1l0.5,0l0.1,1L85.8,99.9z M71.7,99.9l-0.9-0.5l0.2-0.4l0.9,0.5L71.7,99.9z M69.9,98.9l-0.9-0.5l0.2-0.4l0.9,0.5L69.9,98.9z
			 M85.6,97.9l-0.1-1l0.5,0l0.1,1L85.6,97.9z M68.2,97.9l-0.9-0.5l0.2-0.4l0.9,0.5L68.2,97.9z M66.5,96.9l-0.9-0.5l0.2-0.4l0.9,0.5
			L66.5,96.9z M85.4,96l-0.1-1l0.5,0l0.1,1L85.4,96z M64.7,95.9l-0.9-0.5l0.2-0.4l0.9,0.5L64.7,95.9z M63,94.9l-0.9-0.5l0.2-0.4
			l0.9,0.5L63,94.9z M85.2,94l-0.1-1l0.5,0l0.1,1L85.2,94z M61.3,93.9l-0.9-0.5l0.2-0.4l0.9,0.5L61.3,93.9z M59.5,92.9l-0.9-0.5
			l0.2-0.4l0.9,0.5L59.5,92.9z M85,92l-0.1-1l0.5,0l0.1,1L85,92z M57.8,91.9l-0.9-0.5l0.2-0.4l0.9,0.5L57.8,91.9z M56.1,90.9
			l-0.9-0.5l0.2-0.4l0.9,0.5L56.1,90.9z M84.8,90l-0.1-1l0.5,0l0.1,1L84.8,90z M54.3,89.9l-0.9-0.5l0.2-0.4l0.9,0.5L54.3,89.9z
			 M52.6,88.9l-0.9-0.5l0.2-0.4l0.9,0.5L52.6,88.9z M84.7,88l-0.1-1l0.5,0l0.1,1L84.7,88z M50.9,87.9L50,87.4l0.2-0.4l0.9,0.5
			L50.9,87.9z M49.1,86.9l-0.9-0.5l0.2-0.4l0.9,0.5L49.1,86.9z M84.5,86l-0.1-1l0.5,0l0.1,1L84.5,86z M47.4,85.9l-0.9-0.5l0.2-0.4
			l0.9,0.5L47.4,85.9z M45.7,84.9l-0.9-0.5l0.2-0.4l0.9,0.5L45.7,84.9z M84.3,84l-0.1-1l0.5,0l0.1,1L84.3,84z M43.9,83.9l-0.9-0.5
			l0.2-0.4l0.9,0.5L43.9,83.9z M42.2,82.9l-0.9-0.5l0.2-0.4l0.9,0.5L42.2,82.9z M84.1,82L84,81l0.5,0l0.1,1L84.1,82z M40.5,81.9
			l-0.9-0.5l0.2-0.4l0.9,0.5L40.5,81.9z M38.8,80.9l-0.9-0.5l0.2-0.4l0.9,0.5L38.8,80.9z M83.9,80l-0.1-1l0.5,0l0.1,1L83.9,80z
			 M37,79.9l-0.9-0.5l0.2-0.4l0.9,0.5L37,79.9z M35.3,78.9l-0.9-0.5l0.2-0.4l0.9,0.5L35.3,78.9z M83.7,78l-0.1-1l0.5,0l0.1,1
			L83.7,78z M33.6,77.9l-0.9-0.5l0.2-0.4l0.9,0.5L33.6,77.9z M31.8,76.9l-0.4-0.2c-0.2-0.1-0.3-0.2-0.5-0.3l0.3-0.4
			c0.2,0.1,0.3,0.2,0.5,0.3l0.4,0.2L31.8,76.9z M83.5,76.1l-0.1-1l0.5,0l0.1,1L83.5,76.1z M30.2,75.6l-0.1-0.1
			c-0.2-0.2-0.4-0.5-0.6-0.7l0.4-0.3c0.2,0.2,0.3,0.5,0.5,0.7l0.1,0.1L30.2,75.6z M83.3,74.1l-0.1-1l0.5,0l0.1,1L83.3,74.1z
			 M29,73.9c-0.2-0.3-0.3-0.6-0.4-0.9l0.5-0.2c0.1,0.3,0.2,0.6,0.4,0.8L29,73.9z M83.1,72.1l-0.1-1l0.5,0l0.1,1L83.1,72.1z M28.3,72
			c-0.1-0.4-0.1-0.7-0.1-1l0.5,0c0,0.3,0.1,0.6,0.1,0.9L28.3,72z M82.9,70.1l-0.1-1l0.5,0l0.1,1L82.9,70.1z M28.7,70l-0.5-0.1l0.1-1
			l0.5,0.1L28.7,70z M82.7,68.1l-0.1-1l0.5,0l0.1,1L82.7,68.1z M28.9,68l-0.5-0.1l0.1-1L29,67L28.9,68z M82.5,66.1l-0.1-1l0.5,0
			l0.1,1L82.5,66.1z M29.1,66L28.6,66l0.1-1l0.5,0.1L29.1,66z M82.3,64.1l-0.1-1l0.5,0l0.1,1L82.3,64.1z M29.3,64L28.8,64l0.1-1
			l0.5,0.1L29.3,64z M82.1,62.1l-0.1-1l0.5,0l0.1,1L82.1,62.1z M29.6,62L29.1,62l0.1-1l0.5,0.1L29.6,62z M81.9,60.1l-0.1-1l0.5,0
			l0.1,1L81.9,60.1z M29.8,60L29.3,60l0.1-1l0.5,0.1L29.8,60z M81.7,58.1l-0.1-1l0.5,0l0.1,1L81.7,58.1z M30,58.1L29.5,58l0.1-1
			l0.5,0.1L30,58.1z M81.6,56.1l-0.1-1l0.5,0l0.1,1L81.6,56.1z M30.2,56.1L29.7,56l0.1-1l0.5,0.1L30.2,56.1z M63.3,55.9
			c-0.3,0-0.7,0-1-0.1l0.1-0.5c0.3,0,0.7,0.1,1,0.1L63.3,55.9z M64.3,55.9l0-0.5c0.3,0,0.6-0.1,1-0.1l0.1,0.5
			C65,55.8,64.6,55.8,64.3,55.9z M61.2,55.6c-0.3-0.1-0.7-0.2-1-0.3l0.2-0.5c0.3,0.1,0.6,0.2,0.9,0.3L61.2,55.6z M66.3,55.4L66.1,55
			c0.3-0.1,0.6-0.2,0.9-0.4l0.2,0.4C66.9,55.2,66.6,55.3,66.3,55.4z M59.3,55c-0.3-0.1-0.6-0.3-0.9-0.4l0.2-0.4
			c0.3,0.1,0.6,0.3,0.9,0.4L59.3,55z M68.1,54.4L67.8,54c0.3-0.2,0.5-0.4,0.7-0.6l0.4,0.4C68.7,54,68.4,54.2,68.1,54.4z M81.4,54.2
			l-0.1-1l0.5,0l0.1,1L81.4,54.2z M30.4,54.1L29.9,54l0.1-1l0.5,0.1L30.4,54.1z M57.5,54.1L57.3,54c-0.3-0.2-0.6-0.3-0.9-0.5
			l0.3-0.4c0.3,0.2,0.6,0.4,0.8,0.5l0.2,0.1L57.5,54.1z M69.6,53l-0.4-0.3c0.2-0.3,0.4-0.5,0.5-0.8l0.4,0.2
			C70,52.4,69.8,52.7,69.6,53z M55.6,52.9c-0.3-0.2-0.5-0.4-0.8-0.6l0.3-0.4c0.3,0.2,0.5,0.4,0.8,0.6L55.6,52.9z M81.2,52.2l-0.1-1
			l0.5,0l0.1,1L81.2,52.2z M30.6,52.1L30.1,52l0.1-1l0.5,0.1L30.6,52.1z M54,51.6c-0.3-0.2-0.5-0.4-0.8-0.7l0.3-0.4
			c0.2,0.2,0.5,0.4,0.7,0.7L54,51.6z M70.6,51.2L70.1,51c0.1-0.3,0.2-0.6,0.4-0.9l0.5,0.2C70.9,50.6,70.7,50.9,70.6,51.2z
			 M52.5,50.2c-0.2-0.2-0.5-0.5-0.7-0.7l0.4-0.3c0.2,0.2,0.5,0.5,0.7,0.7L52.5,50.2z M81,50.2l-0.1-1l0.5,0l0.1,1L81,50.2z
			 M30.9,50.1l-0.5-0.1l0.1-1l0.5,0.1L30.9,50.1z M71.2,49.3l-0.5-0.1c0.1-0.3,0.1-0.6,0.2-1l0.5,0.1C71.4,48.6,71.3,48.9,71.2,49.3
			z M51.2,48.8c-0.2-0.3-0.4-0.5-0.7-0.8l0.4-0.3c0.2,0.3,0.4,0.5,0.6,0.8L51.2,48.8z M80.8,48.2l-0.1-1l0.5,0l0.1,1L80.8,48.2z
			 M31.1,48.1l-0.5-0.1l0.1-1l0.5,0.1L31.1,48.1z M60.8,47.5l0-0.5h0c0.3,0,0.6,0,0.9-0.1l0.1,0.5C61.5,47.5,61.1,47.5,60.8,47.5z
			 M59.7,47.4c-0.3-0.1-0.7-0.2-1-0.3l0.2-0.5c0.3,0.1,0.6,0.2,0.9,0.3L59.7,47.4z M71.6,47.2l-0.5,0c0-0.3,0.1-0.6,0.1-1l0.5,0
			C71.6,46.6,71.6,46.9,71.6,47.2z M49.9,47.2c-0.2-0.3-0.4-0.5-0.6-0.8l0.4-0.3c0.2,0.3,0.4,0.5,0.6,0.8L49.9,47.2z M62.8,47
			l-0.2-0.4l0.1,0c0.2-0.1,0.5-0.3,0.7-0.5l0.4,0.4C63.4,46.6,63.2,46.8,62.8,47L62.8,47z M57.8,46.7c-0.2-0.1-0.3-0.2-0.5-0.3
			c-0.1-0.1-0.3-0.2-0.4-0.3l0.3-0.4c0.1,0.1,0.3,0.2,0.4,0.2c0.1,0.1,0.3,0.2,0.4,0.2L57.8,46.7z M80.6,46.2l-0.1-1l0.5,0l0.1,1
			L80.6,46.2z M31.3,46.1l-0.5-0.1l0.1-1l0.5,0.1L31.3,46.1z M56,45.6c-0.3-0.2-0.5-0.4-0.8-0.7l0.3-0.4c0.2,0.2,0.5,0.4,0.8,0.6
			L56,45.6z M48.7,45.6c-0.2-0.3-0.4-0.6-0.6-0.8l0.4-0.3c0.2,0.3,0.4,0.6,0.5,0.8L48.7,45.6z M64.3,45.5l-0.4-0.3
			c0.2-0.3,0.3-0.5,0.4-0.9l0.5,0.2C64.6,44.9,64.5,45.2,64.3,45.5z M71.2,45.2c0-0.3-0.1-0.6-0.2-0.9l0.5-0.1
			c0.1,0.4,0.1,0.7,0.2,1L71.2,45.2z M54.5,44.2c-0.2-0.2-0.5-0.5-0.7-0.7l0.4-0.3c0.2,0.3,0.4,0.5,0.7,0.7L54.5,44.2z M80.4,44.2
			l-0.1-1l0.5,0l0.1,1L80.4,44.2z M31.5,44.1L31,44.1l0.1-1l0.5,0.1L31.5,44.1z M47.6,43.9c-0.1-0.2-0.2-0.3-0.3-0.5L47.1,43
			l0.4-0.2l0.2,0.4c0.1,0.2,0.2,0.3,0.3,0.5L47.6,43.9z M65,43.6l-0.5-0.1c0.1-0.3,0.1-0.6,0.1-1l0.5,0C65.1,42.9,65.1,43.3,65,43.6
			z M70.7,43.4c-0.1-0.3-0.3-0.6-0.4-0.9l0.4-0.2c0.2,0.3,0.3,0.6,0.4,0.9L70.7,43.4z M53.2,42.7c-0.2-0.3-0.4-0.5-0.6-0.8l0.4-0.3
			c0.2,0.3,0.4,0.5,0.6,0.8L53.2,42.7z M80.2,42.2l-0.1-1l0.5,0l0.1,1L80.2,42.2z M31.7,42.2l-0.5-0.1l0.1-1l0.5,0.1L31.7,42.2z
			 M46.6,42.1c-0.2-0.3-0.3-0.6-0.5-0.9l0.5-0.2c0.1,0.3,0.3,0.6,0.4,0.9L46.6,42.1z M69.8,41.7c-0.2-0.3-0.4-0.5-0.6-0.7l0.4-0.4
			c0.2,0.2,0.5,0.5,0.7,0.8L69.8,41.7z M65.2,41.6l-0.5,0c0-0.4,0.1-0.7,0.2-1.1l0.5,0.2C65.3,40.9,65.2,41.2,65.2,41.6z M52.1,41
			c-0.1-0.1-0.1-0.2-0.2-0.3c-0.1-0.2-0.2-0.4-0.3-0.6l0.4-0.2c0.1,0.2,0.2,0.4,0.3,0.6c0.1,0.1,0.1,0.2,0.2,0.3L52.1,41z
			 M68.4,40.3c-0.1-0.1-0.2-0.2-0.3-0.2c-0.2-0.1-0.3-0.2-0.5-0.2l0.2-0.5c0.2,0.1,0.4,0.2,0.5,0.3c0.1,0.1,0.3,0.2,0.4,0.2
			L68.4,40.3z M45.8,40.3c-0.1-0.3-0.3-0.6-0.4-0.9l0.5-0.2c0.1,0.3,0.3,0.6,0.4,0.9L45.8,40.3z M80,40.2l-0.1-1l0.5,0l0.1,1
			L80,40.2z M31.9,40.2l-0.5-0.1l0.1-1l0.5,0.1L31.9,40.2z M65.9,40l-0.3-0.4c0.1,0,0.1-0.1,0.2-0.1c0.3-0.2,0.6-0.2,0.9-0.3l0,0.5
			c-0.3,0-0.5,0.1-0.7,0.2C66,39.9,66,40,65.9,40z M51.1,39.2c-0.1-0.3-0.3-0.6-0.4-0.9l0.5-0.2c0.1,0.3,0.2,0.6,0.4,0.9L51.1,39.2z
			 M45,38.4c-0.1-0.3-0.2-0.6-0.3-0.9l0.5-0.2c0.1,0.3,0.2,0.6,0.3,0.9L45,38.4z M79.8,38.2l-0.1-0.7c0-0.1,0-0.2,0-0.3l0.5-0.1
			c0,0.1,0,0.2,0,0.3l0.1,0.7L79.8,38.2z M32.2,38.2l-0.5-0.1l0.1-1l0.5,0.1L32.2,38.2z M50.4,37.4c-0.1-0.3-0.2-0.7-0.3-1l0.5-0.1
			c0.1,0.3,0.2,0.6,0.3,0.9L50.4,37.4z M44.3,36.5c-0.1-0.3-0.2-0.6-0.3-1l0.5-0.1c0.1,0.3,0.2,0.6,0.3,1L44.3,36.5z M79.5,36.3
			c-0.1-0.3-0.2-0.6-0.4-0.9l0.5-0.2c0.1,0.3,0.3,0.6,0.4,1L79.5,36.3z M32.4,36.2l-0.5-0.1l0.1-1l0.5,0.1L32.4,36.2z M49.9,35.4
			c-0.1-0.3-0.1-0.7-0.2-1l0.5-0.1c0,0.3,0.1,0.6,0.1,1L49.9,35.4z M43.8,34.6c-0.1-0.3-0.1-0.7-0.2-1l0.5-0.1
			c0.1,0.3,0.1,0.6,0.2,1L43.8,34.6z M78.7,34.6c-0.2-0.3-0.4-0.5-0.6-0.8l0.4-0.3c0.2,0.3,0.4,0.5,0.6,0.8L78.7,34.6z M32.6,34.2
			l-0.5-0.1l0.1-1l0.5,0.1L32.6,34.2z M49.6,33.4l0-0.3c0-0.2,0-0.5-0.1-0.7l0.5-0.1c0,0.3,0.1,0.5,0.1,0.8l0,0.2L49.6,33.4z
			 M77.4,33.1c-0.2-0.2-0.5-0.4-0.8-0.6l0.2-0.4c0.3,0.2,0.6,0.4,0.9,0.6L77.4,33.1z M43.4,32.6c-0.1-0.3-0.1-0.7-0.1-1l0.5-0.1
			c0,0.3,0.1,0.7,0.1,1L43.4,32.6z M32.8,32.2l-0.5-0.1l0.1-1l0.5,0.1L32.8,32.2z M75.8,32l-0.9-0.5l0.2-0.4l0.9,0.5L75.8,32z
			 M49.4,31.5c-0.1-0.3-0.2-0.6-0.4-0.9l0.5-0.2c0.1,0.3,0.3,0.6,0.4,1L49.4,31.5z M74.1,31l-0.9-0.5l0.2-0.4l0.9,0.5L74.1,31z
			 M43.2,30.6c0-0.3,0-0.7,0-1l0.5,0c0,0.3,0,0.7,0,1L43.2,30.6z M33,30.2l-0.5-0.1l0.1-1l0.5,0.1L33,30.2z M72.3,30l-0.9-0.5
			l0.2-0.4l0.9,0.5L72.3,30z M48.5,29.7c-0.2-0.3-0.4-0.5-0.6-0.8l0.4-0.3c0.2,0.3,0.4,0.5,0.6,0.8L48.5,29.7z M70.6,29l-0.9-0.5
			l0.2-0.4l0.9,0.5L70.6,29z M43.8,28.6l-0.5-0.1c0.1-0.4,0.2-0.7,0.5-1l0.4,0.3C44,28,43.8,28.3,43.8,28.6z M47.3,28.2
			c-0.2-0.2-0.5-0.4-0.8-0.5l0.2-0.4l0.1,0c0.2,0.1,0.5,0.3,0.8,0.6L47.3,28.2z M33.3,28.2l-0.5-0.1l0.1-1l0.5,0.1L33.3,28.2z
			 M68.9,28L68,27.5l0.2-0.4l0.9,0.5L68.9,28z M44.8,27.4l-0.1-0.5c0.3-0.1,0.7-0.1,1.1,0l-0.1,0.5C45.4,27.3,45.1,27.3,44.8,27.4z
			 M67.1,27l-0.9-0.5l0.2-0.4l0.9,0.5L67.1,27z M33.5,26.2L33,26.2l0.1-1l0.5,0.1L33.5,26.2z M65.4,26l-0.9-0.5l0.2-0.4l0.9,0.5
			L65.4,26z M63.7,25l-0.9-0.5l0.2-0.4l0.9,0.5L63.7,25z M33.7,24.3l-0.5-0.1l0.1-1l0.5,0.1L33.7,24.3z M61.9,24l-0.9-0.5l0.2-0.4
			l0.9,0.5L61.9,24z M60.2,23l-0.9-0.5l0.2-0.4l0.9,0.5L60.2,23z M33.9,22.3l-0.5-0.1l0.1-1l0.5,0.1L33.9,22.3z M58.5,22l-0.9-0.5
			l0.2-0.4l0.9,0.5L58.5,22z M56.7,21l-0.9-0.5l0.2-0.4l0.9,0.5L56.7,21z M34.1,20.3l-0.5-0.1l0.1-1l0.5,0.1L34.1,20.3z M55,20
			l-0.9-0.5l0.2-0.4l0.9,0.5L55,20z M53.3,19l-0.9-0.5l0.2-0.4l0.9,0.5L53.3,19z M34.3,18.3l-0.5-0.1l0.1-1l0.5,0.1L34.3,18.3z
			 M51.5,18l-0.9-0.5l0.2-0.4l0.9,0.5L51.5,18z M49.8,17l-0.9-0.5l0.2-0.4l0.9,0.5L49.8,17z M34.6,16.3l-0.5-0.1l0.1-1l0.5,0.1
			L34.6,16.3z M48.1,16l-0.9-0.5l0.2-0.4l0.9,0.5L48.1,16z M46.3,15l-0.9-0.5l0.2-0.4l0.9,0.5L46.3,15z M34.8,14.3l-0.5-0.1l0.1-1
			l0.5,0.1L34.8,14.3z M44.6,14l-0.9-0.5l0.2-0.4l0.9,0.5L44.6,14z M42.9,13L42,12.5l0.2-0.4l0.9,0.5L42.9,13z M35,12.3l-0.5-0.1
			l0.1-1l0.5,0.1L35,12.3z M41.1,12l-0.9-0.5l0.2-0.4l0.9,0.5L41.1,12z M39.4,11l-0.9-0.5l0.2-0.4l0.9,0.5L39.4,11z M35.4,10.5
			l-0.4-0.2c0.2-0.4,0.5-0.6,0.8-0.8L36,9.9C35.7,10,35.5,10.2,35.4,10.5z M37.7,10.1c-0.3-0.1-0.6-0.2-0.9-0.3l0.1-0.5
			c0.3,0,0.7,0.1,1,0.3L37.7,10.1z"/>
	</g>
</g>
</svg>
