<?xml version="1.0" encoding="utf-8"?>
<!-- Generator: Adobe Illustrator 26.4.1, SVG Export Plug-In . SVG Version: 6.00 Build 0)  -->
<svg version="1.1" id="图层_1" xmlns="http://www.w3.org/2000/svg" xmlns:xlink="http://www.w3.org/1999/xlink" x="0px" y="0px"
	 viewBox="0 0 143 162" style="enable-background:new 0 0 143 162;" xml:space="preserve">
<style type="text/css">
	.st0{opacity:0.1;}
	.st1{fill:#FFFFFF;}
	.st2{fill:#D1D1D1;}
	.st3{opacity:0.3;}
	.st4{fill:#4C67EF;}
	.st5{fill:#6674A6;}
</style>
<g>
	<g>
		<g class="st0">
			<path class="st1" d="M133.9,110.1L80.1,79c-4.8-2.8-12.5-2.8-17.3,0L8.7,110.3c-4.8,2.8-4.8,7.2,0,10l53.8,31
				c4.8,2.8,12.5,2.8,17.3,0l54.1-31.2C138.7,117.3,138.7,112.8,133.9,110.1z"/>
		</g>
		<g>
			<path class="st2" d="M71,153.6c-0.2,0-0.3,0-0.5,0l0-0.5c0.2,0,0.4,0,0.6,0c0.1,0,0.3,0,0.4,0l0,0.5
				C71.3,153.6,71.2,153.6,71,153.6z M72.5,153.6l0-0.5c0.3,0,0.7-0.1,1-0.1l0.1,0.5C73.2,153.5,72.9,153.6,72.5,153.6z M69.5,153.6
				c-0.3,0-0.7-0.1-1-0.1l0.1-0.5c0.3,0,0.7,0.1,1,0.1L69.5,153.6z M74.5,153.4l-0.1-0.5c0.3-0.1,0.7-0.1,1-0.2l0.1,0.5
				C75.2,153.2,74.9,153.3,74.5,153.4z M67.5,153.3c-0.3-0.1-0.7-0.1-1-0.2l0.1-0.5c0.3,0.1,0.6,0.1,1,0.2L67.5,153.3z M76.5,152.9
				l-0.1-0.5c0.3-0.1,0.6-0.2,0.9-0.3l0.2,0.5C77.2,152.7,76.8,152.8,76.5,152.9z M65.5,152.9c-0.3-0.1-0.6-0.2-1-0.3l0.2-0.5
				c0.3,0.1,0.6,0.2,0.9,0.3L65.5,152.9z M78.4,152.3l-0.2-0.5c0.3-0.1,0.6-0.3,0.9-0.4l0.2,0.4C79.1,152,78.7,152.1,78.4,152.3z
				 M63.6,152.2c-0.3-0.1-0.6-0.3-0.9-0.4l0.2-0.4c0.3,0.2,0.6,0.3,0.9,0.4L63.6,152.2z M80.2,151.3l-0.2-0.4l0.9-0.5l0.2,0.4
				L80.2,151.3z M61.8,151.2l-0.9-0.5l0.2-0.4l0.9,0.5L61.8,151.2z M82,150.3l-0.2-0.4l0.9-0.5l0.2,0.4L82,150.3z M60.1,150.2
				l-0.9-0.5l0.2-0.4l0.9,0.5L60.1,150.2z M83.7,149.3l-0.2-0.4l0.9-0.5l0.2,0.4L83.7,149.3z M58.3,149.2l-0.9-0.5l0.2-0.4l0.9,0.5
				L58.3,149.2z M85.4,148.3l-0.2-0.4l0.9-0.5l0.2,0.4L85.4,148.3z M56.6,148.2l-0.9-0.5l0.2-0.4l0.9,0.5L56.6,148.2z M87.2,147.3
				l-0.2-0.4l0.9-0.5l0.2,0.4L87.2,147.3z M54.9,147.2l-0.9-0.5l0.2-0.4l0.9,0.5L54.9,147.2z M88.9,146.3l-0.2-0.4l0.9-0.5l0.2,0.4
				L88.9,146.3z M53.1,146.2l-0.9-0.5l0.2-0.4l0.9,0.5L53.1,146.2z M90.6,145.3l-0.2-0.4l0.9-0.5l0.2,0.4L90.6,145.3z M51.4,145.2
				l-0.9-0.5l0.2-0.4l0.9,0.5L51.4,145.2z M92.4,144.3l-0.2-0.4l0.9-0.5l0.2,0.4L92.4,144.3z M49.7,144.2l-0.9-0.5l0.2-0.4l0.9,0.5
				L49.7,144.2z M94.1,143.3l-0.2-0.4l0.9-0.5l0.2,0.4L94.1,143.3z M47.9,143.2l-0.9-0.5l0.2-0.4l0.9,0.5L47.9,143.2z M95.8,142.3
				l-0.2-0.4l0.9-0.5l0.2,0.4L95.8,142.3z M46.2,142.2l-0.9-0.5l0.2-0.4l0.9,0.5L46.2,142.2z M97.6,141.3l-0.2-0.4l0.9-0.5l0.2,0.4
				L97.6,141.3z M44.5,141.2l-0.9-0.5l0.2-0.4l0.9,0.5L44.5,141.2z M99.3,140.3l-0.2-0.4l0.9-0.5l0.2,0.4L99.3,140.3z M42.8,140.2
				l-0.9-0.5l0.2-0.4l0.9,0.5L42.8,140.2z M101,139.3l-0.2-0.4l0.9-0.5l0.2,0.4L101,139.3z M41,139.2l-0.9-0.5l0.2-0.4l0.9,0.5
				L41,139.2z M102.8,138.3l-0.2-0.4l0.9-0.5l0.2,0.4L102.8,138.3z M39.3,138.2l-0.9-0.5l0.2-0.4l0.9,0.5L39.3,138.2z M104.5,137.3
				l-0.2-0.4l0.9-0.5l0.2,0.4L104.5,137.3z M37.6,137.2l-0.9-0.5l0.2-0.4l0.9,0.5L37.6,137.2z M106.2,136.3l-0.2-0.4l0.9-0.5
				l0.2,0.4L106.2,136.3z M35.8,136.2l-0.9-0.5l0.2-0.4l0.9,0.5L35.8,136.2z M108,135.3l-0.2-0.4l0.9-0.5l0.2,0.4L108,135.3z
				 M34.1,135.2l-0.9-0.5l0.2-0.4l0.9,0.5L34.1,135.2z M109.7,134.3l-0.2-0.4l0.9-0.5l0.2,0.4L109.7,134.3z M32.4,134.2l-0.9-0.5
				l0.2-0.4l0.9,0.5L32.4,134.2z M111.4,133.3l-0.2-0.4l0.9-0.5l0.2,0.4L111.4,133.3z M30.6,133.2l-0.9-0.5l0.2-0.4l0.9,0.5
				L30.6,133.2z M113.1,132.3l-0.2-0.4l0.9-0.5l0.2,0.4L113.1,132.3z M28.9,132.2l-0.9-0.5l0.2-0.4l0.9,0.5L28.9,132.2z
				 M114.9,131.3l-0.2-0.4l0.9-0.5l0.2,0.4L114.9,131.3z M27.2,131.2l-0.9-0.5l0.2-0.4l0.9,0.5L27.2,131.2z M116.6,130.3l-0.2-0.4
				l0.9-0.5l0.2,0.4L116.6,130.3z M25.4,130.2l-0.9-0.5l0.2-0.4l0.9,0.5L25.4,130.2z M118.3,129.3l-0.2-0.4l0.9-0.5l0.2,0.4
				L118.3,129.3z M23.7,129.2l-0.9-0.5l0.2-0.4l0.9,0.5L23.7,129.2z M120.1,128.3l-0.2-0.4l0.9-0.5l0.2,0.4L120.1,128.3z M22,128.2
				l-0.9-0.5l0.2-0.4l0.9,0.5L22,128.2z M121.8,127.3l-0.2-0.4l0.9-0.5l0.2,0.4L121.8,127.3z M20.2,127.2l-0.9-0.5l0.2-0.4l0.9,0.5
				L20.2,127.2z M123.5,126.3l-0.2-0.4l0.9-0.5l0.2,0.4L123.5,126.3z M18.5,126.2l-0.9-0.5l0.2-0.4l0.9,0.5L18.5,126.2z
				 M125.3,125.3l-0.2-0.4l0.9-0.5l0.2,0.4L125.3,125.3z M16.8,125.2l-0.9-0.5l0.2-0.4l0.9,0.5L16.8,125.2z M127,124.3l-0.2-0.4
				l0.9-0.5l0.2,0.4L127,124.3z M15,124.2l-0.9-0.5l0.2-0.4l0.9,0.5L15,124.2z M128.7,123.3l-0.2-0.4l0.9-0.5l0.2,0.4L128.7,123.3z
				 M13.3,123.2l-0.9-0.5l0.2-0.4l0.9,0.5L13.3,123.2z M130.5,122.3l-0.2-0.4l0.9-0.5l0.2,0.4L130.5,122.3z M11.6,122.2l-0.9-0.5
				l0.2-0.4l0.9,0.5L11.6,122.2z M132.2,121.3l-0.2-0.4l0.9-0.5l0.2,0.4L132.2,121.3z M9.8,121.2L9,120.7l0.2-0.4l0.9,0.5L9.8,121.2
				z M133.9,120.3l-0.2-0.4l0.1,0c0.3-0.2,0.5-0.3,0.8-0.5l0.3,0.4C134.5,120,134.3,120.1,133.9,120.3L133.9,120.3z M8.1,120.2
				c-0.3-0.2-0.6-0.4-0.8-0.6l0.3-0.4c0.2,0.2,0.5,0.4,0.8,0.6L8.1,120.2z M135.6,119.2l-0.3-0.4c0.2-0.2,0.5-0.4,0.7-0.7l0.4,0.3
				C136.1,118.7,135.9,118.9,135.6,119.2z M6.5,119c-0.2-0.3-0.5-0.5-0.7-0.8l0.4-0.3c0.2,0.3,0.4,0.5,0.6,0.7L6.5,119z M137,117.6
				l-0.4-0.3c0.2-0.3,0.3-0.6,0.4-0.9l0.5,0.2C137.3,117,137.1,117.3,137,117.6z M5.3,117.3c-0.2-0.3-0.3-0.7-0.4-1l0.5-0.1
				c0.1,0.3,0.2,0.6,0.3,0.9L5.3,117.3z M137.7,115.6l-0.5-0.1c0-0.2,0-0.3,0-0.5c0-0.1,0-0.3,0-0.4l0.5-0.1c0,0.2,0,0.3,0,0.5
				C137.7,115.3,137.7,115.4,137.7,115.6z M5.3,115.2l-0.5,0c0-0.3,0.1-0.7,0.1-1l0.5,0.1C5.4,114.6,5.3,114.9,5.3,115.2z
				 M137,113.7c-0.1-0.3-0.2-0.6-0.4-0.9l0.4-0.3c0.2,0.3,0.3,0.6,0.5,0.9L137,113.7z M5.8,113.4l-0.4-0.2c0.2-0.3,0.3-0.6,0.6-0.9
				l0.4,0.3C6.1,112.9,5.9,113.1,5.8,113.4z M136,112.1c-0.2-0.2-0.4-0.5-0.7-0.7l0.3-0.4c0.3,0.2,0.5,0.5,0.7,0.7L136,112.1z
				 M6.9,111.9l-0.4-0.4c0.2-0.2,0.5-0.5,0.8-0.7l0.3,0.4C7.4,111.4,7.1,111.7,6.9,111.9z M134.6,110.8c-0.2-0.2-0.5-0.3-0.8-0.5
				l-0.9-0.5l0.2-0.4l0.9,0.5c0.3,0.2,0.6,0.4,0.8,0.5L134.6,110.8z M8.4,110.7l-0.3-0.4c0.1-0.1,0.2-0.1,0.4-0.2l0.5-0.3l0.2,0.4
				l-0.5,0.3C8.7,110.6,8.6,110.6,8.4,110.7z M10.2,109.7l-0.2-0.4l0.9-0.5l0.2,0.4L10.2,109.7z M132,109.3l-0.9-0.5l0.2-0.4
				l0.9,0.5L132,109.3z M11.9,108.7l-0.2-0.4l0.9-0.5l0.2,0.4L11.9,108.7z M130.3,108.3l-0.9-0.5l0.2-0.4l0.9,0.5L130.3,108.3z
				 M13.6,107.7l-0.2-0.4l0.9-0.5l0.2,0.4L13.6,107.7z M128.6,107.3l-0.9-0.5l0.2-0.4l0.9,0.5L128.6,107.3z M15.4,106.7l-0.2-0.4
				l0.9-0.5l0.2,0.4L15.4,106.7z M126.8,106.3l-0.9-0.5l0.2-0.4l0.9,0.5L126.8,106.3z M17.1,105.7l-0.2-0.4l0.9-0.5l0.2,0.4
				L17.1,105.7z M125.1,105.3l-0.9-0.5l0.2-0.4l0.9,0.5L125.1,105.3z M18.8,104.7l-0.2-0.4l0.9-0.5l0.2,0.4L18.8,104.7z
				 M123.4,104.3l-0.9-0.5l0.2-0.4l0.9,0.5L123.4,104.3z M20.6,103.7l-0.2-0.4l0.9-0.5l0.2,0.4L20.6,103.7z M121.6,103.3l-0.9-0.5
				l0.2-0.4l0.9,0.5L121.6,103.3z M22.3,102.7l-0.2-0.4l0.9-0.5l0.2,0.4L22.3,102.7z M119.9,102.3l-0.9-0.5l0.2-0.4l0.9,0.5
				L119.9,102.3z M24,101.7l-0.2-0.4l0.9-0.5l0.2,0.4L24,101.7z M118.2,101.3l-0.9-0.5l0.2-0.4l0.9,0.5L118.2,101.3z M25.8,100.7
				l-0.2-0.4l0.9-0.5l0.2,0.4L25.8,100.7z M116.4,100.3l-0.9-0.5l0.2-0.4l0.9,0.5L116.4,100.3z M27.5,99.7l-0.2-0.4l0.9-0.5l0.2,0.4
				L27.5,99.7z M114.7,99.3l-0.9-0.5l0.2-0.4l0.9,0.5L114.7,99.3z M29.2,98.7L29,98.3l0.9-0.5l0.2,0.4L29.2,98.7z M113,98.3
				l-0.9-0.5l0.2-0.4l0.9,0.5L113,98.3z M31,97.7l-0.2-0.4l0.9-0.5l0.2,0.4L31,97.7z M111.2,97.3l-0.9-0.5l0.2-0.4l0.9,0.5
				L111.2,97.3z M32.7,96.7l-0.2-0.4l0.9-0.5l0.2,0.4L32.7,96.7z M109.5,96.3l-0.9-0.5l0.2-0.4l0.9,0.5L109.5,96.3z M34.4,95.7
				l-0.2-0.4l0.9-0.5l0.2,0.4L34.4,95.7z M107.8,95.3l-0.9-0.5l0.2-0.4l0.9,0.5L107.8,95.3z M36.1,94.7l-0.2-0.4l0.9-0.5l0.2,0.4
				L36.1,94.7z M106,94.3l-0.9-0.5l0.2-0.4l0.9,0.5L106,94.3z M37.9,93.7l-0.2-0.4l0.9-0.5l0.2,0.4L37.9,93.7z M104.3,93.3l-0.9-0.5
				l0.2-0.4l0.9,0.5L104.3,93.3z M39.6,92.7l-0.2-0.4l0.9-0.5l0.2,0.4L39.6,92.7z M102.6,92.3l-0.9-0.5l0.2-0.4l0.9,0.5L102.6,92.3z
				 M41.3,91.7l-0.2-0.4l0.9-0.5l0.2,0.4L41.3,91.7z M100.8,91.3l-0.9-0.5l0.2-0.4l0.9,0.5L100.8,91.3z M43.1,90.7l-0.2-0.4l0.9-0.5
				l0.2,0.4L43.1,90.7z M99.1,90.3l-0.9-0.5l0.2-0.4l0.9,0.5L99.1,90.3z M44.8,89.7l-0.2-0.4l0.9-0.5l0.2,0.4L44.8,89.7z M97.4,89.3
				l-0.9-0.5l0.2-0.4l0.9,0.5L97.4,89.3z M46.5,88.7l-0.2-0.4l0.9-0.5l0.2,0.4L46.5,88.7z M95.6,88.3l-0.9-0.5l0.2-0.4l0.9,0.5
				L95.6,88.3z M48.3,87.7L48,87.3l0.9-0.5l0.2,0.4L48.3,87.7z M93.9,87.3l-0.9-0.5l0.2-0.4l0.9,0.5L93.9,87.3z M50,86.7l-0.2-0.4
				l0.9-0.5l0.2,0.4L50,86.7z M92.2,86.3l-0.9-0.5l0.2-0.4l0.9,0.5L92.2,86.3z M51.7,85.7l-0.2-0.4l0.9-0.5l0.2,0.4L51.7,85.7z
				 M90.5,85.3l-0.9-0.5l0.2-0.4l0.9,0.5L90.5,85.3z M53.5,84.7l-0.2-0.4l0.9-0.5l0.2,0.4L53.5,84.7z M88.7,84.3l-0.9-0.5l0.2-0.4
				l0.9,0.5L88.7,84.3z M55.2,83.7L55,83.3l0.9-0.5l0.2,0.4L55.2,83.7z M87,83.3l-0.9-0.5l0.2-0.4l0.9,0.5L87,83.3z M56.9,82.7
				l-0.2-0.4l0.9-0.5l0.2,0.4L56.9,82.7z M85.3,82.3l-0.9-0.5l0.2-0.4l0.9,0.5L85.3,82.3z M58.7,81.7l-0.2-0.4l0.9-0.5l0.2,0.4
				L58.7,81.7z M83.5,81.3l-0.9-0.5l0.2-0.4l0.9,0.5L83.5,81.3z M60.4,80.7l-0.2-0.4l0.9-0.5l0.2,0.4L60.4,80.7z M81.8,80.3
				l-0.9-0.5l0.2-0.4l0.9,0.5L81.8,80.3z M62.1,79.7l-0.2-0.4l0.9-0.5l0.2,0.4L62.1,79.7z M80.1,79.3L80.1,79.3
				c-0.3-0.2-0.6-0.3-0.9-0.5l0.2-0.5c0.3,0.1,0.5,0.3,0.8,0.4l0.1,0L80.1,79.3z M63.9,78.7l-0.2-0.5c0.3-0.1,0.6-0.3,0.9-0.4
				l0.2,0.5C64.5,78.5,64.2,78.6,63.9,78.7z M78.3,78.4c-0.3-0.1-0.6-0.2-0.9-0.3l0.2-0.5c0.3,0.1,0.6,0.2,1,0.3L78.3,78.4z
				 M65.7,78l-0.1-0.5c0.3-0.1,0.6-0.2,1-0.3l0.1,0.5C66.3,77.9,66,77.9,65.7,78z M76.4,77.8c-0.3-0.1-0.6-0.2-1-0.2l0.1-0.5
				c0.3,0.1,0.7,0.1,1,0.2L76.4,77.8z M67.6,77.6l-0.1-0.5c0.3-0.1,0.7-0.1,1-0.2l0.1,0.5C68.3,77.4,67.9,77.5,67.6,77.6z
				 M74.5,77.4c-0.3,0-0.7-0.1-1-0.1l0-0.5c0.3,0,0.7,0.1,1,0.1L74.5,77.4z M69.6,77.3l0-0.5c0.3,0,0.7-0.1,1-0.1l0,0.5
				C70.2,77.2,69.9,77.3,69.6,77.3z M72.5,77.2c-0.3,0-0.7,0-1,0l0-0.5c0.3,0,0.7,0,1,0L72.5,77.2z"/>
		</g>
	</g>
	<g>
		<g class="st3">
			<path class="st1" d="M133.9,101.9L80.1,70.9c-4.8-2.8-12.5-2.8-17.3,0L8.7,102.1c-4.8,2.8-4.8,7.2,0,10l53.8,31.1
				c4.8,2.8,12.5,2.8,17.3,0l54.1-31.2C138.7,109.2,138.7,104.7,133.9,101.9z"/>
		</g>
		<g>
			<path class="st2" d="M71.1,145.5c-0.2,0-0.4,0-0.6,0l0-0.5c0.2,0,0.4,0,0.6,0l0.4,0l0,0.5L71.1,145.5z M72.5,145.4l0-0.5
				c0.3,0,0.7-0.1,1-0.1l0.1,0.5C73.2,145.4,72.9,145.4,72.5,145.4z M69.5,145.4c-0.3,0-0.7-0.1-1-0.1l0.1-0.5c0.3,0,0.7,0.1,1,0.1
				L69.5,145.4z M74.5,145.2l-0.1-0.5c0.3-0.1,0.7-0.1,1-0.2l0.1,0.5C75.2,145.1,74.9,145.1,74.5,145.2z M67.5,145.2
				c-0.3-0.1-0.7-0.1-1-0.2l0.1-0.5c0.3,0.1,0.6,0.1,1,0.2L67.5,145.2z M76.5,144.8l-0.1-0.5c0.3-0.1,0.6-0.2,0.9-0.3l0.2,0.5
				C77.2,144.6,76.8,144.7,76.5,144.8z M65.5,144.7c-0.3-0.1-0.6-0.2-1-0.3l0.2-0.5c0.3,0.1,0.6,0.2,0.9,0.3L65.5,144.7z
				 M78.4,144.1l-0.2-0.5c0.3-0.1,0.6-0.3,0.9-0.4l0.2,0.4C79.1,143.8,78.7,144,78.4,144.1z M63.6,144c-0.3-0.1-0.6-0.3-0.9-0.4
				l0.2-0.4c0.3,0.2,0.6,0.3,0.9,0.4L63.6,144z M80.2,143.2l-0.2-0.4l0.9-0.5l0.2,0.4L80.2,143.2z M61.8,143.1l-0.9-0.5l0.2-0.4
				l0.9,0.5L61.8,143.1z M82,142.2l-0.2-0.4l0.9-0.5l0.2,0.4L82,142.2z M60.1,142.1l-0.9-0.5l0.2-0.4l0.9,0.5L60.1,142.1z
				 M83.7,141.2l-0.2-0.4l0.9-0.5l0.2,0.4L83.7,141.2z M58.3,141.1l-0.9-0.5l0.2-0.4l0.9,0.5L58.3,141.1z M85.4,140.2l-0.2-0.4
				l0.9-0.5l0.2,0.4L85.4,140.2z M56.6,140.1l-0.9-0.5l0.2-0.4l0.9,0.5L56.6,140.1z M87.2,139.2l-0.2-0.4l0.9-0.5l0.2,0.4
				L87.2,139.2z M54.9,139.1l-0.9-0.5l0.2-0.4l0.9,0.5L54.9,139.1z M88.9,138.2l-0.2-0.4l0.9-0.5l0.2,0.4L88.9,138.2z M53.1,138.1
				l-0.9-0.5l0.2-0.4l0.9,0.5L53.1,138.1z M90.6,137.2l-0.2-0.4l0.9-0.5l0.2,0.4L90.6,137.2z M51.4,137.1l-0.9-0.5l0.2-0.4l0.9,0.5
				L51.4,137.1z M92.4,136.2l-0.2-0.4l0.9-0.5l0.2,0.4L92.4,136.2z M49.7,136.1l-0.9-0.5l0.2-0.4l0.9,0.5L49.7,136.1z M94.1,135.2
				l-0.2-0.4l0.9-0.5l0.2,0.4L94.1,135.2z M47.9,135.1l-0.9-0.5l0.2-0.4l0.9,0.5L47.9,135.1z M95.8,134.2l-0.2-0.4l0.9-0.5l0.2,0.4
				L95.8,134.2z M46.2,134.1l-0.9-0.5l0.2-0.4l0.9,0.5L46.2,134.1z M97.6,133.2l-0.2-0.4l0.9-0.5l0.2,0.4L97.6,133.2z M44.5,133.1
				l-0.9-0.5l0.2-0.4l0.9,0.5L44.5,133.1z M99.3,132.2l-0.2-0.4l0.9-0.5l0.2,0.4L99.3,132.2z M42.8,132.1l-0.9-0.5l0.2-0.4l0.9,0.5
				L42.8,132.1z M101,131.2l-0.2-0.4l0.9-0.5l0.2,0.4L101,131.2z M41,131.1l-0.9-0.5l0.2-0.4l0.9,0.5L41,131.1z M102.8,130.2
				l-0.2-0.4l0.9-0.5l0.2,0.4L102.8,130.2z M39.3,130.1l-0.9-0.5l0.2-0.4l0.9,0.5L39.3,130.1z M104.5,129.2l-0.2-0.4l0.9-0.5
				l0.2,0.4L104.5,129.2z M37.6,129.1l-0.9-0.5l0.2-0.4l0.9,0.5L37.6,129.1z M106.2,128.2l-0.2-0.4l0.9-0.5l0.2,0.4L106.2,128.2z
				 M35.8,128.1l-0.9-0.5l0.2-0.4l0.9,0.5L35.8,128.1z M108,127.2l-0.2-0.4l0.9-0.5l0.2,0.4L108,127.2z M34.1,127.1l-0.9-0.5
				l0.2-0.4l0.9,0.5L34.1,127.1z M109.7,126.2l-0.2-0.4l0.9-0.5l0.2,0.4L109.7,126.2z M32.4,126.1l-0.9-0.5l0.2-0.4l0.9,0.5
				L32.4,126.1z M111.4,125.2l-0.2-0.4l0.9-0.5l0.2,0.4L111.4,125.2z M30.6,125.1l-0.9-0.5l0.2-0.4l0.9,0.5L30.6,125.1z
				 M113.1,124.2l-0.2-0.4l0.9-0.5l0.2,0.4L113.1,124.2z M28.9,124.1l-0.9-0.5l0.2-0.4l0.9,0.5L28.9,124.1z M114.9,123.2l-0.2-0.4
				l0.9-0.5l0.2,0.4L114.9,123.2z M27.2,123.1l-0.9-0.5l0.2-0.4l0.9,0.5L27.2,123.1z M116.6,122.2l-0.2-0.4l0.9-0.5l0.2,0.4
				L116.6,122.2z M25.4,122.1l-0.9-0.5l0.2-0.4l0.9,0.5L25.4,122.1z M118.3,121.2l-0.2-0.4l0.9-0.5l0.2,0.4L118.3,121.2z
				 M23.7,121.1l-0.9-0.5l0.2-0.4l0.9,0.5L23.7,121.1z M120.1,120.2l-0.2-0.4l0.9-0.5l0.2,0.4L120.1,120.2z M22,120.1l-0.9-0.5
				l0.2-0.4l0.9,0.5L22,120.1z M121.8,119.2l-0.2-0.4l0.9-0.5l0.2,0.4L121.8,119.2z M20.2,119.1l-0.9-0.5l0.2-0.4l0.9,0.5
				L20.2,119.1z M123.5,118.2l-0.2-0.4l0.9-0.5l0.2,0.4L123.5,118.2z M18.5,118.1l-0.9-0.5l0.2-0.4l0.9,0.5L18.5,118.1z
				 M125.3,117.2l-0.2-0.4l0.9-0.5l0.2,0.4L125.3,117.2z M16.8,117.1l-0.9-0.5l0.2-0.4l0.9,0.5L16.8,117.1z M127,116.2l-0.2-0.4
				l0.9-0.5l0.2,0.4L127,116.2z M15,116.1l-0.9-0.5l0.2-0.4l0.9,0.5L15,116.1z M128.7,115.2l-0.2-0.4l0.9-0.5l0.2,0.4L128.7,115.2z
				 M13.3,115.1l-0.9-0.5l0.2-0.4l0.9,0.5L13.3,115.1z M130.5,114.2l-0.2-0.4l0.9-0.5l0.2,0.4L130.5,114.2z M11.6,114.1l-0.9-0.5
				l0.2-0.4l0.9,0.5L11.6,114.1z M132.2,113.2l-0.2-0.4l0.9-0.5l0.2,0.4L132.2,113.2z M9.8,113.1L9,112.6l0.2-0.4l0.9,0.5L9.8,113.1
				z M133.9,112.2l-0.2-0.4l0.1,0c0.3-0.2,0.5-0.3,0.8-0.5l0.3,0.4C134.5,111.8,134.3,112,133.9,112.2L133.9,112.2z M8.1,112
				c-0.3-0.2-0.6-0.4-0.8-0.6l0.3-0.4c0.2,0.2,0.5,0.4,0.8,0.6L8.1,112z M135.6,111l-0.3-0.4c0.2-0.2,0.5-0.4,0.7-0.7l0.4,0.3
				C136.1,110.5,135.9,110.8,135.6,111z M6.5,110.8c-0.2-0.3-0.5-0.5-0.7-0.8l0.4-0.3c0.2,0.3,0.4,0.5,0.6,0.7L6.5,110.8z
				 M137,109.4l-0.4-0.3c0.2-0.3,0.3-0.6,0.4-0.9l0.5,0.2C137.3,108.8,137.1,109.1,137,109.4z M5.3,109.1c-0.2-0.3-0.3-0.7-0.4-1
				l0.5-0.1c0.1,0.3,0.2,0.6,0.3,0.9L5.3,109.1z M137.7,107.5l-0.5-0.1c0-0.2,0-0.3,0-0.5c0-0.1,0-0.3,0-0.4l0.5-0.1
				c0,0.2,0,0.3,0,0.5C137.7,107.1,137.7,107.3,137.7,107.5z M5.3,107l-0.5,0c0-0.3,0.1-0.7,0.1-1l0.5,0.1
				C5.4,106.4,5.3,106.7,5.3,107z M137,105.6c-0.1-0.3-0.2-0.6-0.4-0.9l0.4-0.3c0.2,0.3,0.3,0.6,0.5,0.9L137,105.6z M5.8,105.2
				L5.3,105c0.2-0.3,0.3-0.6,0.6-0.9l0.4,0.3C6.1,104.7,5.9,105,5.8,105.2z M136,103.9c-0.2-0.2-0.4-0.5-0.7-0.7l0.3-0.4
				c0.3,0.2,0.5,0.5,0.7,0.7L136,103.9z M6.9,103.7l-0.4-0.4c0.2-0.2,0.5-0.5,0.8-0.7l0.3,0.4C7.4,103.3,7.1,103.5,6.9,103.7z
				 M134.6,102.7c-0.2-0.2-0.5-0.3-0.8-0.5l-0.9-0.5l0.2-0.4l0.9,0.5c0.3,0.2,0.6,0.4,0.8,0.5L134.6,102.7z M8.4,102.5l-0.3-0.4
				c0.1-0.1,0.2-0.1,0.4-0.2l0.5-0.3l0.2,0.4l-0.5,0.3C8.7,102.4,8.6,102.4,8.4,102.5z M10.2,101.5l-0.2-0.4l0.9-0.5L11,101
				L10.2,101.5z M132,101.1l-0.9-0.5l0.2-0.4l0.9,0.5L132,101.1z M11.9,100.5l-0.2-0.4l0.9-0.5l0.2,0.4L11.9,100.5z M130.3,100.1
				l-0.9-0.5l0.2-0.4l0.9,0.5L130.3,100.1z M13.6,99.5l-0.2-0.4l0.9-0.5l0.2,0.4L13.6,99.5z M128.6,99.1l-0.9-0.5l0.2-0.4l0.9,0.5
				L128.6,99.1z M15.4,98.5l-0.2-0.4l0.9-0.5l0.2,0.4L15.4,98.5z M126.8,98.1l-0.9-0.5l0.2-0.4l0.9,0.5L126.8,98.1z M17.1,97.5
				l-0.2-0.4l0.9-0.5L18,97L17.1,97.5z M125.1,97.1l-0.9-0.5l0.2-0.4l0.9,0.5L125.1,97.1z M18.8,96.5l-0.2-0.4l0.9-0.5l0.2,0.4
				L18.8,96.5z M123.4,96.1l-0.9-0.5l0.2-0.4l0.9,0.5L123.4,96.1z M20.6,95.5l-0.2-0.4l0.9-0.5l0.2,0.4L20.6,95.5z M121.6,95.1
				l-0.9-0.5l0.2-0.4l0.9,0.5L121.6,95.1z M22.3,94.5L22,94.1l0.9-0.5l0.2,0.4L22.3,94.5z M119.9,94.1l-0.9-0.5l0.2-0.4l0.9,0.5
				L119.9,94.1z M24,93.5l-0.2-0.4l0.9-0.5l0.2,0.4L24,93.5z M118.2,93.1l-0.9-0.5l0.2-0.4l0.9,0.5L118.2,93.1z M25.8,92.5l-0.2-0.4
				l0.9-0.5l0.2,0.4L25.8,92.5z M116.4,92.1l-0.9-0.5l0.2-0.4l0.9,0.5L116.4,92.1z M27.5,91.5l-0.2-0.4l0.9-0.5l0.2,0.4L27.5,91.5z
				 M114.7,91.1l-0.9-0.5l0.2-0.4l0.9,0.5L114.7,91.1z M29.2,90.5L29,90.1l0.9-0.5l0.2,0.4L29.2,90.5z M113,90.1l-0.9-0.5l0.2-0.4
				l0.9,0.5L113,90.1z M31,89.5l-0.2-0.4l0.9-0.5l0.2,0.4L31,89.5z M111.2,89.1l-0.9-0.5l0.2-0.4l0.9,0.5L111.2,89.1z M32.7,88.5
				l-0.2-0.4l0.9-0.5l0.2,0.4L32.7,88.5z M109.5,88.1l-0.9-0.5l0.2-0.4l0.9,0.5L109.5,88.1z M34.4,87.5l-0.2-0.4l0.9-0.5l0.2,0.4
				L34.4,87.5z M107.8,87.1l-0.9-0.5l0.2-0.4l0.9,0.5L107.8,87.1z M36.1,86.5l-0.2-0.4l0.9-0.5L37,86L36.1,86.5z M106,86.1l-0.9-0.5
				l0.2-0.4l0.9,0.5L106,86.1z M37.9,85.5l-0.2-0.4l0.9-0.5l0.2,0.4L37.9,85.5z M104.3,85.1l-0.9-0.5l0.2-0.4l0.9,0.5L104.3,85.1z
				 M39.6,84.5l-0.2-0.4l0.9-0.5l0.2,0.4L39.6,84.5z M102.6,84.1l-0.9-0.5l0.2-0.4l0.9,0.5L102.6,84.1z M41.3,83.5l-0.2-0.4l0.9-0.5
				l0.2,0.4L41.3,83.5z M100.8,83.1l-0.9-0.5l0.2-0.4l0.9,0.5L100.8,83.1z M43.1,82.5l-0.2-0.4l0.9-0.5l0.2,0.4L43.1,82.5z
				 M99.1,82.1l-0.9-0.5l0.2-0.4l0.9,0.5L99.1,82.1z M44.8,81.5l-0.2-0.4l0.9-0.5l0.2,0.4L44.8,81.5z M97.4,81.1l-0.9-0.5l0.2-0.4
				l0.9,0.5L97.4,81.1z M46.5,80.5l-0.2-0.4l0.9-0.5l0.2,0.4L46.5,80.5z M95.7,80.1l-0.9-0.5l0.2-0.4l0.9,0.5L95.7,80.1z M48.3,79.5
				L48,79.1l0.9-0.5l0.2,0.4L48.3,79.5z M93.9,79.1l-0.9-0.5l0.2-0.4l0.9,0.5L93.9,79.1z M50,78.5l-0.2-0.4l0.9-0.5l0.2,0.4L50,78.5
				z M92.2,78.1l-0.9-0.5l0.2-0.4l0.9,0.5L92.2,78.1z M51.7,77.5l-0.2-0.4l0.9-0.5l0.2,0.4L51.7,77.5z M90.5,77.1l-0.9-0.5l0.2-0.4
				l0.9,0.5L90.5,77.1z M53.5,76.5l-0.2-0.4l0.9-0.5l0.2,0.4L53.5,76.5z M88.7,76.1l-0.9-0.5l0.2-0.4l0.9,0.5L88.7,76.1z M55.2,75.5
				L55,75.1l0.9-0.5l0.2,0.4L55.2,75.5z M87,75.1l-0.9-0.5l0.2-0.4l0.9,0.5L87,75.1z M56.9,74.5l-0.2-0.4l0.9-0.5l0.2,0.4L56.9,74.5
				z M85.3,74.1l-0.9-0.5l0.2-0.4l0.9,0.5L85.3,74.1z M58.7,73.5l-0.2-0.4l0.9-0.5l0.2,0.4L58.7,73.5z M83.5,73.1l-0.9-0.5l0.2-0.4
				l0.9,0.5L83.5,73.1z M60.4,72.5l-0.2-0.4l0.9-0.5l0.2,0.4L60.4,72.5z M81.8,72.1l-0.9-0.5l0.2-0.4l0.9,0.5L81.8,72.1z M62.1,71.5
				l-0.2-0.4l0.9-0.5L63,71L62.1,71.5z M80.1,71.1l-0.1-0.1c-0.2-0.1-0.5-0.3-0.7-0.4l0.2-0.4c0.3,0.1,0.5,0.3,0.8,0.4l0.1,0.1
				L80.1,71.1z M63.9,70.6l-0.2-0.5c0.3-0.1,0.6-0.3,0.9-0.4l0.2,0.5C64.5,70.3,64.2,70.4,63.9,70.6z M78.3,70.3
				c-0.3-0.1-0.6-0.2-0.9-0.3l0.2-0.5c0.3,0.1,0.6,0.2,1,0.3L78.3,70.3z M65.7,69.9l-0.1-0.5c0.3-0.1,0.6-0.2,1-0.3l0.1,0.5
				C66.3,69.7,66,69.8,65.7,69.9z M76.4,69.7c-0.3-0.1-0.6-0.2-1-0.2l0.1-0.5c0.3,0.1,0.7,0.1,1,0.2L76.4,69.7z M67.6,69.4l-0.1-0.5
				c0.3-0.1,0.7-0.1,1-0.2l0.1,0.5C68.3,69.3,67.9,69.3,67.6,69.4z M74.5,69.3c-0.3,0-0.7-0.1-1-0.1l0.1-0.5c0.3,0,0.7,0.1,1,0.1
				L74.5,69.3z M69.6,69.1l0-0.5c0.3,0,0.7-0.1,1-0.1l0,0.5C70.2,69.1,69.9,69.1,69.6,69.1z M72.5,69.1c-0.3,0-0.7,0-1,0l0-0.5
				c0.3,0,0.7,0,1,0L72.5,69.1z"/>
		</g>
	</g>
	<g>
		<path class="st4" d="M102.8,87.8l-6.1-7.1l6.1,0c0.8,0,1.4-0.3,1.9-0.9c0.5-0.6,0.7-1.4,0.7-2.4c0-1-0.2-2.1-0.7-3.2
			c-0.5-1.1-1.1-2.2-1.9-3.1L96.7,64l6.1,0c0.8,0,1.4-0.3,1.9-0.9c0.5-0.6,0.7-1.4,0.7-2.4s-0.2-2.1-0.7-3.2
			c-0.5-1.1-1.1-2.2-1.9-3.1L74,21.1c-0.6-0.7-1.4-1.3-2.1-1.8c-0.7-0.4-1.4-0.6-2.1-0.6l-28.9,0c-0.5,0-1,0.2-1.4,0.5
			c-0.4,0.3-0.7,0.7-0.9,1.3c-0.2,0.6-0.3,1.2-0.2,1.9c0,0.7,0.2,1.5,0.5,2.3c0.5,1.3,1.2,2.6,2.1,3.6l6.1,7l-6.1,0
			c-0.8,0-1.4,0.3-1.9,0.9c-0.5,0.6-0.7,1.4-0.7,2.4c0,1,0.2,2.1,0.7,3.2c0.5,1.1,1.1,2.2,1.9,3.1l6.1,7.1l-6.1,0
			c-1.1,0-1.9,0.6-2.3,1.8c-0.4,1.1-0.3,2.6,0.2,4.2c0.5,1.3,1.2,2.6,2.1,3.6L69.8,95c0.6,0.7,1.4,1.3,2.1,1.8
			c0.7,0.4,1.4,0.6,2.1,0.6l28.9,0c0.8,0,1.4-0.3,1.9-0.9c0.5-0.6,0.7-1.4,0.7-2.4c0-1-0.2-2.1-0.7-3.2
			C104.3,89.7,103.6,88.7,102.8,87.8L102.8,87.8z"/>
	</g>
	<g>
		<path class="st1" d="M96.4,94.2l-6.1-7.1l6.1,0c0.8,0,1.4-0.3,1.9-0.9s0.7-1.4,0.7-2.4c0-1-0.2-2.1-0.7-3.2
			c-0.5-1.1-1.1-2.2-1.9-3.1l-6.1-7.1l6.1,0c0.8,0,1.4-0.3,1.9-0.9c0.5-0.6,0.7-1.4,0.7-2.4c0-1-0.2-2.1-0.7-3.2
			c-0.5-1.1-1.1-2.2-1.9-3.1L67.6,27.5c-0.6-0.7-1.4-1.3-2.1-1.8c-0.7-0.4-1.4-0.6-2.1-0.6l-28.9,0c-0.5,0-1,0.2-1.4,0.5
			c-0.4,0.3-0.7,0.7-0.9,1.3C32,27.4,32,28.1,32,28.8c0,0.7,0.2,1.5,0.5,2.3c0.5,1.3,1.2,2.6,2.1,3.6l6.1,7l-6.1,0
			c-0.8,0-1.4,0.3-1.9,0.9c-0.5,0.6-0.7,1.4-0.7,2.4c0,1,0.2,2.1,0.7,3.2c0.5,1.1,1.1,2.2,1.9,3.1l6.1,7.1l-6.1,0
			c-1.1,0-1.9,0.6-2.3,1.8c-0.4,1.1-0.3,2.6,0.2,4.2c0.5,1.3,1.2,2.6,2.1,3.6l28.9,33.3c0.6,0.7,1.4,1.3,2.1,1.8
			c0.7,0.4,1.4,0.6,2.1,0.6l28.9,0c0.8,0,1.4-0.3,1.9-0.9c0.5-0.6,0.7-1.4,0.7-2.4c0-1-0.2-2.1-0.7-3.2
			C97.9,96.1,97.2,95.1,96.4,94.2z M47,53.8l4,0l12.4,14.3c0.6,0.7,1.4,1.3,2.1,1.8c0.7,0.4,1.4,0.6,2.1,0.6l12.4,0l4,4.7l-18.5,0
			L47,53.8z M51.1,70.4l12.4,14.3c0.6,0.7,1.4,1.3,2.1,1.8c0.7,0.4,1.4,0.6,2.1,0.6l12.4,0l4,4.7l-18.5,0L47,70.4L51.1,70.4z"/>
		<path class="st5" d="M69.6,104h-1v-0.5h1V104z M67.6,104c-0.3,0-0.7-0.1-1.1-0.2l0.1-0.5c0.3,0.1,0.6,0.1,0.9,0.2L67.6,104z
			 M73.6,104h-1v-0.5h1V104z M71.6,104h-1v-0.5h1V104z M77.6,104h-1v-0.5h1V104z M75.6,104h-1v-0.5h1V104z M81.6,104h-1v-0.5h1V104z
			 M79.6,104h-1v-0.5h1V104z M85.6,104h-1v-0.5h1V104z M83.6,104h-1v-0.5h1V104z M89.6,104h-1v-0.5h1V104z M87.6,104h-1v-0.5h1V104z
			 M93.6,104h-1v-0.5h1V104z M91.6,104h-1v-0.5h1V104z M95.6,104h-1v-0.5h1V104z M96.6,104l0-0.5c0.3,0,0.6-0.1,0.9-0.2l0.2,0.4
			C97.3,103.9,97,104,96.6,104z M65.5,103.5l-0.2-0.1c-0.2-0.1-0.5-0.3-0.7-0.5l0.3-0.4c0.2,0.2,0.4,0.3,0.7,0.4l0.1,0.1L65.5,103.5
			z M98.5,103l-0.2-0.1l-0.2-0.2c0.2-0.2,0.3-0.5,0.4-0.8l0.5,0.2C98.9,102.5,98.7,102.8,98.5,103z M63.9,102.2
			c-0.2-0.2-0.4-0.4-0.6-0.7l-0.1-0.1l0.4-0.3l0.1,0.1c0.2,0.2,0.4,0.4,0.6,0.6L63.9,102.2z M99.2,101.1l-0.5-0.1c0-0.2,0-0.4,0-0.6
			c0-0.1,0-0.2,0-0.4l0.5,0c0,0.1,0,0.3,0,0.4C99.3,100.7,99.3,100.9,99.2,101.1z M62.5,100.7l-0.7-0.8l0.4-0.3l0.7,0.8L62.5,100.7z
			 M61.2,99.2l-0.7-0.8l0.4-0.3l0.7,0.8L61.2,99.2z M98.6,99.1c-0.1-0.3-0.1-0.6-0.2-0.9l0.5-0.1c0.1,0.3,0.2,0.7,0.2,1L98.6,99.1z
			 M59.9,97.7l-0.7-0.8l0.4-0.3l0.7,0.8L59.9,97.7z M98.1,97.3c-0.1-0.3-0.3-0.6-0.4-0.9l0.4-0.2c0.2,0.3,0.3,0.6,0.4,0.9L98.1,97.3
			z M58.6,96.2l-0.7-0.8l0.4-0.3l0.7,0.8L58.6,96.2z M97.2,95.5c-0.2-0.3-0.4-0.5-0.6-0.8l0.4-0.3c0.2,0.3,0.4,0.5,0.6,0.8
			L97.2,95.5z M57.3,94.7l-0.7-0.8l0.4-0.3l0.7,0.8L57.3,94.7z M96.3,94.3l-0.7-0.8l0.4-0.3l0.7,0.8L96.3,94.3z M56,93.2l-0.7-0.8
			l0.4-0.3l0.7,0.8L56,93.2z M95,92.8l-0.7-0.8l0.4-0.3l0.7,0.8L95,92.8z M68.4,92h-1v-0.5h1V92z M66.4,92h-1l-0.2-0.2l0.3-0.2v-0.1
			h0.9V92z M74.4,92h-1v-0.5h1V92z M72.4,92h-1v-0.5h1V92z M70.4,92h-1v-0.5h1V92z M80.4,92h-1v-0.5h1V92z M78.4,92h-1v-0.5h1V92z
			 M76.4,92h-1v-0.5h1V92z M84.5,92h-1.2v-0.5h0.4l0.2-0.2L84.5,92z M82.4,92h-1v-0.5h1V92z M54.7,91.7L54,90.9l0.4-0.3l0.7,0.8
			L54.7,91.7z M93.6,91.3L93,90.6l0.4-0.3L94,91L93.6,91.3z M64.6,91.1l-0.7-0.8l0.4-0.3l0.7,0.8L64.6,91.1z M82.9,90.9l-0.7-0.8
			l0.4-0.3l0.7,0.8L82.9,90.9z M53.4,90.1l-0.7-0.8l0.4-0.3l0.7,0.8L53.4,90.1z M92.3,89.8L91.7,89l0.4-0.3l0.7,0.8L92.3,89.8z
			 M63.3,89.6l-0.7-0.8l0.4-0.3l0.7,0.8L63.3,89.6z M81.6,89.4l-0.7-0.8l0.4-0.3l0.7,0.8L81.6,89.4z M52.1,88.6l-0.7-0.8l0.4-0.3
			l0.7,0.8L52.1,88.6z M91,88.3l-0.7-0.8l0.4-0.3l0.7,0.8L91,88.3z M61.9,88.1l-0.7-0.8l0.4-0.3l0.7,0.8L61.9,88.1z M80.3,87.9
			l-0.5-0.5h-0.1v-0.5h0.3l0.6,0.7L80.3,87.9z M67.8,87.4l0-0.5l1,0l0,0.5L67.8,87.4z M96,87.4l-1,0l0-0.5l1,0L96,87.4z M69.8,87.4
			l0-0.5l1,0l0,0.5L69.8,87.4z M94,87.4l-1,0l0-0.5l1,0L94,87.4z M71.8,87.4l0-0.5l1,0l0,0.5L71.8,87.4z M92,87.4l-1,0l0-0.5l1,0
			L92,87.4z M73.8,87.4l0-0.5l1,0l0,0.5L73.8,87.4z M75.8,87.4v-0.5l1,0v0.5L75.8,87.4z M77.8,87.4l0-0.5l1,0l0,0.5L77.8,87.4z
			 M97,87.3l-0.1-0.5c0.3-0.1,0.6-0.2,0.8-0.4l0.3,0.4C97.7,87.1,97.4,87.2,97,87.3z M66.7,87.3c-0.3-0.1-0.7-0.2-1-0.4l0.2-0.4
			c0.3,0.1,0.6,0.3,0.9,0.3L66.7,87.3z M50.7,87.1l-0.7-0.8l0.4-0.3l0.7,0.8L50.7,87.1z M60.6,86.5L60,85.8l0.4-0.3l0.7,0.8
			L60.6,86.5z M64.8,86.4c-0.3-0.2-0.5-0.4-0.8-0.6l0.3-0.4c0.2,0.2,0.5,0.4,0.8,0.6L64.8,86.4z M98.8,86l-0.4-0.2
			c0.1-0.3,0.3-0.5,0.3-0.9l0.5,0.1C99,85.4,98.9,85.7,98.8,86z M49.4,85.6l-0.7-0.8l0.4-0.3l0.7,0.8L49.4,85.6z M59.3,85l-0.7-0.8
			l0.4-0.3l0.7,0.8L59.3,85z M63.3,85l-0.7-0.8l0.4-0.3l0.7,0.8L63.3,85z M48.1,84.1l-0.7-0.8l0.4-0.3l0.7,0.8L48.1,84.1z M99.3,84
			l-0.5,0l0-0.2c0-0.3,0-0.5,0-0.8l0.5-0.1c0,0.3,0.1,0.6,0.1,0.8L99.3,84z M58,83.5l-0.7-0.8l0.4-0.3l0.7,0.8L58,83.5z M62,83.5
			l-0.7-0.8l0.4-0.3l0.7,0.8L62,83.5z M46.8,82.6l-0.7-0.8l0.4-0.3l0.7,0.8L46.8,82.6z M98.5,82.1c-0.1-0.3-0.2-0.6-0.3-0.9l0.5-0.2
			c0.1,0.3,0.2,0.7,0.3,1L98.5,82.1z M56.7,82l-0.7-0.8l0.4-0.3l0.7,0.8L56.7,82z M60.7,81.9L60,81.2l0.4-0.3l0.7,0.8L60.7,81.9z
			 M45.5,81.1l-0.7-0.8l0.4-0.3l0.7,0.8L45.5,81.1z M55.4,80.5l-0.7-0.8l0.4-0.3l0.7,0.8L55.4,80.5z M59.4,80.4l-0.7-0.8l0.4-0.3
			l0.7,0.8L59.4,80.4z M97.9,80.2c-0.1-0.3-0.3-0.6-0.4-0.9l0.4-0.2c0.2,0.3,0.3,0.6,0.5,0.9L97.9,80.2z M44.2,79.6l-0.7-0.8
			l0.4-0.3l0.7,0.8L44.2,79.6z M54.1,79l-0.7-0.8l0.4-0.3l0.7,0.8L54.1,79z M58.1,78.9l-0.7-0.8l0.4-0.3l0.7,0.8L58.1,78.9z
			 M96.9,78.5c-0.2-0.3-0.4-0.5-0.6-0.8l0.4-0.3c0.2,0.3,0.4,0.5,0.6,0.8L96.9,78.5z M42.9,78l-0.7-0.8l0.4-0.3l0.7,0.8L42.9,78z
			 M52.8,77.5l-0.7-0.8l0.4-0.3l0.7,0.8L52.8,77.5z M56.8,77.4l-0.7-0.8l0.4-0.3l0.7,0.8L56.8,77.4z M95.7,77L95,76.2l0.4-0.3
			l0.7,0.8L95.7,77z M41.6,76.5l-0.7-0.8l0.4-0.3l0.7,0.8L41.6,76.5z M51.5,76l-0.7-0.8l0.4-0.3l0.7,0.8L51.5,76z M55.5,75.9
			l-0.7-0.8l0.4-0.3l0.7,0.8L55.5,75.9z M94.4,75.5l-0.7-0.8l0.4-0.3l0.7,0.8L94.4,75.5z M65.4,75.4l-0.1-0.2l0.3-0.2l0-0.1l0.9,0
			l0,0.5L65.4,75.4z M67.4,75.4v-0.5l1,0v0.5L67.4,75.4z M69.4,75.4v-0.5l1,0v0.5L69.4,75.4z M71.4,75.4l0-0.5l1,0v0.5L71.4,75.4z
			 M73.4,75.4v-0.5l1,0v0.5L73.4,75.4z M75.4,75.4v-0.5l1,0v0.5L75.4,75.4z M77.4,75.4v-0.5l1,0v0.5L77.4,75.4z M79.4,75.4v-0.5l1,0
			v0.5L79.4,75.4z M81.4,75.4v-0.5l1,0v0.5L81.4,75.4z M83.4,75.4v-0.5h0.3l0.3-0.2l0.6,0.7L83.4,75.4z M40.3,75l-0.7-0.8l0.4-0.3
			l0.7,0.8L40.3,75z M50.2,74.4l-0.7-0.8l0.4-0.3l0.7,0.8L50.2,74.4z M64.6,74.4l-0.7-0.8l0.4-0.3l0.7,0.8L64.6,74.4z M54.2,74.4
			l-0.7-0.8l0.4-0.3l0.7,0.8L54.2,74.4z M82.9,74.2l-0.7-0.8l0.4-0.3l0.7,0.8L82.9,74.2z M93.1,74l-0.7-0.8l0.4-0.3l0.7,0.8L93.1,74
			z M39,73.5l-0.7-0.8l0.4-0.3l0.7,0.8L39,73.5z M48.9,72.9l-0.7-0.8l0.4-0.3l0.7,0.8L48.9,72.9z M63.3,72.9l-0.7-0.8l0.4-0.3
			l0.7,0.8L63.3,72.9z M52.8,72.9l-0.7-0.8l0.4-0.3l0.7,0.8L52.8,72.9z M81.6,72.7l-0.7-0.8l0.4-0.3l0.7,0.8L81.6,72.7z M91.8,72.5
			l-0.7-0.8l0.4-0.3l0.7,0.8L91.8,72.5z M37.6,72L37,71.2l0.4-0.3l0.7,0.8L37.6,72z M47.5,71.4l-0.7-0.8l0.4-0.3l0.7,0.8L47.5,71.4z
			 M62,71.4l-0.7-0.8l0.4-0.3l0.7,0.8L62,71.4z M51.5,71.4l-0.6-0.7v0l-1,0l0-0.5l1,0l0,0.4l0.3-0.3l0.7,0.8L51.5,71.4z M80.3,71.2
			l-0.4-0.5h-0.1l0-0.5l0.3,0l0.6,0.7L80.3,71.2z M90.4,70.9l-0.7-0.8l1.1,0v0.5h-0.1L90.4,70.9z M67.7,70.7l0-0.5l1,0l0,0.5
			L67.7,70.7z M96.4,70.7l-0.6,0v-0.5l0.6,0c0.1,0,0.3,0,0.4,0l0.1,0.5C96.8,70.7,96.6,70.7,96.4,70.7z M69.7,70.7l0-0.5l1,0l0,0.5
			L69.7,70.7z M94.9,70.7l-1,0v-0.5l1,0V70.7z M71.7,70.7l0-0.5l1,0v0.5L71.7,70.7z M92.9,70.7l-1,0v-0.5l1,0V70.7z M47.9,70.7
			l0-0.5l1,0l0,0.5L47.9,70.7z M73.7,70.7l0-0.5l1,0l0,0.5L73.7,70.7z M75.7,70.7v-0.5l1,0v0.5L75.7,70.7z M77.7,70.7v-0.5l1,0v0.5
			L77.7,70.7z M66.7,70.6c-0.3-0.1-0.6-0.2-1-0.4l0.2-0.4c0.3,0.2,0.6,0.3,0.9,0.3L66.7,70.6z M36.3,70.5l-0.7-0.8l0.4-0.3l0.7,0.8
			L36.3,70.5z M97.9,70.3l-0.3-0.4c0.2-0.1,0.3-0.3,0.5-0.4c0-0.1,0.1-0.1,0.1-0.2l0.4,0.3c-0.1,0.1-0.1,0.2-0.2,0.2
			C98.4,69.9,98.2,70.1,97.9,70.3z M60.7,69.9L60,69.1l0.4-0.3l0.7,0.8L60.7,69.9z M64.8,69.6c-0.3-0.2-0.5-0.4-0.8-0.7l0.3-0.4
			c0.2,0.2,0.5,0.4,0.7,0.6L64.8,69.6z M35,69l-0.7-0.8l0.4-0.3l0.7,0.8L35,69z M99.1,68.5l-0.5-0.1c0.1-0.3,0.1-0.6,0.1-0.9l0.5,0
			C99.2,67.8,99.2,68.2,99.1,68.5z M59.4,68.4l-0.7-0.8l0.4-0.3l0.7,0.8L59.4,68.4z M63.3,68.3l-0.7-0.8l0.4-0.3l0.7,0.8L63.3,68.3z
			 M33.7,67.4c-0.2-0.3-0.4-0.6-0.6-0.9l0.4-0.3c0.2,0.3,0.3,0.6,0.5,0.8L33.7,67.4z M58,66.9l-0.7-0.8l0.4-0.3l0.7,0.8L58,66.9z
			 M62,66.7L61.3,66l0.4-0.3l0.7,0.8L62,66.7z M98.7,66.5c0-0.3-0.1-0.6-0.2-1l0.5-0.1c0.1,0.3,0.1,0.7,0.2,1L98.7,66.5z M32.7,65.7
			c-0.1-0.3-0.3-0.6-0.4-0.9l0.5-0.2c0.1,0.3,0.2,0.6,0.4,0.9L32.7,65.7z M56.7,65.4l-0.7-0.8l0.4-0.3l0.7,0.8L56.7,65.4z
			 M60.7,65.2L60,64.5l0.4-0.3l0.7,0.8L60.7,65.2z M98.3,64.6c-0.1-0.2-0.1-0.4-0.2-0.6c0-0.1-0.1-0.2-0.1-0.3l0.5-0.2
			c0.1,0.1,0.1,0.2,0.2,0.4c0.1,0.2,0.2,0.4,0.2,0.6L98.3,64.6z M55.4,63.9l-0.7-0.8l0.4-0.3l0.7,0.8L55.4,63.9z M32,63.7
			c-0.1-0.3-0.2-0.7-0.2-1l0.5-0.1c0,0.3,0.1,0.6,0.2,1L32,63.7z M59.4,63.7L58.7,63l0.4-0.3l0.7,0.8L59.4,63.7z M97.5,62.8
			c-0.2-0.3-0.3-0.6-0.5-0.8l0.4-0.3c0.2,0.3,0.4,0.6,0.5,0.9L97.5,62.8z M54.1,62.3l-0.7-0.8l0.4-0.3l0.7,0.8L54.1,62.3z M58,62.2
			l-0.7-0.8l0.4-0.3l0.7,0.8L58,62.2z M32.2,61.7l-0.5,0c0-0.4,0-0.7,0.1-1l0.5,0.1C32.3,61,32.2,61.4,32.2,61.7z M96.4,61.2
			l-0.6-0.8l0.4-0.3l0.7,0.8L96.4,61.2z M52.8,60.8l-0.7-0.8l0.4-0.3l0.7,0.8L52.8,60.8z M56.7,60.7l-0.7-0.8l0.4-0.3l0.7,0.8
			L56.7,60.7z M32.6,59.9l-0.4-0.2c0.2-0.3,0.4-0.6,0.7-0.9l0.3,0.4C33,59.4,32.8,59.6,32.6,59.9z M95.1,59.7l-0.7-0.8l0.4-0.3
			l0.7,0.8L95.1,59.7z M51.5,59.3l-0.7-0.8l0.4-0.3l0.7,0.8L51.5,59.3z M55.4,59.2l-0.7-0.8l0.4-0.3l0.7,0.8L55.4,59.2z M34,58.8
			l-0.1-0.5c0.2-0.1,0.5-0.1,0.7-0.1h0.3v0.5h-0.3C34.4,58.7,34.2,58.7,34,58.8z M41.2,58.7l-1.3,0v-0.5l0.7,0l0.1-0.1L41.2,58.7z
			 M38.9,58.7l-1,0v-0.5l1,0V58.7z M36.9,58.7l-1,0v-0.5l1,0V58.7z M93.8,58.2l-0.7-0.8l0.4-0.3l0.7,0.8L93.8,58.2z M50.2,57.8
			L49.5,57l0.4-0.3l0.7,0.8L50.2,57.8z M39.7,57.7L39,56.9l0.4-0.3l0.7,0.8L39.7,57.7z M54.1,57.7l-0.7-0.8l0.4-0.3l0.7,0.8
			L54.1,57.7z M92.5,56.6l-0.7-0.8l0.4-0.3l0.7,0.8L92.5,56.6z M48.9,56.3l-0.7-0.8l0.4-0.3l0.7,0.8L48.9,56.3z M38.4,56.2l-0.7-0.8
			l0.4-0.3l0.7,0.8L38.4,56.2z M52.8,56.2l-0.7-0.8l0.4-0.3l0.7,0.8L52.8,56.2z M91.2,55.1l-0.7-0.8l0.4-0.3l0.7,0.8L91.2,55.1z
			 M47.6,54.8L46.9,54l0.1-0.1v-0.4h1V54h-0.5l0.4,0.4L47.6,54.8z M37.1,54.7l-0.7-0.8l0.4-0.3l0.7,0.8L37.1,54.7z M51.5,54.6
			l-0.6-0.7l0.2-0.1l0-0.3h0.2l0.7,0.8L51.5,54.6z M50,54h-1v-0.5h1V54z M89.9,53.6l-0.7-0.8l0.4-0.3l0.7,0.8L89.9,53.6z M35.8,53.1
			l-0.7-0.8l0.4-0.3l0.7,0.8L35.8,53.1z M88.6,52.1l-0.7-0.8l0.4-0.3l0.7,0.8L88.6,52.1z M34.4,51.6L34.4,51.6
			c-0.3-0.3-0.5-0.6-0.6-0.8l0.4-0.3c0.2,0.2,0.3,0.5,0.5,0.7l0.1,0.1L34.4,51.6z M87.2,50.6l-0.7-0.8l0.4-0.3l0.7,0.8L87.2,50.6z
			 M33.2,50c-0.2-0.3-0.3-0.6-0.5-0.9l0.4-0.2c0.1,0.3,0.3,0.6,0.5,0.9L33.2,50z M85.9,49.1l-0.7-0.8l0.4-0.3l0.7,0.8L85.9,49.1z
			 M32.3,48.2c-0.1-0.3-0.2-0.6-0.3-1l0.5-0.1c0.1,0.3,0.2,0.6,0.3,0.9L32.3,48.2z M84.6,47.6L84,46.8l0.4-0.3l0.7,0.8L84.6,47.6z
			 M31.8,46.2c-0.1-0.4-0.1-0.7-0.1-1l0.5,0c0,0.3,0,0.6,0.1,1L31.8,46.2z M83.3,46.1l-0.7-0.8L83,45l0.7,0.8L83.3,46.1z M82,44.5
			l-0.7-0.8l0.4-0.3l0.7,0.8L82,44.5z M32.3,44.2l-0.5-0.1c0.1-0.4,0.2-0.7,0.3-1l0.5,0.2C32.5,43.6,32.4,43.9,32.3,44.2z M80.7,43
			L80,42.3l0.4-0.3l0.7,0.8L80.7,43z M33.1,42.6l-0.3-0.4c0.3-0.3,0.6-0.4,1-0.6l0.1,0.5C33.6,42.2,33.3,42.4,33.1,42.6z M35.8,42
			h-1v-0.5h1V42z M38.8,42v-0.5l1,0V42L38.8,42z M37.8,42h-1v-0.5h1V42z M40.4,41.9l-0.7-0.8l0.4-0.3l0.7,0.8L40.4,41.9z M79.4,41.5
			l-0.7-0.8l0.4-0.3l0.7,0.8L79.4,41.5z M39.1,40.3l-0.7-0.8l0.4-0.3l0.7,0.8L39.1,40.3z M78.1,40l-0.7-0.8l0.4-0.3l0.7,0.8L78.1,40
			z M37.8,38.8l-0.7-0.8l0.4-0.3l0.7,0.8L37.8,38.8z M76.8,38.5l-0.7-0.8l0.4-0.3l0.7,0.8L76.8,38.5z M36.5,37.3l-0.7-0.8l0.4-0.3
			l0.7,0.8L36.5,37.3z M75.5,37l-0.7-0.8l0.4-0.3l0.7,0.8L75.5,37z M35.2,35.8l-0.7-0.8l0.4-0.3l0.7,0.8L35.2,35.8z M74.2,35.5
			l-0.7-0.8l0.4-0.3l0.7,0.8L74.2,35.5z M33.9,34.3c-0.2-0.3-0.4-0.6-0.6-0.8l0.4-0.3c0.2,0.3,0.4,0.5,0.5,0.8L33.9,34.3z M72.8,34
			l-0.7-0.8l0.4-0.3l0.7,0.8L72.8,34z M32.8,32.5c-0.2-0.3-0.3-0.6-0.4-0.9l0.5-0.2c0.1,0.3,0.2,0.6,0.4,0.9L32.8,32.5z M71.5,32.5
			l-0.7-0.8l0.4-0.3l0.7,0.8L71.5,32.5z M70.2,30.9l-0.7-0.8l0.4-0.3l0.7,0.8L70.2,30.9z M32.1,30.6c-0.1-0.3-0.2-0.7-0.2-1l0.5-0.1
			c0.1,0.3,0.1,0.6,0.2,0.9L32.1,30.6z M68.9,29.4l-0.7-0.8l0.4-0.3l0.7,0.8L68.9,29.4z M31.7,28.6l0-0.2c0-0.3,0-0.6,0.1-0.9
			l0.5,0.1c0,0.3-0.1,0.5-0.1,0.8l0,0.1L31.7,28.6z M67.6,27.9l-0.2-0.2c-0.1-0.2-0.3-0.3-0.4-0.5l0.4-0.4c0.2,0.2,0.3,0.3,0.5,0.5
			l0.2,0.2L67.6,27.9z M32.6,26.7l-0.5-0.2c0.2-0.4,0.4-0.7,0.6-0.9L33,26C32.8,26.2,32.7,26.4,32.6,26.7z M66.2,26.5
			c-0.3-0.2-0.5-0.4-0.8-0.5l0.3-0.4c0.3,0.2,0.6,0.4,0.9,0.6L66.2,26.5z M64.6,25.6c-0.3-0.1-0.6-0.2-0.9-0.2l0-0.5
			c0.3,0,0.7,0.1,1,0.2L64.6,25.6z M33.8,25.5L33.6,25c0.3-0.1,0.6-0.2,0.9-0.2h0.1v0.5h-0.1C34.3,25.4,34,25.4,33.8,25.5z
			 M36.7,25.4h-1v-0.5h1V25.4z M38.7,25.4h-1v-0.5h1V25.4z M39.7,25.4v-0.5l1,0v0.5L39.7,25.4z M41.7,25.4v-0.5l1,0v0.5L41.7,25.4z
			 M43.7,25.4v-0.5l1,0v0.5L43.7,25.4z M46.7,25.4h-1v-0.5h1V25.4z M48.7,25.4h-1v-0.5h1V25.4z M50.7,25.4h-1v-0.5h1V25.4z
			 M51.7,25.4v-0.5l1,0v0.5L51.7,25.4z M53.7,25.4v-0.5l1,0v0.5L53.7,25.4z M55.7,25.4v-0.5l1,0v0.5L55.7,25.4z M58.7,25.4h-1v-0.5
			h1V25.4z M60.7,25.4h-1v-0.5h1V25.4z M61.7,25.4v-0.5l1,0v0.5L61.7,25.4z"/>
	</g>
</g>
</svg>
