<?xml version="1.0" encoding="utf-8"?>
<!-- Generator: Adobe Illustrator 26.4.1, SVG Export Plug-In . SVG Version: 6.00 Build 0)  -->
<svg version="1.1" id="图层_1" xmlns="http://www.w3.org/2000/svg" xmlns:xlink="http://www.w3.org/1999/xlink" x="0px" y="0px"
	 viewBox="0 0 143 145" style="enable-background:new 0 0 143 145;" xml:space="preserve">
<style type="text/css">
	.st0{opacity:0.1;}
	.st1{fill:#FFFFFF;}
	.st2{fill:#D1D1D1;}
	.st3{opacity:0.3;}
	.st4{fill-rule:evenodd;clip-rule:evenodd;fill:#4C67EF;}
	.st5{fill-rule:evenodd;clip-rule:evenodd;fill:#FFFFFF;}
	.st6{fill:#6674A6;}
</style>
<g>
	<g>
		<g class="st0">
			<path class="st1" d="M133.9,93.2l-53.8-31c-4.8-2.8-12.5-2.8-17.3,0L8.7,93.4c-4.8,2.8-4.8,7.2,0,10l53.8,31
				c4.8,2.8,12.5,2.8,17.3,0l54.1-31.2C138.7,100.5,138.7,96,133.9,93.2z"/>
		</g>
		<g>
			<path class="st2" d="M71.1,136.8c-0.2,0-0.4,0-0.6,0l0-0.5c0.3,0,0.7,0,1,0l0,0.5C71.4,136.8,71.2,136.8,71.1,136.8z M72.5,136.7
				l0-0.5c0.3,0,0.7-0.1,1-0.1l0.1,0.5C73.2,136.7,72.9,136.7,72.5,136.7z M69.5,136.7c-0.3,0-0.7-0.1-1-0.1l0.1-0.5
				c0.3,0,0.7,0.1,1,0.1L69.5,136.7z M74.5,136.5l-0.1-0.5c0.3-0.1,0.7-0.1,1-0.2l0.1,0.5C75.2,136.4,74.9,136.5,74.5,136.5z
				 M67.5,136.5c-0.3-0.1-0.7-0.1-1-0.2l0.1-0.5c0.3,0.1,0.6,0.1,1,0.2L67.5,136.5z M76.5,136.1l-0.1-0.5c0.3-0.1,0.6-0.2,0.9-0.3
				l0.2,0.5C77.2,135.9,76.8,136,76.5,136.1z M65.5,136c-0.3-0.1-0.6-0.2-1-0.3l0.2-0.5c0.3,0.1,0.6,0.2,0.9,0.3L65.5,136z
				 M78.4,135.4l-0.2-0.5c0.3-0.1,0.6-0.3,0.9-0.4l0.2,0.4C79.1,135.1,78.7,135.3,78.4,135.4z M63.6,135.3c-0.3-0.1-0.6-0.3-0.9-0.4
				l0.2-0.4c0.3,0.2,0.6,0.3,0.9,0.4L63.6,135.3z M80.2,134.5L80,134l0.9-0.5l0.2,0.4L80.2,134.5z M61.8,134.4l-0.9-0.5l0.2-0.4
				l0.9,0.5L61.8,134.4z M82,133.5l-0.2-0.4l0.9-0.5l0.2,0.4L82,133.5z M60.1,133.4l-0.9-0.5l0.2-0.4l0.9,0.5L60.1,133.4z
				 M83.7,132.5l-0.2-0.4l0.9-0.5l0.2,0.4L83.7,132.5z M58.3,132.4l-0.9-0.5l0.2-0.4l0.9,0.5L58.3,132.4z M85.4,131.5l-0.2-0.4
				l0.9-0.5l0.2,0.4L85.4,131.5z M56.6,131.4l-0.9-0.5l0.2-0.4l0.9,0.5L56.6,131.4z M87.2,130.5l-0.2-0.4l0.9-0.5L88,130L87.2,130.5
				z M54.9,130.4l-0.9-0.5l0.2-0.4l0.9,0.5L54.9,130.4z M88.9,129.5l-0.2-0.4l0.9-0.5l0.2,0.4L88.9,129.5z M53.1,129.4l-0.9-0.5
				l0.2-0.4l0.9,0.5L53.1,129.4z M90.6,128.5l-0.2-0.4l0.9-0.5l0.2,0.4L90.6,128.5z M51.4,128.4l-0.9-0.5l0.2-0.4l0.9,0.5
				L51.4,128.4z M92.4,127.5l-0.2-0.4l0.9-0.5l0.2,0.4L92.4,127.5z M49.7,127.4l-0.9-0.5l0.2-0.4l0.9,0.5L49.7,127.4z M94.1,126.5
				l-0.2-0.4l0.9-0.5L95,126L94.1,126.5z M47.9,126.4l-0.9-0.5l0.2-0.4l0.9,0.5L47.9,126.4z M95.8,125.5l-0.2-0.4l0.9-0.5l0.2,0.4
				L95.8,125.5z M46.2,125.4l-0.9-0.5l0.2-0.4l0.9,0.5L46.2,125.4z M97.6,124.5l-0.2-0.4l0.9-0.5l0.2,0.4L97.6,124.5z M44.5,124.4
				l-0.9-0.5l0.2-0.4l0.9,0.5L44.5,124.4z M99.3,123.5L99,123l0.9-0.5l0.2,0.4L99.3,123.5z M42.8,123.4l-0.9-0.5l0.2-0.4L43,123
				L42.8,123.4z M101,122.5l-0.2-0.4l0.9-0.5l0.2,0.4L101,122.5z M41,122.4l-0.9-0.5l0.2-0.4l0.9,0.5L41,122.4z M102.8,121.5
				l-0.2-0.4l0.9-0.5l0.2,0.4L102.8,121.5z M39.3,121.4l-0.9-0.5l0.2-0.4l0.9,0.5L39.3,121.4z M104.5,120.5l-0.2-0.4l0.9-0.5
				l0.2,0.4L104.5,120.5z M37.6,120.4l-0.9-0.5l0.2-0.4l0.9,0.5L37.6,120.4z M106.2,119.5L106,119l0.9-0.5l0.2,0.4L106.2,119.5z
				 M35.8,119.4l-0.9-0.5l0.2-0.4l0.9,0.5L35.8,119.4z M108,118.5l-0.2-0.4l0.9-0.5l0.2,0.4L108,118.5z M34.1,118.4l-0.9-0.5
				l0.2-0.4l0.9,0.5L34.1,118.4z M109.7,117.5l-0.2-0.4l0.9-0.5l0.2,0.4L109.7,117.5z M32.4,117.4l-0.9-0.5l0.2-0.4l0.9,0.5
				L32.4,117.4z M111.4,116.5l-0.2-0.4l0.9-0.5l0.2,0.4L111.4,116.5z M30.6,116.4l-0.9-0.5l0.2-0.4l0.9,0.5L30.6,116.4z
				 M113.1,115.5l-0.2-0.4l0.9-0.5l0.2,0.4L113.1,115.5z M28.9,115.4l-0.9-0.5l0.2-0.4l0.9,0.5L28.9,115.4z M114.9,114.5l-0.2-0.4
				l0.9-0.5l0.2,0.4L114.9,114.5z M27.2,114.4l-0.9-0.5l0.2-0.4l0.9,0.5L27.2,114.4z M116.6,113.5l-0.2-0.4l0.9-0.5l0.2,0.4
				L116.6,113.5z M25.4,113.4l-0.9-0.5l0.2-0.4l0.9,0.5L25.4,113.4z M118.3,112.5l-0.2-0.4l0.9-0.5l0.2,0.4L118.3,112.5z
				 M23.7,112.4l-0.9-0.5l0.2-0.4l0.9,0.5L23.7,112.4z M120.1,111.5l-0.2-0.4l0.9-0.5l0.2,0.4L120.1,111.5z M22,111.4l-0.9-0.5
				l0.2-0.4l0.9,0.5L22,111.4z M121.8,110.5l-0.2-0.4l0.9-0.5l0.2,0.4L121.8,110.5z M20.2,110.4l-0.9-0.5l0.2-0.4l0.9,0.5
				L20.2,110.4z M123.5,109.5l-0.2-0.4l0.9-0.5l0.2,0.4L123.5,109.5z M18.5,109.4l-0.9-0.5l0.2-0.4l0.9,0.5L18.5,109.4z
				 M125.3,108.5L125,108l0.9-0.5l0.2,0.4L125.3,108.5z M16.8,108.4l-0.9-0.5l0.2-0.4L17,108L16.8,108.4z M127,107.5l-0.2-0.4
				l0.9-0.5l0.2,0.4L127,107.5z M15,107.4l-0.9-0.5l0.2-0.4l0.9,0.5L15,107.4z M128.7,106.5l-0.2-0.4l0.9-0.5l0.2,0.4L128.7,106.5z
				 M13.3,106.4l-0.9-0.5l0.2-0.4l0.9,0.5L13.3,106.4z M130.5,105.5l-0.2-0.4l0.9-0.5l0.2,0.4L130.5,105.5z M11.6,105.4l-0.9-0.5
				l0.2-0.4l0.9,0.5L11.6,105.4z M132.2,104.5l-0.2-0.4l0.9-0.5l0.2,0.4L132.2,104.5z M9.8,104.4L9,103.9l0.2-0.4l0.9,0.5L9.8,104.4
				z M133.9,103.5l-0.3-0.4l0.1,0c0.3-0.2,0.5-0.3,0.8-0.5l0.3,0.4C134.5,103.1,134.3,103.3,133.9,103.5L133.9,103.5z M8.1,103.4
				c-0.3-0.2-0.6-0.4-0.8-0.6l0.3-0.4c0.2,0.2,0.5,0.4,0.8,0.6L8.1,103.4z M135.6,102.3l-0.3-0.4c0.2-0.2,0.5-0.4,0.7-0.7l0.4,0.3
				C136.1,101.8,135.9,102.1,135.6,102.3z M6.5,102.1c-0.2-0.3-0.5-0.5-0.7-0.8l0.4-0.3c0.2,0.3,0.4,0.5,0.6,0.7L6.5,102.1z
				 M137,100.7l-0.4-0.3c0.2-0.3,0.3-0.6,0.4-0.9l0.5,0.2C137.3,100.1,137.1,100.4,137,100.7z M5.3,100.4c-0.2-0.3-0.3-0.7-0.4-1
				l0.5-0.1c0.1,0.3,0.2,0.6,0.3,0.9L5.3,100.4z M137.7,98.8l-0.5-0.1c0-0.2,0-0.3,0-0.5c0-0.1,0-0.3,0-0.4l0.5-0.1
				c0,0.2,0,0.3,0,0.5C137.7,98.4,137.7,98.6,137.7,98.8z M5.3,98.4l-0.5,0c0-0.3,0-0.7,0.1-1l0.5,0.1C5.4,97.8,5.3,98.1,5.3,98.4z
				 M137,96.9c-0.1-0.3-0.2-0.6-0.4-0.9l0.4-0.3c0.2,0.3,0.3,0.6,0.5,0.9L137,96.9z M5.8,96.6l-0.4-0.2c0.1-0.3,0.3-0.6,0.6-0.9
				l0.4,0.3C6.1,96,5.9,96.3,5.8,96.6z M136,95.2c-0.2-0.2-0.4-0.5-0.7-0.7l0.3-0.4c0.3,0.2,0.5,0.5,0.7,0.7L136,95.2z M6.9,95
				l-0.4-0.4c0.2-0.2,0.5-0.5,0.8-0.7l0.3,0.4C7.4,94.6,7.1,94.8,6.9,95z M134.6,94c-0.3-0.2-0.5-0.4-0.8-0.5l-0.9-0.5l0.2-0.4
				L134,93c0.3,0.2,0.6,0.4,0.8,0.5L134.6,94z M8.4,93.8l-0.3-0.4c0.1-0.1,0.2-0.1,0.4-0.2l0.5-0.3l0.2,0.4l-0.5,0.3
				C8.7,93.7,8.6,93.8,8.4,93.8z M10.2,92.8l-0.2-0.4l0.9-0.5l0.2,0.4L10.2,92.8z M132,92.4l-0.9-0.5l0.2-0.4l0.9,0.5L132,92.4z
				 M11.9,91.8l-0.2-0.4l0.9-0.5l0.2,0.4L11.9,91.8z M130.3,91.4l-0.9-0.5l0.2-0.4l0.9,0.5L130.3,91.4z M13.6,90.8l-0.2-0.4l0.9-0.5
				l0.2,0.4L13.6,90.8z M128.6,90.4l-0.9-0.5l0.2-0.4l0.9,0.5L128.6,90.4z M15.4,89.8l-0.2-0.4l0.9-0.5l0.2,0.4L15.4,89.8z
				 M126.8,89.4l-0.9-0.5l0.2-0.4l0.9,0.5L126.8,89.4z M17.1,88.8l-0.2-0.4l0.9-0.5l0.2,0.4L17.1,88.8z M125.1,88.4l-0.9-0.5
				l0.2-0.4l0.9,0.5L125.1,88.4z M18.8,87.8l-0.2-0.4l0.9-0.5l0.2,0.4L18.8,87.8z M123.4,87.4l-0.9-0.5l0.2-0.4l0.9,0.5L123.4,87.4z
				 M20.6,86.8l-0.2-0.4l0.9-0.5l0.2,0.4L20.6,86.8z M121.6,86.4l-0.9-0.5l0.2-0.4l0.9,0.5L121.6,86.4z M22.3,85.8L22,85.4l0.9-0.5
				l0.2,0.4L22.3,85.8z M119.9,85.4l-0.9-0.5l0.2-0.4l0.9,0.5L119.9,85.4z M24,84.8l-0.2-0.4l0.9-0.5l0.2,0.4L24,84.8z M118.2,84.4
				l-0.9-0.5l0.2-0.4l0.9,0.5L118.2,84.4z M25.8,83.8l-0.2-0.4l0.9-0.5l0.2,0.4L25.8,83.8z M116.4,83.4l-0.9-0.5l0.2-0.4l0.9,0.5
				L116.4,83.4z M27.5,82.8l-0.2-0.4l0.9-0.5l0.2,0.4L27.5,82.8z M114.7,82.4l-0.9-0.5l0.2-0.4L115,82L114.7,82.4z M29.2,81.8
				L29,81.4l0.9-0.5l0.2,0.4L29.2,81.8z M113,81.4l-0.9-0.5l0.2-0.4l0.9,0.5L113,81.4z M31,80.8l-0.2-0.4l0.9-0.5l0.2,0.4L31,80.8z
				 M111.2,80.4l-0.9-0.5l0.2-0.4l0.9,0.5L111.2,80.4z M32.7,79.8l-0.2-0.4l0.9-0.5l0.2,0.4L32.7,79.8z M109.5,79.4l-0.9-0.5
				l0.2-0.4l0.9,0.5L109.5,79.4z M34.4,78.8l-0.2-0.4l0.9-0.5l0.2,0.4L34.4,78.8z M107.8,78.4l-0.9-0.5l0.2-0.4L108,78L107.8,78.4z
				 M36.1,77.8l-0.2-0.4l0.9-0.5l0.2,0.4L36.1,77.8z M106,77.4l-0.9-0.5l0.2-0.4l0.9,0.5L106,77.4z M37.9,76.8l-0.2-0.4l0.9-0.5
				l0.2,0.4L37.9,76.8z M104.3,76.4l-0.9-0.5l0.2-0.4l0.9,0.5L104.3,76.4z M39.6,75.8l-0.2-0.4l0.9-0.5l0.2,0.4L39.6,75.8z
				 M102.6,75.4l-0.9-0.5l0.2-0.4l0.9,0.5L102.6,75.4z M41.3,74.8l-0.2-0.4l0.9-0.5l0.2,0.4L41.3,74.8z M100.8,74.4l-0.9-0.5
				l0.2-0.4l0.9,0.5L100.8,74.4z M43.1,73.8l-0.2-0.4l0.9-0.5l0.2,0.4L43.1,73.8z M99.1,73.4l-0.9-0.5l0.2-0.4l0.9,0.5L99.1,73.4z
				 M44.8,72.8l-0.2-0.4l0.9-0.5l0.2,0.4L44.8,72.8z M97.4,72.4l-0.9-0.5l0.2-0.4l0.9,0.5L97.4,72.4z M46.5,71.8l-0.2-0.4l0.9-0.5
				l0.2,0.4L46.5,71.8z M95.6,71.4l-0.9-0.5l0.2-0.4l0.9,0.5L95.6,71.4z M48.3,70.8L48,70.4l0.9-0.5l0.2,0.4L48.3,70.8z M93.9,70.4
				l-0.9-0.5l0.2-0.4l0.9,0.5L93.9,70.4z M50,69.8l-0.2-0.4l0.9-0.5l0.2,0.4L50,69.8z M92.2,69.4l-0.9-0.5l0.2-0.4l0.9,0.5
				L92.2,69.4z M51.7,68.8l-0.2-0.4l0.9-0.5l0.2,0.4L51.7,68.8z M90.5,68.4l-0.9-0.5l0.2-0.4l0.9,0.5L90.5,68.4z M53.5,67.8
				l-0.2-0.4l0.9-0.5l0.2,0.4L53.5,67.8z M88.7,67.4l-0.9-0.5l0.2-0.4L89,67L88.7,67.4z M55.2,66.8L55,66.4l0.9-0.5l0.2,0.4
				L55.2,66.8z M87,66.4l-0.9-0.5l0.2-0.4l0.9,0.5L87,66.4z M56.9,65.8l-0.2-0.4l0.9-0.5l0.2,0.4L56.9,65.8z M85.3,65.4l-0.9-0.5
				l0.2-0.4l0.9,0.5L85.3,65.4z M58.7,64.8l-0.2-0.4l0.9-0.5l0.2,0.4L58.7,64.8z M83.5,64.4l-0.9-0.5l0.2-0.4l0.9,0.5L83.5,64.4z
				 M60.4,63.8l-0.2-0.4l0.9-0.5l0.2,0.4L60.4,63.8z M81.8,63.4l-0.9-0.5l0.2-0.4L82,63L81.8,63.4z M62.1,62.8l-0.2-0.4l0.9-0.5
				l0.2,0.4L62.1,62.8z M80.1,62.4L80.1,62.4c-0.3-0.2-0.6-0.3-0.9-0.5l0.2-0.5c0.3,0.1,0.5,0.3,0.8,0.4l0.1,0L80.1,62.4z
				 M63.9,61.9l-0.2-0.5c0.3-0.1,0.6-0.3,0.9-0.4l0.2,0.5C64.5,61.6,64.2,61.8,63.9,61.9z M78.3,61.6c-0.3-0.1-0.6-0.2-0.9-0.3
				l0.2-0.5c0.3,0.1,0.6,0.2,1,0.3L78.3,61.6z M65.7,61.2l-0.1-0.5c0.3-0.1,0.6-0.2,1-0.3l0.1,0.5C66.3,61,66,61.1,65.7,61.2z
				 M76.4,61c-0.3-0.1-0.6-0.2-1-0.2l0.1-0.5c0.3,0.1,0.7,0.1,1,0.2L76.4,61z M67.6,60.7l-0.1-0.5c0.3-0.1,0.7-0.1,1-0.2l0.1,0.5
				C68.3,60.6,67.9,60.6,67.6,60.7z M74.5,60.6c-0.3,0-0.7-0.1-1-0.1l0-0.5c0.3,0,0.7,0.1,1,0.1L74.5,60.6z M69.6,60.4l0-0.5
				c0.3,0,0.7-0.1,1-0.1l0,0.5C70.2,60.4,69.9,60.4,69.6,60.4z M72.5,60.4c-0.3,0-0.7,0-1,0l0-0.5c0.3,0,0.7,0,1,0L72.5,60.4z"/>
		</g>
	</g>
	<g>
		<g class="st3">
			<path class="st1" d="M133.9,85.1L80.1,54c-4.8-2.8-12.5-2.8-17.3,0L8.7,85.2c-4.8,2.8-4.8,7.2,0,10l53.8,31.1
				c4.8,2.8,12.5,2.8,17.3,0l54.1-31.2C138.7,92.3,138.7,87.8,133.9,85.1z"/>
		</g>
		<g>
			<path class="st2" d="M71.1,128.6c-0.2,0-0.4,0-0.6,0l0-0.5c0.2,0,0.4,0,0.6,0l0.4,0l0,0.5L71.1,128.6z M72.5,128.6l0-0.5
				c0.3,0,0.7-0.1,1-0.1l0.1,0.5C73.2,128.5,72.9,128.6,72.5,128.6z M69.5,128.6c-0.3,0-0.7-0.1-1-0.1l0.1-0.5c0.3,0,0.7,0.1,1,0.1
				L69.5,128.6z M74.5,128.3l-0.1-0.5c0.3-0.1,0.7-0.1,1-0.2l0.1,0.5C75.2,128.2,74.9,128.3,74.5,128.3z M67.5,128.3
				c-0.3-0.1-0.7-0.1-1-0.2l0.1-0.5c0.3,0.1,0.6,0.1,1,0.2L67.5,128.3z M76.5,127.9l-0.1-0.5c0.3-0.1,0.6-0.2,0.9-0.3l0.2,0.5
				C77.2,127.7,76.8,127.8,76.5,127.9z M65.5,127.8c-0.3-0.1-0.6-0.2-1-0.3l0.2-0.5c0.3,0.1,0.6,0.2,0.9,0.3L65.5,127.8z
				 M78.4,127.2l-0.2-0.5c0.3-0.1,0.6-0.3,0.9-0.4l0.2,0.4C79.1,127,78.7,127.1,78.4,127.2z M63.6,127.1c-0.3-0.1-0.6-0.3-0.9-0.4
				l0.2-0.4c0.3,0.2,0.6,0.3,0.9,0.4L63.6,127.1z M80.2,126.3l-0.2-0.4l0.9-0.5l0.2,0.4L80.2,126.3z M61.8,126.2l-0.9-0.5l0.2-0.4
				l0.9,0.5L61.8,126.2z M82,125.3l-0.2-0.4l0.9-0.5l0.2,0.4L82,125.3z M60.1,125.2l-0.9-0.5l0.2-0.4l0.9,0.5L60.1,125.2z
				 M83.7,124.3l-0.2-0.4l0.9-0.5l0.2,0.4L83.7,124.3z M58.3,124.2l-0.9-0.5l0.2-0.4l0.9,0.5L58.3,124.2z M85.4,123.3l-0.2-0.4
				l0.9-0.5l0.2,0.4L85.4,123.3z M56.6,123.2l-0.9-0.5l0.2-0.4l0.9,0.5L56.6,123.2z M87.2,122.3l-0.2-0.4l0.9-0.5l0.2,0.4
				L87.2,122.3z M54.9,122.2l-0.9-0.5l0.2-0.4l0.9,0.5L54.9,122.2z M88.9,121.3l-0.2-0.4l0.9-0.5l0.2,0.4L88.9,121.3z M53.1,121.2
				l-0.9-0.5l0.2-0.4l0.9,0.5L53.1,121.2z M90.6,120.3l-0.2-0.4l0.9-0.5l0.2,0.4L90.6,120.3z M51.4,120.2l-0.9-0.5l0.2-0.4l0.9,0.5
				L51.4,120.2z M92.4,119.3l-0.2-0.4l0.9-0.5l0.2,0.4L92.4,119.3z M49.7,119.2l-0.9-0.5l0.2-0.4l0.9,0.5L49.7,119.2z M94.1,118.3
				l-0.2-0.4l0.9-0.5l0.2,0.4L94.1,118.3z M47.9,118.2l-0.9-0.5l0.2-0.4l0.9,0.5L47.9,118.2z M95.8,117.3l-0.2-0.4l0.9-0.5l0.2,0.4
				L95.8,117.3z M46.2,117.2l-0.9-0.5l0.2-0.4l0.9,0.5L46.2,117.2z M97.6,116.3l-0.2-0.4l0.9-0.5l0.2,0.4L97.6,116.3z M44.5,116.2
				l-0.9-0.5l0.2-0.4l0.9,0.5L44.5,116.2z M99.3,115.3l-0.2-0.4l0.9-0.5l0.2,0.4L99.3,115.3z M42.8,115.2l-0.9-0.5l0.2-0.4l0.9,0.5
				L42.8,115.2z M101,114.3l-0.2-0.4l0.9-0.5l0.2,0.4L101,114.3z M41,114.2l-0.9-0.5l0.2-0.4l0.9,0.5L41,114.2z M102.8,113.3
				l-0.2-0.4l0.9-0.5l0.2,0.4L102.8,113.3z M39.3,113.2l-0.9-0.5l0.2-0.4l0.9,0.5L39.3,113.2z M104.5,112.3l-0.2-0.4l0.9-0.5
				l0.2,0.4L104.5,112.3z M37.6,112.2l-0.9-0.5l0.2-0.4l0.9,0.5L37.6,112.2z M106.2,111.3l-0.2-0.4l0.9-0.5l0.2,0.4L106.2,111.3z
				 M35.8,111.2l-0.9-0.5l0.2-0.4l0.9,0.5L35.8,111.2z M108,110.3l-0.2-0.4l0.9-0.5l0.2,0.4L108,110.3z M34.1,110.2l-0.9-0.5
				l0.2-0.4l0.9,0.5L34.1,110.2z M109.7,109.3l-0.2-0.4l0.9-0.5l0.2,0.4L109.7,109.3z M32.4,109.2l-0.9-0.5l0.2-0.4l0.9,0.5
				L32.4,109.2z M111.4,108.3l-0.2-0.4l0.9-0.5l0.2,0.4L111.4,108.3z M30.6,108.2l-0.9-0.5l0.2-0.4l0.9,0.5L30.6,108.2z
				 M113.1,107.3l-0.2-0.4l0.9-0.5l0.2,0.4L113.1,107.3z M28.9,107.2l-0.9-0.5l0.2-0.4l0.9,0.5L28.9,107.2z M114.9,106.3l-0.2-0.4
				l0.9-0.5l0.2,0.4L114.9,106.3z M27.2,106.2l-0.9-0.5l0.2-0.4l0.9,0.5L27.2,106.2z M116.6,105.3l-0.2-0.4l0.9-0.5l0.2,0.4
				L116.6,105.3z M25.4,105.2l-0.9-0.5l0.2-0.4l0.9,0.5L25.4,105.2z M118.3,104.3l-0.2-0.4l0.9-0.5l0.2,0.4L118.3,104.3z
				 M23.7,104.2l-0.9-0.5l0.2-0.4l0.9,0.5L23.7,104.2z M120.1,103.3l-0.2-0.4l0.9-0.5l0.2,0.4L120.1,103.3z M22,103.2l-0.9-0.5
				l0.2-0.4l0.9,0.5L22,103.2z M121.8,102.3l-0.2-0.4l0.9-0.5l0.2,0.4L121.8,102.3z M20.2,102.2l-0.9-0.5l0.2-0.4l0.9,0.5
				L20.2,102.2z M123.5,101.3l-0.2-0.4l0.9-0.5l0.2,0.4L123.5,101.3z M18.5,101.2l-0.9-0.5l0.2-0.4l0.9,0.5L18.5,101.2z
				 M125.3,100.3l-0.2-0.4l0.9-0.5l0.2,0.4L125.3,100.3z M16.8,100.2l-0.9-0.5l0.2-0.4l0.9,0.5L16.8,100.2z M127,99.3l-0.2-0.4
				l0.9-0.5l0.2,0.4L127,99.3z M15,99.2l-0.9-0.5l0.2-0.4l0.9,0.5L15,99.2z M128.7,98.3l-0.2-0.4l0.9-0.5l0.2,0.4L128.7,98.3z
				 M13.3,98.2l-0.9-0.5l0.2-0.4l0.9,0.5L13.3,98.2z M130.5,97.3l-0.2-0.4l0.9-0.5l0.2,0.4L130.5,97.3z M11.6,97.2l-0.9-0.5l0.2-0.4
				l0.9,0.5L11.6,97.2z M132.2,96.3l-0.2-0.4l0.9-0.5l0.2,0.4L132.2,96.3z M9.8,96.2L9,95.7l0.2-0.4l0.9,0.5L9.8,96.2z M133.9,95.3
				l-0.2-0.4l0.1,0c0.3-0.2,0.5-0.3,0.8-0.5l0.3,0.4C134.5,95,134.3,95.1,133.9,95.3L133.9,95.3z M8.1,95.2
				c-0.3-0.2-0.6-0.4-0.8-0.6l0.3-0.4c0.2,0.2,0.5,0.4,0.8,0.6L8.1,95.2z M135.6,94.2l-0.3-0.4c0.2-0.2,0.5-0.4,0.7-0.7l0.4,0.3
				C136.1,93.7,135.9,93.9,135.6,94.2z M6.5,93.9c-0.2-0.3-0.5-0.5-0.7-0.8l0.4-0.3c0.2,0.3,0.4,0.5,0.6,0.7L6.5,93.9z M137,92.6
				l-0.4-0.3c0.2-0.3,0.3-0.6,0.4-0.9l0.5,0.2C137.3,92,137.2,92.3,137,92.6z M5.3,92.2c-0.2-0.3-0.3-0.7-0.4-1l0.5-0.1
				c0.1,0.3,0.2,0.6,0.3,0.9L5.3,92.2z M137.7,90.6l-0.5-0.1c0-0.2,0-0.3,0-0.5c0-0.1,0-0.3,0-0.4l0.5-0.1c0,0.2,0,0.3,0,0.5
				C137.7,90.3,137.7,90.4,137.7,90.6z M5.3,90.2l-0.5,0c0-0.3,0.1-0.7,0.1-1l0.5,0.1C5.4,89.6,5.3,89.9,5.3,90.2z M137,88.7
				c-0.1-0.3-0.2-0.6-0.4-0.9l0.4-0.3c0.2,0.3,0.3,0.6,0.5,0.9L137,88.7z M5.8,88.4l-0.4-0.2c0.2-0.3,0.3-0.6,0.6-0.9l0.4,0.3
				C6.1,87.8,5.9,88.1,5.8,88.4z M136,87.1c-0.2-0.2-0.4-0.5-0.7-0.7l0.3-0.4c0.3,0.2,0.5,0.5,0.7,0.7L136,87.1z M6.9,86.8l-0.4-0.4
				c0.2-0.2,0.5-0.5,0.8-0.7l0.3,0.4C7.4,86.4,7.1,86.6,6.9,86.8z M134.6,85.8c-0.2-0.2-0.5-0.3-0.8-0.5l-0.9-0.5l0.2-0.4l0.9,0.5
				c0.3,0.2,0.6,0.4,0.8,0.5L134.6,85.8z M8.4,85.6l-0.3-0.4c0.1-0.1,0.2-0.1,0.4-0.2l0.5-0.3l0.2,0.4l-0.5,0.3
				C8.7,85.5,8.6,85.6,8.4,85.6z M10.2,84.6l-0.2-0.4l0.9-0.5l0.2,0.4L10.2,84.6z M132,84.3l-0.9-0.5l0.2-0.4l0.9,0.5L132,84.3z
				 M11.9,83.6l-0.2-0.4l0.9-0.5l0.2,0.4L11.9,83.6z M130.3,83.3l-0.9-0.5l0.2-0.4l0.9,0.5L130.3,83.3z M13.6,82.6l-0.2-0.4l0.9-0.5
				l0.2,0.4L13.6,82.6z M128.6,82.3l-0.9-0.5l0.2-0.4l0.9,0.5L128.6,82.3z M15.4,81.6l-0.2-0.4l0.9-0.5l0.2,0.4L15.4,81.6z
				 M126.8,81.3l-0.9-0.5l0.2-0.4l0.9,0.5L126.8,81.3z M17.1,80.6l-0.2-0.4l0.9-0.5l0.2,0.4L17.1,80.6z M125.1,80.3l-0.9-0.5
				l0.2-0.4l0.9,0.5L125.1,80.3z M18.8,79.6l-0.2-0.4l0.9-0.5l0.2,0.4L18.8,79.6z M123.4,79.3l-0.9-0.5l0.2-0.4l0.9,0.5L123.4,79.3z
				 M20.6,78.6l-0.2-0.4l0.9-0.5l0.2,0.4L20.6,78.6z M121.6,78.3l-0.9-0.5l0.2-0.4l0.9,0.5L121.6,78.3z M22.3,77.6L22,77.2l0.9-0.5
				l0.2,0.4L22.3,77.6z M119.9,77.3l-0.9-0.5l0.2-0.4l0.9,0.5L119.9,77.3z M24,76.6l-0.2-0.4l0.9-0.5l0.2,0.4L24,76.6z M118.2,76.3
				l-0.9-0.5l0.2-0.4l0.9,0.5L118.2,76.3z M25.8,75.6l-0.2-0.4l0.9-0.5l0.2,0.4L25.8,75.6z M116.4,75.3l-0.9-0.5l0.2-0.4l0.9,0.5
				L116.4,75.3z M27.5,74.6l-0.2-0.4l0.9-0.5l0.2,0.4L27.5,74.6z M114.7,74.3l-0.9-0.5l0.2-0.4l0.9,0.5L114.7,74.3z M29.2,73.6
				L29,73.2l0.9-0.5l0.2,0.4L29.2,73.6z M113,73.3l-0.9-0.5l0.2-0.4l0.9,0.5L113,73.3z M31,72.6l-0.2-0.4l0.9-0.5l0.2,0.4L31,72.6z
				 M111.2,72.3l-0.9-0.5l0.2-0.4l0.9,0.5L111.2,72.3z M32.7,71.6l-0.2-0.4l0.9-0.5l0.2,0.4L32.7,71.6z M109.5,71.3l-0.9-0.5
				l0.2-0.4l0.9,0.5L109.5,71.3z M34.4,70.6l-0.2-0.4l0.9-0.5l0.2,0.4L34.4,70.6z M107.8,70.3l-0.9-0.5l0.2-0.4l0.9,0.5L107.8,70.3z
				 M36.1,69.6l-0.2-0.4l0.9-0.5l0.2,0.4L36.1,69.6z M106,69.3l-0.9-0.5l0.2-0.4l0.9,0.5L106,69.3z M37.9,68.6l-0.2-0.4l0.9-0.5
				l0.2,0.4L37.9,68.6z M104.3,68.3l-0.9-0.5l0.2-0.4l0.9,0.5L104.3,68.3z M39.6,67.6l-0.2-0.4l0.9-0.5l0.2,0.4L39.6,67.6z
				 M102.6,67.3l-0.9-0.5l0.2-0.4l0.9,0.5L102.6,67.3z M41.3,66.6l-0.2-0.4l0.9-0.5l0.2,0.4L41.3,66.6z M100.8,66.3l-0.9-0.5
				l0.2-0.4l0.9,0.5L100.8,66.3z M43.1,65.6l-0.2-0.4l0.9-0.5l0.2,0.4L43.1,65.6z M99.1,65.3l-0.9-0.5l0.2-0.4l0.9,0.5L99.1,65.3z
				 M44.8,64.6l-0.2-0.4l0.9-0.5l0.2,0.4L44.8,64.6z M97.4,64.3l-0.9-0.5l0.2-0.4l0.9,0.5L97.4,64.3z M46.5,63.6l-0.2-0.4l0.9-0.5
				l0.2,0.4L46.5,63.6z M95.7,63.3l-0.9-0.5l0.2-0.4l0.9,0.5L95.7,63.3z M48.3,62.6L48,62.2l0.9-0.5l0.2,0.4L48.3,62.6z M93.9,62.3
				l-0.9-0.5l0.2-0.4l0.9,0.5L93.9,62.3z M50,61.6l-0.2-0.4l0.9-0.5l0.2,0.4L50,61.6z M92.2,61.3l-0.9-0.5l0.2-0.4l0.9,0.5
				L92.2,61.3z M51.7,60.6l-0.2-0.4l0.9-0.5l0.2,0.4L51.7,60.6z M90.5,60.3l-0.9-0.5l0.2-0.4l0.9,0.5L90.5,60.3z M53.5,59.6
				l-0.2-0.4l0.9-0.5l0.2,0.4L53.5,59.6z M88.7,59.3l-0.9-0.5l0.2-0.4l0.9,0.5L88.7,59.3z M55.2,58.6L55,58.2l0.9-0.5l0.2,0.4
				L55.2,58.6z M87,58.3l-0.9-0.5l0.2-0.4l0.9,0.5L87,58.3z M56.9,57.6l-0.2-0.4l0.9-0.5l0.2,0.4L56.9,57.6z M85.3,57.3l-0.9-0.5
				l0.2-0.4l0.9,0.5L85.3,57.3z M58.7,56.6l-0.2-0.4l0.9-0.5l0.2,0.4L58.7,56.6z M83.5,56.3l-0.9-0.5l0.2-0.4l0.9,0.5L83.5,56.3z
				 M60.4,55.6l-0.2-0.4l0.9-0.5l0.2,0.4L60.4,55.6z M81.8,55.3l-0.9-0.5l0.2-0.4l0.9,0.5L81.8,55.3z M62.1,54.6l-0.2-0.4l0.9-0.5
				l0.2,0.4L62.1,54.6z M80.1,54.3l-0.1-0.1c-0.2-0.1-0.5-0.3-0.7-0.4l0.2-0.4c0.3,0.1,0.5,0.3,0.8,0.4l0.1,0.1L80.1,54.3z
				 M63.9,53.7l-0.2-0.5c0.3-0.1,0.6-0.3,0.9-0.4l0.2,0.5C64.5,53.4,64.2,53.6,63.9,53.7z M78.3,53.4c-0.3-0.1-0.6-0.2-0.9-0.3
				l0.2-0.5c0.3,0.1,0.6,0.2,1,0.3L78.3,53.4z M65.7,53l-0.1-0.5c0.3-0.1,0.6-0.2,1-0.3l0.1,0.5C66.3,52.8,66,52.9,65.7,53z
				 M76.4,52.8c-0.3-0.1-0.6-0.2-1-0.2l0.1-0.5c0.3,0.1,0.7,0.1,1,0.2L76.4,52.8z M67.6,52.5L67.5,52c0.3-0.1,0.7-0.1,1-0.2l0.1,0.5
				C68.3,52.4,67.9,52.5,67.6,52.5z M74.5,52.4c-0.3,0-0.7-0.1-1-0.1l0.1-0.5c0.3,0,0.7,0.1,1,0.1L74.5,52.4z M69.6,52.3l0-0.5
				c0.3,0,0.7-0.1,1-0.1l0,0.5C70.2,52.2,69.9,52.2,69.6,52.3z M72.5,52.2c-0.3,0-0.7,0-1,0l0-0.5c0.3,0,0.7,0,1,0L72.5,52.2z"/>
		</g>
	</g>
	<g>
		<path class="st4" d="M78,33.6c1.3,2.2,3,4,4.7,5l8.9,5.1v46.6c0,2-0.7,3.5-1.9,4.1c-1.2,0.7-2.8,0.5-4.5-0.4L51.6,74.5
			c-1.2-0.7-2.3-1.9-3.1-3.3c-0.8-1.4-1.3-3-1.3-4.4V5.1c0-1.4,0.5-2.4,1.3-2.9c0.8-0.5,2-0.4,3.1,0.3l24.5,14.1V27
			C76.1,29,76.8,31.4,78,33.6z M91.7,38.6l-8.9-5.1c-0.6-0.3-1.2-0.9-1.6-1.7c-0.4-0.7-0.7-1.5-0.7-2.2V19.3L91.7,38.6z"/>
	</g>
	<g>
		<path class="st5" d="M84.7,42.4l-8.9-5.1c-0.6-0.3-1.2-0.9-1.6-1.7c-0.4-0.7-0.7-1.5-0.7-2.2V23.1L84.7,42.4z M71,37.4
			c1.3,2.2,3,4,4.7,5l8.9,5.1v46.6c0,2-0.7,3.5-1.9,4.1c-1.2,0.7-2.8,0.5-4.5-0.4L44.6,78.4c-1.2-0.7-2.3-1.9-3.1-3.3
			c-0.8-1.4-1.3-3-1.3-4.4V9c0-1.4,0.5-2.4,1.3-2.9c0.8-0.5,2-0.4,3.1,0.3l24.5,14.1v10.3C69.1,32.8,69.8,35.2,71,37.4z M64.4,71.2
			c0.5-0.3,0.8-1,0.8-1.8c1.3,0.8,2.6,1,3.7,0.5c1-0.4,1.7-1.4,1.9-2.9c0-0.3,0.1-0.6,0.1-0.9v-3.2c0-1.7-0.6-3.7-1.6-5.5
			c-1.1-1.8-2.5-3.3-4-4.2l-5.6-3.2v-3.2l8.4,4.9c0.7,0.4,1.5,0.5,2,0.2c0.5-0.3,0.8-1,0.8-1.8c0-0.9-0.3-1.9-0.8-2.8
			c-0.5-0.9-1.2-1.7-2-2.1l-2.8-1.6c0-0.9-0.3-1.9-0.8-2.8c-0.5-0.9-1.2-1.7-2-2.1c-0.7-0.4-1.5-0.5-2-0.2c-0.5,0.3-0.8,1-0.8,1.8
			c-1.5-0.9-2.9-1-4-0.4c-1.1,0.6-1.6,1.9-1.6,3.6v3.2c0,0.9,0.1,1.8,0.4,2.7c0.3,0.9,0.7,1.9,1.2,2.8c0.5,0.9,1.1,1.7,1.8,2.5
			c0.7,0.7,1.4,1.3,2.1,1.7l5.6,3.2v3.2L56.8,58c-0.7-0.4-1.5-0.5-2-0.2c-0.5,0.3-0.8,1-0.8,1.8c0,0.9,0.3,1.9,0.8,2.8
			c0.5,0.9,1.2,1.7,2,2.1l2.8,1.6c0,0.9,0.3,1.9,0.8,2.8c0.5,0.9,1.2,1.7,2,2.1C63.1,71.4,63.9,71.5,64.4,71.2z"/>
		<path class="st6" d="M81.1,98.9c-0.2,0-0.5,0-0.7-0.1l0.1-0.5c0.3,0.1,0.6,0.1,0.9,0l0,0.5C81.3,98.9,81.2,98.9,81.1,98.9z
			 M82.5,98.7l-0.2-0.5c0.1,0,0.2-0.1,0.4-0.2c0.2-0.1,0.3-0.2,0.4-0.3l0.3,0.4c-0.2,0.1-0.3,0.3-0.5,0.4
			C82.8,98.5,82.6,98.6,82.5,98.7z M79.4,98.6c-0.3-0.1-0.6-0.2-0.9-0.4l0.2-0.4c0.3,0.2,0.6,0.3,0.9,0.4L79.4,98.6z M77.6,97.7
			l-0.9-0.5l0.2-0.4l0.9,0.5L77.6,97.7z M84.1,97.3L83.7,97c0.2-0.3,0.3-0.5,0.4-0.8l0.5,0.2C84.4,96.7,84.3,97,84.1,97.3z
			 M75.8,96.7L75,96.2l0.2-0.4l0.9,0.5L75.8,96.7z M74.1,95.7l-0.9-0.5l0.2-0.4l0.9,0.5L74.1,95.7z M84.8,95.3l-0.5-0.1
			c0-0.3,0.1-0.6,0.1-1l0.5,0C84.9,94.6,84.9,95,84.8,95.3z M72.4,94.7l-0.9-0.5l0.2-0.4l0.9,0.5L72.4,94.7z M70.6,93.7l-0.9-0.5
			l0.2-0.4l0.9,0.5L70.6,93.7z M84.9,93.3h-0.5v-1h0.5V93.3z M68.9,92.7L68,92.2l0.2-0.4l0.9,0.5L68.9,92.7z M67.2,91.7l-0.9-0.5
			l0.2-0.4l0.9,0.5L67.2,91.7z M84.9,91.3h-0.5v-1h0.5V91.3z M65.4,90.7l-0.9-0.5l0.2-0.4l0.9,0.5L65.4,90.7z M63.7,89.7l-0.9-0.5
			l0.2-0.4l0.9,0.5L63.7,89.7z M84.9,89.3h-0.5v-1h0.5V89.3z M62,88.7l-0.9-0.5l0.2-0.4l0.9,0.5L62,88.7z M60.2,87.7l-0.9-0.5
			l0.2-0.4l0.9,0.5L60.2,87.7z M84.9,87.3h-0.5v-1h0.5V87.3z M58.5,86.7l-0.9-0.5l0.2-0.4l0.9,0.5L58.5,86.7z M56.8,85.7l-0.9-0.5
			l0.2-0.4l0.9,0.5L56.8,85.7z M84.9,85.3h-0.5v-1h0.5V85.3z M55,84.7l-0.9-0.5l0.2-0.4l0.9,0.5L55,84.7z M53.3,83.7l-0.9-0.5
			l0.2-0.4l0.9,0.5L53.3,83.7z M84.9,83.3h-0.5v-1h0.5V83.3z M51.6,82.7l-0.9-0.5l0.2-0.4l0.9,0.5L51.6,82.7z M49.8,81.7L49,81.2
			l0.2-0.4l0.9,0.5L49.8,81.7z M84.9,81.3h-0.5v-1h0.5V81.3z M48.1,80.7l-0.9-0.5l0.2-0.4l0.9,0.5L48.1,80.7z M46.4,79.7l-0.9-0.5
			l0.2-0.4l0.9,0.5L46.4,79.7z M84.9,79.3h-0.5v-1h0.5V79.3z M44.6,78.7l-0.2-0.1c-0.2-0.1-0.5-0.3-0.7-0.5l0.3-0.4
			c0.2,0.2,0.4,0.3,0.6,0.4l0.2,0.1L44.6,78.7z M43,77.4c-0.2-0.2-0.5-0.5-0.7-0.8l0.4-0.3c0.2,0.3,0.4,0.5,0.7,0.7L43,77.4z
			 M84.9,77.3h-0.5v-1h0.5V77.3z M41.7,75.9c-0.2-0.2-0.3-0.5-0.5-0.7L41.1,75l0.4-0.2l0.1,0.1c0.1,0.2,0.3,0.5,0.4,0.7L41.7,75.9z
			 M84.9,75.3h-0.5v-1h0.5V75.3z M40.7,74.1c-0.1-0.3-0.3-0.6-0.4-1l0.5-0.2c0.1,0.3,0.2,0.6,0.3,0.9L40.7,74.1z M84.9,73.3h-0.5v-1
			h0.5V73.3z M40.1,72.1c-0.1-0.3-0.1-0.7-0.1-1l0.5,0c0,0.3,0.1,0.6,0.1,1L40.1,72.1z M63.5,71.6c-0.3,0-0.7-0.1-1.1-0.3l0.2-0.4
			c0.3,0.1,0.6,0.2,0.9,0.2L63.5,71.6z M64.5,71.4l-0.2-0.4c0.2-0.1,0.4-0.3,0.5-0.6l0.5,0.2C65.1,70.9,64.8,71.2,64.5,71.4z
			 M84.9,71.3h-0.5v-1h0.5V71.3z M61.6,70.7c-0.3-0.2-0.5-0.5-0.7-0.7l0.4-0.3c0.2,0.3,0.4,0.5,0.7,0.7L61.6,70.7z M67.7,70.3
			c-0.3,0-0.5,0-0.8-0.1l0.1-0.5c0.3,0.1,0.6,0.1,0.9,0.1l0,0.5C67.9,70.3,67.8,70.3,67.7,70.3z M40.4,70.1h-0.5v-1h0.5V70.1z
			 M69,70.1l-0.2-0.5c0.3-0.1,0.5-0.3,0.7-0.5l0.4,0.4C69.7,69.7,69.4,69.9,69,70.1z M65.9,70c-0.3-0.1-0.6-0.3-0.8-0.4l0.1-0.1
			l-0.2,0l0-0.5l0.4,0.2c0.3,0.2,0.5,0.3,0.8,0.4L65.9,70z M84.9,69.3h-0.5v-1h0.5V69.3z M60.3,69.1L60.2,69
			c-0.1-0.3-0.3-0.5-0.4-0.8l0.5-0.2c0.1,0.3,0.2,0.5,0.4,0.7l0.1,0.1L60.3,69.1z M70.5,68.6l-0.4-0.2c0.1-0.3,0.2-0.6,0.3-0.9
			l0.5,0.1C70.8,67.9,70.7,68.3,70.5,68.6z M40.4,68.1h-0.5v-1h0.5V68.1z M84.9,67.3h-0.5v-1h0.5V67.3z M59.5,67.2
			c-0.1-0.4-0.1-0.7-0.1-1l0.5,0c0,0.3,0,0.6,0.1,0.9L59.5,67.2z M71,66.5l-0.5,0c0-0.1,0-0.3,0-0.4v-0.6h0.5v0.6
			C71.1,66.3,71.1,66.4,71,66.5z M40.4,66.1h-0.5v-1h0.5V66.1z M58.7,65.8l-0.9-0.5l0.2-0.4l0.9,0.5L58.7,65.8z M84.9,65.3h-0.5v-1
			h0.5V65.3z M56.9,64.8l-0.3-0.1c-0.2-0.1-0.4-0.3-0.6-0.4l0.3-0.4c0.2,0.1,0.4,0.3,0.5,0.4l0.3,0.1L56.9,64.8z M71.1,64.5h-0.5v-1
			h0.5V64.5z M40.4,64.1h-0.5v-1h0.5V64.1z M55.3,63.5c-0.2-0.3-0.4-0.5-0.6-0.8l0.4-0.3c0.2,0.3,0.4,0.5,0.6,0.8L55.3,63.5z
			 M84.9,63.3h-0.5v-1h0.5V63.3z M65.5,63.3l-0.4-0.2l0.1-0.2H65v-1h0.5V63.3z M64.2,62.6l-0.9-0.5l0.2-0.4l0.9,0.5L64.2,62.6z
			 M70.6,62.5c0-0.3,0-0.6-0.1-1l0.5-0.1c0.1,0.3,0.1,0.7,0.1,1L70.6,62.5z M40.4,62.1h-0.5v-1h0.5V62.1z M54.2,61.8
			c-0.1-0.3-0.3-0.7-0.3-1l0.5-0.1c0.1,0.3,0.2,0.6,0.3,0.9L54.2,61.8z M62.5,61.6l-0.9-0.5l0.2-0.4l0.9,0.5L62.5,61.6z M84.9,61.3
			h-0.5v-1h0.5V61.3z M65.5,60.9H65v-1h0.5V60.9z M70.3,60.6c-0.1-0.3-0.2-0.6-0.3-0.9l0.5-0.2c0.1,0.3,0.2,0.7,0.3,1L70.3,60.6z
			 M60.7,60.6l-0.9-0.5l0.2-0.4l0.9,0.5L60.7,60.6z M40.4,60.1h-0.5v-1h0.5V60.1z M53.7,59.8l0-0.1c0-0.3,0-0.7,0.1-0.9l0.5,0.1
			c-0.1,0.2-0.1,0.5-0.1,0.8l0,0.1L53.7,59.8z M59,59.6l-0.9-0.5l0.2-0.4l0.9,0.5L59,59.6z M64.4,59.5L63.6,59l0.2-0.4l0.9,0.5
			L64.4,59.5z M84.9,59.3h-0.5v-1h0.5V59.3z M69.6,58.8c-0.1-0.3-0.3-0.6-0.4-0.9l0.4-0.2c0.2,0.3,0.3,0.6,0.4,0.9L69.6,58.8z
			 M57.3,58.6l-0.6-0.3c-0.1,0-0.2-0.1-0.2-0.1l0.2-0.5c0.1,0,0.2,0.1,0.3,0.1l0.6,0.3L57.3,58.6z M62.7,58.5L61.8,58l0.2-0.4
			l0.9,0.5L62.7,58.5z M54.8,58.1l-0.3-0.4c0.1-0.1,0.1-0.1,0.2-0.1c0.3-0.1,0.5-0.2,0.9-0.2l0,0.5l0,0c-0.2,0-0.4,0.1-0.6,0.2
			C54.9,58,54.8,58.1,54.8,58.1z M40.4,58.1h-0.5v-1h0.5V58.1z M61,57.5L60.1,57l0.2-0.4l0.9,0.5L61,57.5z M84.9,57.3h-0.5v-1h0.5
			V57.3z M68.7,57c-0.2-0.3-0.4-0.6-0.6-0.8l0.4-0.3c0.2,0.3,0.4,0.6,0.6,0.8L68.7,57z M59.2,56.5c-0.3-0.2-0.6-0.4-0.8-0.6l0.3-0.4
			c0.3,0.2,0.5,0.4,0.8,0.6L59.2,56.5z M40.4,56.1h-0.5v-1h0.5V56.1z M67.5,55.5c-0.2-0.2-0.4-0.5-0.7-0.7l0.3-0.4
			c0.2,0.2,0.5,0.5,0.7,0.7L67.5,55.5z M84.9,55.3h-0.5v-1h0.5V55.3z M57.6,55.2c-0.1-0.1-0.2-0.2-0.4-0.4c-0.1-0.1-0.2-0.2-0.3-0.4
			l0.4-0.3c0.1,0.1,0.2,0.2,0.3,0.4c0.1,0.1,0.2,0.2,0.3,0.3L57.6,55.2z M40.4,54.1h-0.5v-1h0.5V54.1z M66.1,54.1
			c-0.3-0.2-0.5-0.4-0.8-0.6l0.3-0.4c0.3,0.2,0.6,0.4,0.8,0.6L66.1,54.1z M56.3,53.6c-0.2-0.3-0.4-0.6-0.6-0.8l0.4-0.3
			c0.2,0.3,0.4,0.5,0.6,0.8L56.3,53.6z M84.9,53.3h-0.5v-1h0.5V53.3z M64.5,53l-0.9-0.5l0.2-0.4l0.9,0.5L64.5,53z M69.3,52.2l-0.1,0
			l0-0.5l0.1,0c0.2,0,0.4-0.1,0.6-0.2c0,0,0.1,0,0.1-0.1l0.3,0.4c0,0-0.1,0.1-0.1,0.1C69.9,52.1,69.6,52.2,69.3,52.2z M40.4,52.1
			h-0.5v-1h0.5V52.1z M62.8,52l-0.9-0.5l0.2-0.4l0.9,0.5L62.8,52z M55.2,51.9c-0.2-0.3-0.3-0.6-0.4-0.9l0.5-0.2
			c0.1,0.3,0.3,0.6,0.4,0.9L55.2,51.9z M68.1,51.9c-0.1,0-0.1-0.1-0.2-0.1l-0.7-0.4l0.2-0.4l0.7,0.4c0.1,0,0.1,0.1,0.2,0.1
			L68.1,51.9z M84.9,51.3h-0.5v-1h0.5V51.3z M61,51l-0.9-0.5l0.2-0.4l0.9,0.5L61,51z M70.9,50.9l-0.5-0.2c0.1-0.2,0.1-0.5,0.1-0.8
			l0.5-0.1l0,0.1C71.1,50.3,71,50.6,70.9,50.9z M66.3,50.9l-0.9-0.5l0.2-0.4l0.9,0.5L66.3,50.9z M40.4,50.1h-0.5v-1h0.5V50.1z
			 M54.4,50.1c-0.1-0.2-0.1-0.4-0.2-0.6c0-0.1-0.1-0.2-0.1-0.4l0.5-0.1c0,0.1,0.1,0.2,0.1,0.4c0.1,0.2,0.1,0.4,0.2,0.6L54.4,50.1z
			 M64.6,49.9l-0.9-0.5l0.2-0.4l0.9,0.5L64.6,49.9z M59.8,49.7h-0.5v-1h0.5V49.7z M84.9,49.3h-0.5v-1h0.5V49.3z M70.4,48.9
			c-0.1-0.3-0.2-0.6-0.3-0.9l0.5-0.2c0.1,0.3,0.2,0.7,0.3,1L70.4,48.9z M62.9,48.9L62,48.4l0.2-0.4l0.9,0.5L62.9,48.9z M40.4,48.1
			h-0.5v-1h0.5V48.1z M53.9,48.1c-0.1-0.3-0.1-0.7-0.1-1l0.5,0c0,0.3,0.1,0.6,0.1,1L53.9,48.1z M61.2,47.9l-0.9-0.5l0.2-0.4l0.9,0.5
			L61.2,47.9z M59.8,47.7h-0.5v-1h0.5V47.7z M84.3,47.6l-0.9-0.5l0.2-0.4l0.9,0.5L84.3,47.6z M69.7,47.1c-0.2-0.3-0.4-0.5-0.6-0.8
			l0.4-0.3c0.2,0.3,0.4,0.5,0.6,0.8L69.7,47.1z M82.6,46.6l-0.9-0.5l0.2-0.4l0.9,0.5L82.6,46.6z M40.4,46.1h-0.5v-1h0.5V46.1z
			 M54.2,46.1h-0.5v-1h0.5V46.1z M68.5,45.7c-0.2-0.2-0.4-0.3-0.6-0.4l-0.2-0.1l0.2-0.4l0.2,0.1c0.2,0.1,0.5,0.3,0.7,0.5L68.5,45.7z
			 M80.9,45.6L80,45.1l0.2-0.4l0.9,0.5L80.9,45.6z M66.8,44.6L66,44.1l0.2-0.4l0.9,0.5L66.8,44.6z M79.1,44.6l-0.9-0.5l0.2-0.4
			l0.9,0.5L79.1,44.6z M40.4,44.1h-0.5v-1h0.5V44.1z M54.2,44.1h-0.5v-0.6c0-0.1,0-0.3,0-0.4l0.5,0c0,0.1,0,0.2,0,0.4V44.1z
			 M65.1,43.6L65,43.6v-0.1c0-0.3,0-0.6-0.1-0.9l0.5-0.1c0.1,0.4,0.1,0.7,0.1,1h-0.2L65.1,43.6z M77.4,43.6l-0.9-0.5l0.2-0.4
			l0.9,0.5L77.4,43.6z M75.7,42.6c-0.3-0.2-0.6-0.4-0.9-0.6l0.3-0.4c0.3,0.2,0.5,0.3,0.8,0.5l-0.1,0.2L75.7,42.6z M84.5,42.6
			l-0.9-0.5l0.2-0.4l0.1,0l-0.3-0.4l0.4-0.2l0.5,0.9L84.5,42l0.3,0.2L84.5,42.6z M54.4,42.1L53.9,42c0.1-0.4,0.2-0.7,0.3-1l0.5,0.2
			C54.5,41.5,54.4,41.8,54.4,42.1z M40.4,42.1h-0.5v-1h0.5V42.1z M64.6,41.6c-0.1-0.3-0.2-0.5-0.4-0.8l0-0.1l0.4-0.3l0,0.1
			c0.2,0.3,0.3,0.6,0.4,0.9L64.6,41.6z M82.8,41.6l-0.9-0.5l0.2-0.4l0.9,0.5L82.8,41.6z M74,41.4c-0.3-0.2-0.5-0.4-0.7-0.7l0.4-0.4
			c0.2,0.2,0.5,0.5,0.7,0.7L74,41.4z M59.8,40.6l-0.4-0.2c-0.3-0.2-0.6-0.3-0.9-0.4l0.2-0.5c0.3,0.1,0.6,0.3,0.9,0.4l-0.1,0.2l0.2,0
			V40.6z M81.1,40.6l-0.9-0.5l0.2-0.4l0.9,0.5L81.1,40.6z M55.2,40.5l-0.4-0.3c0.2-0.2,0.4-0.4,0.7-0.5c0.1,0,0.1-0.1,0.2-0.1
			l0.2,0.4c-0.1,0-0.1,0.1-0.2,0.1C55.5,40.1,55.3,40.3,55.2,40.5z M83.2,40.4l-0.5-0.9l0.4-0.2l0.5,0.9L83.2,40.4z M40.4,40.1h-0.5
			v-1h0.5V40.1z M72.6,40c-0.2-0.3-0.4-0.5-0.6-0.8l0.4-0.3c0.2,0.3,0.4,0.5,0.6,0.8L72.6,40z M63.6,39.9c-0.2-0.3-0.4-0.5-0.7-0.7
			l0.3-0.4c0.3,0.2,0.5,0.5,0.7,0.7L63.6,39.9z M57.7,39.7c-0.3-0.1-0.6-0.1-0.9,0l0-0.5c0.3,0,0.7,0,1.1,0L57.7,39.7z M79.3,39.6
			l-0.9-0.5l0.2-0.4l0.9,0.5L79.3,39.6z M60,39.3l-0.5-0.2c0.1-0.4,0.4-0.7,0.7-0.9l0.3,0.4C60.3,38.8,60.1,39,60,39.3z M62.1,38.7
			c-0.3-0.2-0.6-0.2-0.9-0.3l0-0.5c0.3,0,0.7,0.1,1,0.3L62.1,38.7z M82.2,38.6l-0.5-0.9l0.4-0.2l0.5,0.9L82.2,38.6z M77.6,38.6
			l-0.9-0.5l0.2-0.4l0.9,0.5L77.6,38.6z M71.3,38.4c-0.2-0.3-0.4-0.6-0.5-0.9l0.4-0.2c0.2,0.3,0.3,0.6,0.5,0.8L71.3,38.4z
			 M40.4,38.1h-0.5v-1h0.5V38.1z M75.9,37.6l-0.2-0.1c-0.2-0.1-0.4-0.3-0.6-0.5l0.3-0.4c0.2,0.2,0.4,0.3,0.5,0.4l0.2,0.1L75.9,37.6z
			 M70.7,37.3c-0.2-0.3-0.3-0.6-0.5-0.9l0.5-0.2c0.1,0.3,0.3,0.6,0.5,0.9L70.7,37.3z M81.2,36.9L80.7,36l0.4-0.2l0.5,0.9L81.2,36.9z
			 M74.3,36.2c-0.1-0.2-0.2-0.3-0.3-0.5c-0.1-0.1-0.1-0.2-0.2-0.4l0.5-0.2c0.1,0.1,0.1,0.2,0.2,0.3c0.1,0.2,0.2,0.3,0.3,0.5
			L74.3,36.2z M40.4,36.1h-0.5v-1h0.5V36.1z M69.8,35.4c-0.1-0.3-0.2-0.6-0.3-1l0.5-0.2c0.1,0.3,0.2,0.6,0.3,0.9L69.8,35.4z
			 M80.2,35.2l-0.5-0.9l0.4-0.2l0.5,0.9L80.2,35.2z M73.4,34.3c-0.1-0.3-0.1-0.7-0.1-1v-0.1h0.5v0.1c0,0.3,0,0.5,0.1,0.8L73.4,34.3z
			 M40.4,34.1h-0.5v-1h0.5V34.1z M69.2,33.5c-0.1-0.3-0.2-0.7-0.2-1l0.5-0.1c0.1,0.3,0.1,0.6,0.2,1L69.2,33.5z M79.2,33.4l-0.5-0.9
			l0.4-0.2l0.5,0.9L79.2,33.4z M73.8,32.3h-0.5v-1h0.5V32.3z M40.4,32.1h-0.5v-1h0.5V32.1z M78.2,31.7l-0.5-0.9l0.4-0.2l0.5,0.9
			L78.2,31.7z M68.8,31.5c0-0.2,0-0.5,0-0.7v-0.3h0.5v0.3c0,0.2,0,0.4,0,0.7L68.8,31.5z M73.8,30.3h-0.5v-1h0.5V30.3z M40.4,30.1
			h-0.5v-1h0.5V30.1z M77.2,30l-0.5-0.9l0.4-0.2l0.5,0.9L77.2,30z M69.3,29.5h-0.5v-1h0.5V29.5z M73.8,28.3h-0.5v-1h0.5V28.3z
			 M76.2,28.2l-0.5-0.9l0.4-0.2l0.5,0.9L76.2,28.2z M40.4,28.1h-0.5v-1h0.5V28.1z M69.3,27.5h-0.5v-1h0.5V27.5z M75.2,26.5l-0.5-0.9
			l0.4-0.2l0.5,0.9L75.2,26.5z M73.8,26.3h-0.5v-1h0.5V26.3z M40.4,26.1h-0.5v-1h0.5V26.1z M69.3,25.5h-0.5v-1h0.5V25.5z M74.2,24.8
			L73.8,24v0.3h-0.5v-1h0.5v0.6l0.4-0.2l0.5,0.9L74.2,24.8z M40.4,24.1h-0.5v-1h0.5V24.1z M69.3,23.5h-0.5v-1h0.5V23.5z M40.4,22.1
			h-0.5v-1h0.5V22.1z M69.3,21.5h-0.5v-1H69l0.1-0.2l0.2,0.1V21.5z M68,20.2l-0.9-0.5l0.2-0.4l0.9,0.5L68,20.2z M40.4,20.1h-0.5v-1
			h0.5V20.1z M66.3,19.2l-0.9-0.5l0.2-0.4l0.9,0.5L66.3,19.2z M64.6,18.2l-0.9-0.5l0.2-0.4l0.9,0.5L64.6,18.2z M40.4,18.1h-0.5v-1
			h0.5V18.1z M62.8,17.2L62,16.7l0.2-0.4l0.9,0.5L62.8,17.2z M61.1,16.2l-0.9-0.5l0.2-0.4l0.9,0.5L61.1,16.2z M40.4,16.1h-0.5v-1
			h0.5V16.1z M59.4,15.2l-0.9-0.5l0.2-0.4l0.9,0.5L59.4,15.2z M57.6,14.2l-0.9-0.5l0.2-0.4l0.9,0.5L57.6,14.2z M40.4,14.1h-0.5v-1
			h0.5V14.1z M55.9,13.2l-0.9-0.5l0.2-0.4l0.9,0.5L55.9,13.2z M54.2,12.2l-0.9-0.5l0.2-0.4l0.9,0.5L54.2,12.2z M40.4,12.1h-0.5v-1
			h0.5V12.1z M52.5,11.2l-0.9-0.5l0.2-0.4l0.9,0.5L52.5,11.2z M50.7,10.2l-0.9-0.5l0.2-0.4L51,9.8L50.7,10.2z M40.4,10.1h-0.5v-1
			h0.5V10.1z M49,9.2l-0.9-0.5l0.2-0.4l0.9,0.5L49,9.2z M47.3,8.2l-0.9-0.5l0.2-0.4l0.9,0.5L47.3,8.2z M40.5,8.1L40,8.1
			c0.1-0.4,0.2-0.7,0.3-1l0.5,0.2C40.6,7.5,40.5,7.8,40.5,8.1z M45.5,7.2l-0.9-0.5l0.2-0.4l0.9,0.5L45.5,7.2z M41.2,6.5l-0.3-0.4
			C41,6,41.2,5.9,41.3,5.9c0.2-0.1,0.4-0.2,0.6-0.2L42,6.1c-0.2,0-0.3,0.1-0.4,0.2C41.4,6.4,41.3,6.4,41.2,6.5z M43.8,6.3
			c-0.3-0.1-0.6-0.2-0.9-0.2L43,5.6c0.3,0,0.7,0.1,1,0.3L43.8,6.3z"/>
	</g>
</g>
</svg>
