<svg width="75" height="75" viewBox="0 0 75 75" fill="none" xmlns="http://www.w3.org/2000/svg">
<g id="merlin" clip-path="url(#clip0_1586_1117)">
<path id="Vector" fill-rule="evenodd" clip-rule="evenodd" d="M37.5 74.8535C58.125 74.8535 74.8535 58.125 74.8535 37.5C74.8535 16.875 58.125 0.146484 37.5 0.146484C16.875 0.146484 0.146484 16.875 0.146484 37.5C0.146484 46.9043 3.61816 55.4883 9.36035 62.0508L29.3555 43.5205C29.5752 43.1543 29.751 42.7588 29.8535 42.334L30.2051 41.0156L19.3506 39.4043C18.0762 39.2139 18.0762 37.3828 19.3506 37.1924L29.0332 35.7568L17.8125 20.625C17.0508 19.585 18.3398 18.2959 19.3799 19.0576L34.5117 30.2783L35.9473 20.5811C36.1377 19.3066 37.9688 19.3066 38.1592 20.5811L39.5947 30.2783L54.7266 19.0723C55.7666 18.3105 57.0557 19.5996 56.2939 20.6396L45.0879 35.7422L54.7852 37.1777C56.0596 37.3682 56.0596 39.1992 54.7852 39.3896L45.0879 40.8252L56.3086 55.957C57.0703 56.9971 55.7812 58.2861 54.7412 57.5244L39.6094 46.3184L38.1738 56.001C37.9834 57.2754 36.1523 57.2754 35.9619 56.001L34.3506 45.1465L32.8125 45.5566C32.6074 45.6152 32.4023 45.6885 32.2266 45.791L13.4766 66.1084C19.9658 71.5576 28.3447 74.8535 37.5 74.8535Z" fill="black"/>
<path id="Vector_2" fill-rule="evenodd" clip-rule="evenodd" d="M37.5 74.8535C58.125 74.8535 74.8535 58.125 74.8535 37.5C74.8535 16.875 58.125 0.146484 37.5 0.146484C16.875 0.146484 0.146484 16.875 0.146484 37.5C0.146484 46.9043 3.61816 55.4883 9.36035 62.0508L29.3555 43.5205C29.5752 43.1543 29.751 42.7588 29.8535 42.334L30.2051 41.0156L19.3506 39.4043C18.0762 39.2139 18.0762 37.3828 19.3506 37.1924L29.0332 35.7568L17.8125 20.625C17.0508 19.585 18.3398 18.2959 19.3799 19.0576L34.5117 30.2783L35.9473 20.5811C36.1377 19.3066 37.9688 19.3066 38.1592 20.5811L39.5947 30.2783L54.7266 19.0723C55.7666 18.3105 57.0557 19.5996 56.2939 20.6396L45.0879 35.7422L54.7852 37.1777C56.0596 37.3682 56.0596 39.1992 54.7852 39.3896L45.0879 40.8252L56.3086 55.957C57.0703 56.9971 55.7812 58.2861 54.7412 57.5244L39.6094 46.3184L38.1738 56.001C37.9834 57.2754 36.1523 57.2754 35.9619 56.001L34.3506 45.1465L32.8125 45.5566C32.6074 45.6152 32.4023 45.6885 32.2266 45.791L13.4766 66.1084C19.9658 71.5576 28.3447 74.8535 37.5 74.8535Z" fill="white"/>
</g>
<defs>
<clipPath id="clip0_1586_1117">
<rect width="75" height="75" fill="white"/>
</clipPath>
</defs>
</svg>
