<svg width="43" height="26" viewBox="0 0 43 26" fill="none" xmlns="http://www.w3.org/2000/svg">
<path id="Vector" d="M22.7605 0.823872C22.4883 0.718632 22.1876 0.64828 21.8774 0.612819L21.8179 0.78623C21.5418 0.754674 21.257 0.754674 20.9809 0.78623L20.9215 0.612819C20.6112 0.64828 20.3106 0.718631 20.0384 0.823871L20.2087 0.970754C20.0943 1.01501 19.9854 1.0664 19.8839 1.125L19.4535 1.37346L19.237 1.24846L18.3763 1.74538L18.5928 1.87038L17.7321 2.3673L17.5156 2.2423L16.6549 2.73922L16.8715 2.86422L16.0108 3.36114L15.7943 3.23614L14.9336 3.73306L15.1501 3.85806L14.2894 4.35498L14.0729 4.22998L13.2122 4.7269L13.4287 4.8519L12.568 5.34882L12.3515 5.22382L11.4908 5.72074L11.7073 5.84574L10.8466 6.34266L10.6301 6.21766L9.76942 6.71458L9.98593 6.83958L9.12523 7.3365L8.90873 7.2115L8.04804 7.70842L8.26454 7.83342L7.40385 8.33034L7.18735 8.20534L6.32666 8.70226L6.54316 8.82726L5.68247 9.32418L5.46597 9.19918L4.60527 9.6961L4.82178 9.8211L3.96109 10.318L3.74458 10.193L2.88389 10.6899L3.1004 10.8149L2.23971 11.3119L2.0232 11.1869L1.16251 11.6838L1.37902 11.8088L0.948671 12.0572C0.847177 12.1158 0.758168 12.1787 0.68151 12.2448L0.427102 12.1464C0.24482 12.3036 0.122968 12.4772 0.0615475 12.6563L0.361905 12.6906C0.307248 12.85 0.307248 13.0145 0.361904 13.1739L0.0615468 13.2082C0.122969 13.3873 0.244821 13.5609 0.427103 13.718L0.68151 13.6197C0.758168 13.6858 0.847178 13.7486 0.948671 13.8072L1.37703 14.0546L1.16052 14.1796L2.01723 14.6742L2.23374 14.5492L3.09045 15.0438L2.87395 15.1688L3.73066 15.6634L3.94717 15.5384L4.80388 16.033L4.58737 16.158L5.44409 16.6527L5.66059 16.5277L6.51731 17.0223L6.3008 17.1473L7.15751 17.6419L7.37402 17.5169L8.23073 18.0115L8.01422 18.1365L8.87094 18.6312L9.08744 18.5062L9.94416 19.0008L9.72765 19.1258L10.5844 19.6204L10.8009 19.4954L11.6576 19.99L11.4411 20.115L12.2978 20.6097L12.5143 20.4847L13.371 20.9793L13.1545 21.1043L14.0112 21.5989L14.2277 21.4739L15.0844 21.9685L14.8679 22.0935L15.7246 22.5882L15.9411 22.4632L16.7979 22.9578L16.5813 23.0828L17.4381 23.5774L17.6546 23.4524L18.5113 23.947L18.2948 24.072L19.1515 24.5666L19.368 24.4416L19.7964 24.689C19.8978 24.7476 20.0067 24.7989 20.1212 24.8432L19.9508 24.9901C20.223 25.0953 20.5237 25.1657 20.8339 25.2011L20.8934 25.0277C21.1695 25.0593 21.4543 25.0593 21.7304 25.0277L21.7899 25.2011C22.1001 25.1657 22.4008 25.0953 22.6729 24.9901L22.5026 24.8432C22.617 24.7989 22.7259 24.7476 22.8274 24.689L23.2578 24.4405L23.4743 24.5655L24.335 24.0686L24.1185 23.9436L24.9792 23.4467L25.1957 23.5717L26.0564 23.0747L25.8399 22.9497L26.7005 22.4528L26.9171 22.5778L27.7777 22.0809L27.5612 21.9559L28.4219 21.459L28.6384 21.584L29.4991 21.0871L29.2826 20.9621L30.1433 20.4651L30.3598 20.5901L31.2205 20.0932L31.004 19.9682L31.8647 19.4713L32.0812 19.5963L32.9419 19.0994L32.7254 18.9744L33.5861 18.4775L33.8026 18.6025L34.6633 18.1055L34.4468 17.9805L35.3075 17.4836L35.524 17.6086L36.3847 17.1117L36.1681 16.9867L37.0288 16.4898L37.2453 16.6148L38.106 16.1179L37.8895 15.9929L38.7502 15.4959L38.9667 15.6209L39.8274 15.124L39.6109 14.999L40.4716 14.5021L40.6881 14.6271L41.5488 14.1302L41.3323 14.0052L41.7626 13.7567C41.8641 13.6981 41.9531 13.6352 42.0298 13.5692L42.2842 13.6675C42.4665 13.5104 42.5883 13.3368 42.6498 13.1577L42.3494 13.1233C42.4041 12.9639 42.4041 12.7995 42.3494 12.6401L42.6498 12.6058C42.5883 12.4266 42.4665 12.2531 42.2842 12.0959L42.0298 12.1943C41.9531 12.1282 41.8641 12.0653 41.7626 12.0067L41.3343 11.7594L41.5508 11.6344L40.6941 11.1398L40.4776 11.2648L39.6209 10.7702L39.8374 10.6452L38.9807 10.1505L38.7641 10.2755L37.9074 9.78091L38.1239 9.65591L37.2672 9.16129L37.0507 9.28629L36.194 8.79166L36.4105 8.66666L35.5538 8.17204L35.3373 8.29704L34.4806 7.80241L34.6971 7.67741L33.8404 7.18279L33.6239 7.30779L32.7672 6.81317L32.9837 6.68817L32.1269 6.19355L31.9104 6.31855L31.0537 5.82392L31.2702 5.69892L30.4135 5.2043L30.197 5.3293L29.3403 4.83468L29.5568 4.70968L28.7001 4.21505L28.4836 4.34005L27.6269 3.84543L27.8434 3.72043L26.9867 3.22581L26.7702 3.35081L25.9135 2.85618L26.13 2.73118L25.2732 2.23656L25.0567 2.36156L24.2 1.86694L24.4165 1.74194L23.5598 1.24731L23.3433 1.37231L22.915 1.125C22.8135 1.0664 22.7046 1.01501 22.5901 0.970754L22.7605 0.823872Z" fill="#4C67EF" stroke="white" stroke-width="0.5" stroke-dasharray="1 1"/>
</svg>
